ISO-10303-21;
HEADER;
/* Generated by software containing ST-Developer
 * from STEP Tools, Inc. (www.steptools.com) 
 */
/* OPTION: using custom renumber hook */

FILE_DESCRIPTION(
/* description */ ('STEP AP242 Edition 2',
'CAx-IF Rec.Pracs.---Representation and Presentation of Product Manufa
cturing Information (PMI)---4.0---2014-10-13',
'CAx-IF Rec.Pracs.---3D Tessellated Geometry---0.4---2014-09-14','2;1',
'CAx-IF Rec.Pracs.---User Defined Attributes---1.5---2016-08-15'),
/* implementation_level */ '2;1');

FILE_NAME(
/* name */ 'Belt tensioner',
/* time_stamp */ '2026-07-04T19:00:14Z',
/* author */ (''),
/* organization */ (''),
/* preprocessor_version */ 'ST-DEVELOPER v20',
/* originating_system */ 'ONSHAPE BY PTC INC, 1.217',
/* authorisation */ '  ');

FILE_SCHEMA (('AP242_MANAGED_MODEL_BASED_3D_ENGINEERING_MIM_LF { 1 0 10303 442 3 1 4 }'));
ENDSEC;

DATA;
#10=SHAPE_REPRESENTATION_RELATIONSHIP('','',#467,#12);
#11=SHAPE_REPRESENTATION_RELATIONSHIP('','',#468,#13);
#12=ADVANCED_BREP_SHAPE_REPRESENTATION('',(#463),#743);
#13=ADVANCED_BREP_SHAPE_REPRESENTATION('',(#464),#744);
#14=CYLINDRICAL_SURFACE('',#484,0.00235207945367578);
#15=CYLINDRICAL_SURFACE('',#485,0.002);
#16=CYLINDRICAL_SURFACE('',#501,0.00235207945367578);
#17=CYLINDRICAL_SURFACE('',#502,0.002);
#18=CIRCLE('',#473,0.00235207945367578);
#19=CIRCLE('',#477,0.002);
#20=CIRCLE('',#480,0.00235207945367578);
#21=CIRCLE('',#483,0.002);
#22=CIRCLE('',#490,0.00235207945367578);
#23=CIRCLE('',#494,0.002);
#24=CIRCLE('',#497,0.00235207945367578);
#25=CIRCLE('',#500,0.002);
#26=ORIENTED_EDGE('',*,*,#138,.F.);
#27=ORIENTED_EDGE('',*,*,#139,.F.);
#28=ORIENTED_EDGE('',*,*,#140,.T.);
#29=ORIENTED_EDGE('',*,*,#141,.T.);
#30=ORIENTED_EDGE('',*,*,#142,.T.);
#31=ORIENTED_EDGE('',*,*,#141,.F.);
#32=ORIENTED_EDGE('',*,*,#143,.F.);
#33=ORIENTED_EDGE('',*,*,#144,.T.);
#34=ORIENTED_EDGE('',*,*,#145,.T.);
#35=ORIENTED_EDGE('',*,*,#146,.T.);
#36=ORIENTED_EDGE('',*,*,#144,.F.);
#37=ORIENTED_EDGE('',*,*,#147,.F.);
#38=ORIENTED_EDGE('',*,*,#148,.T.);
#39=ORIENTED_EDGE('',*,*,#149,.T.);
#40=ORIENTED_EDGE('',*,*,#150,.T.);
#41=ORIENTED_EDGE('',*,*,#151,.T.);
#42=ORIENTED_EDGE('',*,*,#139,.T.);
#43=ORIENTED_EDGE('',*,*,#152,.F.);
#44=ORIENTED_EDGE('',*,*,#148,.F.);
#45=ORIENTED_EDGE('',*,*,#153,.T.);
#46=ORIENTED_EDGE('',*,*,#154,.F.);
#47=ORIENTED_EDGE('',*,*,#155,.T.);
#48=ORIENTED_EDGE('',*,*,#153,.F.);
#49=ORIENTED_EDGE('',*,*,#147,.T.);
#50=ORIENTED_EDGE('',*,*,#143,.T.);
#51=ORIENTED_EDGE('',*,*,#140,.F.);
#52=ORIENTED_EDGE('',*,*,#151,.F.);
#53=ORIENTED_EDGE('',*,*,#156,.F.);
#54=ORIENTED_EDGE('',*,*,#157,.F.);
#55=ORIENTED_EDGE('',*,*,#158,.F.);
#56=ORIENTED_EDGE('',*,*,#138,.T.);
#57=ORIENTED_EDGE('',*,*,#142,.F.);
#58=ORIENTED_EDGE('',*,*,#146,.F.);
#59=ORIENTED_EDGE('',*,*,#152,.T.);
#60=ORIENTED_EDGE('',*,*,#157,.T.);
#61=ORIENTED_EDGE('',*,*,#159,.F.);
#62=ORIENTED_EDGE('',*,*,#160,.F.);
#63=ORIENTED_EDGE('',*,*,#161,.T.);
#64=ORIENTED_EDGE('',*,*,#162,.F.);
#65=ORIENTED_EDGE('',*,*,#155,.F.);
#66=ORIENTED_EDGE('',*,*,#161,.F.);
#67=ORIENTED_EDGE('',*,*,#163,.T.);
#68=ORIENTED_EDGE('',*,*,#154,.T.);
#69=ORIENTED_EDGE('',*,*,#156,.T.);
#70=ORIENTED_EDGE('',*,*,#150,.F.);
#71=ORIENTED_EDGE('',*,*,#164,.F.);
#72=ORIENTED_EDGE('',*,*,#159,.T.);
#73=ORIENTED_EDGE('',*,*,#165,.T.);
#74=ORIENTED_EDGE('',*,*,#160,.T.);
#75=ORIENTED_EDGE('',*,*,#164,.T.);
#76=ORIENTED_EDGE('',*,*,#149,.F.);
#77=ORIENTED_EDGE('',*,*,#163,.F.);
#78=ORIENTED_EDGE('',*,*,#145,.F.);
#79=ORIENTED_EDGE('',*,*,#162,.T.);
#80=ORIENTED_EDGE('',*,*,#165,.F.);
#81=ORIENTED_EDGE('',*,*,#158,.T.);
#82=ORIENTED_EDGE('',*,*,#166,.T.);
#83=ORIENTED_EDGE('',*,*,#167,.F.);
#84=ORIENTED_EDGE('',*,*,#168,.F.);
#85=ORIENTED_EDGE('',*,*,#169,.T.);
#86=ORIENTED_EDGE('',*,*,#170,.F.);
#87=ORIENTED_EDGE('',*,*,#171,.F.);
#88=ORIENTED_EDGE('',*,*,#172,.T.);
#89=ORIENTED_EDGE('',*,*,#167,.T.);
#90=ORIENTED_EDGE('',*,*,#173,.F.);
#91=ORIENTED_EDGE('',*,*,#174,.F.);
#92=ORIENTED_EDGE('',*,*,#175,.F.);
#93=ORIENTED_EDGE('',*,*,#176,.T.);
#94=ORIENTED_EDGE('',*,*,#171,.T.);
#95=ORIENTED_EDGE('',*,*,#177,.F.);
#96=ORIENTED_EDGE('',*,*,#178,.T.);
#97=ORIENTED_EDGE('',*,*,#179,.F.);
#98=ORIENTED_EDGE('',*,*,#175,.T.);
#99=ORIENTED_EDGE('',*,*,#180,.T.);
#100=ORIENTED_EDGE('',*,*,#169,.F.);
#101=ORIENTED_EDGE('',*,*,#181,.F.);
#102=ORIENTED_EDGE('',*,*,#182,.F.);
#103=ORIENTED_EDGE('',*,*,#183,.F.);
#104=ORIENTED_EDGE('',*,*,#184,.T.);
#105=ORIENTED_EDGE('',*,*,#185,.T.);
#106=ORIENTED_EDGE('',*,*,#181,.T.);
#107=ORIENTED_EDGE('',*,*,#168,.T.);
#108=ORIENTED_EDGE('',*,*,#172,.F.);
#109=ORIENTED_EDGE('',*,*,#176,.F.);
#110=ORIENTED_EDGE('',*,*,#179,.T.);
#111=ORIENTED_EDGE('',*,*,#186,.T.);
#112=ORIENTED_EDGE('',*,*,#166,.F.);
#113=ORIENTED_EDGE('',*,*,#180,.F.);
#114=ORIENTED_EDGE('',*,*,#174,.T.);
#115=ORIENTED_EDGE('',*,*,#170,.T.);
#116=ORIENTED_EDGE('',*,*,#184,.F.);
#117=ORIENTED_EDGE('',*,*,#187,.F.);
#118=ORIENTED_EDGE('',*,*,#188,.T.);
#119=ORIENTED_EDGE('',*,*,#189,.T.);
#120=ORIENTED_EDGE('',*,*,#190,.T.);
#121=ORIENTED_EDGE('',*,*,#183,.T.);
#122=ORIENTED_EDGE('',*,*,#178,.F.);
#123=ORIENTED_EDGE('',*,*,#191,.F.);
#124=ORIENTED_EDGE('',*,*,#187,.T.);
#125=ORIENTED_EDGE('',*,*,#185,.F.);
#126=ORIENTED_EDGE('',*,*,#189,.F.);
#127=ORIENTED_EDGE('',*,*,#192,.T.);
#128=ORIENTED_EDGE('',*,*,#182,.T.);
#129=ORIENTED_EDGE('',*,*,#193,.F.);
#130=ORIENTED_EDGE('',*,*,#188,.F.);
#131=ORIENTED_EDGE('',*,*,#191,.T.);
#132=ORIENTED_EDGE('',*,*,#177,.T.);
#133=ORIENTED_EDGE('',*,*,#192,.F.);
#134=ORIENTED_EDGE('',*,*,#173,.T.);
#135=ORIENTED_EDGE('',*,*,#190,.F.);
#136=ORIENTED_EDGE('',*,*,#193,.T.);
#137=ORIENTED_EDGE('',*,*,#186,.F.);
#138=EDGE_CURVE('',#194,#195,#234,.T.);
#139=EDGE_CURVE('',#196,#194,#235,.T.);
#140=EDGE_CURVE('',#196,#197,#236,.T.);
#141=EDGE_CURVE('',#197,#195,#237,.T.);
#142=EDGE_CURVE('',#198,#195,#238,.T.);
#143=EDGE_CURVE('',#199,#197,#239,.T.);
#144=EDGE_CURVE('',#199,#198,#240,.T.);
#145=EDGE_CURVE('',#200,#200,#18,.T.);
#146=EDGE_CURVE('',#201,#198,#241,.T.);
#147=EDGE_CURVE('',#202,#199,#242,.T.);
#148=EDGE_CURVE('',#202,#201,#243,.T.);
#149=EDGE_CURVE('',#203,#204,#244,.T.);
#150=EDGE_CURVE('',#204,#205,#245,.T.);
#151=EDGE_CURVE('',#205,#196,#246,.T.);
#152=EDGE_CURVE('',#201,#194,#247,.T.);
#153=EDGE_CURVE('',#202,#206,#248,.T.);
#154=EDGE_CURVE('',#203,#206,#249,.T.);
#155=EDGE_CURVE('',#207,#206,#250,.T.);
#156=EDGE_CURVE('',#208,#205,#251,.T.);
#157=EDGE_CURVE('',#207,#208,#252,.T.);
#158=EDGE_CURVE('',#209,#209,#19,.T.);
#159=EDGE_CURVE('',#210,#208,#253,.T.);
#160=EDGE_CURVE('',#211,#210,#254,.T.);
#161=EDGE_CURVE('',#211,#207,#255,.T.);
#162=EDGE_CURVE('',#212,#212,#20,.T.);
#163=EDGE_CURVE('',#211,#203,#256,.T.);
#164=EDGE_CURVE('',#210,#204,#257,.T.);
#165=EDGE_CURVE('',#213,#213,#21,.T.);
#166=EDGE_CURVE('',#214,#215,#258,.T.);
#167=EDGE_CURVE('',#216,#215,#259,.T.);
#168=EDGE_CURVE('',#217,#216,#260,.T.);
#169=EDGE_CURVE('',#217,#214,#261,.T.);
#170=EDGE_CURVE('',#218,#215,#262,.T.);
#171=EDGE_CURVE('',#219,#218,#263,.T.);
#172=EDGE_CURVE('',#219,#216,#264,.T.);
#173=EDGE_CURVE('',#220,#220,#22,.T.);
#174=EDGE_CURVE('',#221,#218,#265,.T.);
#175=EDGE_CURVE('',#222,#221,#266,.T.);
#176=EDGE_CURVE('',#222,#219,#267,.T.);
#177=EDGE_CURVE('',#223,#224,#268,.T.);
#178=EDGE_CURVE('',#223,#225,#269,.T.);
#179=EDGE_CURVE('',#222,#225,#270,.T.);
#180=EDGE_CURVE('',#221,#214,#271,.T.);
#181=EDGE_CURVE('',#226,#217,#272,.T.);
#182=EDGE_CURVE('',#224,#226,#273,.T.);
#183=EDGE_CURVE('',#227,#225,#274,.T.);
#184=EDGE_CURVE('',#227,#228,#275,.T.);
#185=EDGE_CURVE('',#228,#226,#276,.T.);
#186=EDGE_CURVE('',#229,#229,#23,.T.);
#187=EDGE_CURVE('',#230,#227,#277,.T.);
#188=EDGE_CURVE('',#230,#231,#278,.T.);
#189=EDGE_CURVE('',#231,#228,#279,.T.);
#190=EDGE_CURVE('',#232,#232,#24,.T.);
#191=EDGE_CURVE('',#230,#223,#280,.T.);
#192=EDGE_CURVE('',#231,#224,#281,.T.);
#193=EDGE_CURVE('',#233,#233,#25,.T.);
#194=VERTEX_POINT('',#622);
#195=VERTEX_POINT('',#623);
#196=VERTEX_POINT('',#625);
#197=VERTEX_POINT('',#627);
#198=VERTEX_POINT('',#631);
#199=VERTEX_POINT('',#633);
#200=VERTEX_POINT('',#637);
#201=VERTEX_POINT('',#639);
#202=VERTEX_POINT('',#641);
#203=VERTEX_POINT('',#645);
#204=VERTEX_POINT('',#646);
#205=VERTEX_POINT('',#648);
#206=VERTEX_POINT('',#652);
#207=VERTEX_POINT('',#656);
#208=VERTEX_POINT('',#658);
#209=VERTEX_POINT('',#662);
#210=VERTEX_POINT('',#665);
#211=VERTEX_POINT('',#667);
#212=VERTEX_POINT('',#671);
#213=VERTEX_POINT('',#677);
#214=VERTEX_POINT('',#683);
#215=VERTEX_POINT('',#684);
#216=VERTEX_POINT('',#686);
#217=VERTEX_POINT('',#688);
#218=VERTEX_POINT('',#692);
#219=VERTEX_POINT('',#694);
#220=VERTEX_POINT('',#698);
#221=VERTEX_POINT('',#700);
#222=VERTEX_POINT('',#702);
#223=VERTEX_POINT('',#706);
#224=VERTEX_POINT('',#707);
#225=VERTEX_POINT('',#709);
#226=VERTEX_POINT('',#713);
#227=VERTEX_POINT('',#717);
#228=VERTEX_POINT('',#719);
#229=VERTEX_POINT('',#723);
#230=VERTEX_POINT('',#726);
#231=VERTEX_POINT('',#728);
#232=VERTEX_POINT('',#732);
#233=VERTEX_POINT('',#738);
#234=LINE('',#621,#282);
#235=LINE('',#624,#283);
#236=LINE('',#626,#284);
#237=LINE('',#628,#285);
#238=LINE('',#630,#286);
#239=LINE('',#632,#287);
#240=LINE('',#634,#288);
#241=LINE('',#638,#289);
#242=LINE('',#640,#290);
#243=LINE('',#642,#291);
#244=LINE('',#644,#292);
#245=LINE('',#647,#293);
#246=LINE('',#649,#294);
#247=LINE('',#650,#295);
#248=LINE('',#651,#296);
#249=LINE('',#653,#297);
#250=LINE('',#655,#298);
#251=LINE('',#657,#299);
#252=LINE('',#659,#300);
#253=LINE('',#664,#301);
#254=LINE('',#666,#302);
#255=LINE('',#668,#303);
#256=LINE('',#672,#304);
#257=LINE('',#674,#305);
#258=LINE('',#682,#306);
#259=LINE('',#685,#307);
#260=LINE('',#687,#308);
#261=LINE('',#689,#309);
#262=LINE('',#691,#310);
#263=LINE('',#693,#311);
#264=LINE('',#695,#312);
#265=LINE('',#699,#313);
#266=LINE('',#701,#314);
#267=LINE('',#703,#315);
#268=LINE('',#705,#316);
#269=LINE('',#708,#317);
#270=LINE('',#710,#318);
#271=LINE('',#711,#319);
#272=LINE('',#712,#320);
#273=LINE('',#714,#321);
#274=LINE('',#716,#322);
#275=LINE('',#718,#323);
#276=LINE('',#720,#324);
#277=LINE('',#725,#325);
#278=LINE('',#727,#326);
#279=LINE('',#729,#327);
#280=LINE('',#733,#328);
#281=LINE('',#735,#329);
#282=VECTOR('',#507,1.);
#283=VECTOR('',#508,1.);
#284=VECTOR('',#509,1.);
#285=VECTOR('',#510,1.);
#286=VECTOR('',#513,1.);
#287=VECTOR('',#514,1.);
#288=VECTOR('',#515,1.);
#289=VECTOR('',#520,1.);
#290=VECTOR('',#521,1.);
#291=VECTOR('',#522,1.);
#292=VECTOR('',#525,1.);
#293=VECTOR('',#526,1.);
#294=VECTOR('',#527,1.);
#295=VECTOR('',#528,1.);
#296=VECTOR('',#529,1.);
#297=VECTOR('',#530,1.);
#298=VECTOR('',#533,1.);
#299=VECTOR('',#534,1.);
#300=VECTOR('',#535,1.);
#301=VECTOR('',#542,1.);
#302=VECTOR('',#543,1.);
#303=VECTOR('',#544,1.);
#304=VECTOR('',#549,1.);
#305=VECTOR('',#552,1.);
#306=VECTOR('',#565,1.);
#307=VECTOR('',#566,1.);
#308=VECTOR('',#567,1.);
#309=VECTOR('',#568,1.);
#310=VECTOR('',#571,1.);
#311=VECTOR('',#572,1.);
#312=VECTOR('',#573,1.);
#313=VECTOR('',#578,1.);
#314=VECTOR('',#579,1.);
#315=VECTOR('',#580,1.);
#316=VECTOR('',#583,1.);
#317=VECTOR('',#584,1.);
#318=VECTOR('',#585,1.);
#319=VECTOR('',#586,1.);
#320=VECTOR('',#587,1.);
#321=VECTOR('',#588,1.);
#322=VECTOR('',#591,1.);
#323=VECTOR('',#592,1.);
#324=VECTOR('',#593,1.);
#325=VECTOR('',#600,1.);
#326=VECTOR('',#601,1.);
#327=VECTOR('',#602,1.);
#328=VECTOR('',#607,1.);
#329=VECTOR('',#610,1.);
#330=EDGE_LOOP('',(#26,#27,#28,#29));
#331=EDGE_LOOP('',(#30,#31,#32,#33));
#332=EDGE_LOOP('',(#34));
#333=EDGE_LOOP('',(#35,#36,#37,#38));
#334=EDGE_LOOP('',(#39,#40,#41,#42,#43,#44,#45,#46));
#335=EDGE_LOOP('',(#47,#48,#49,#50,#51,#52,#53,#54));
#336=EDGE_LOOP('',(#55));
#337=EDGE_LOOP('',(#56,#57,#58,#59));
#338=EDGE_LOOP('',(#60,#61,#62,#63));
#339=EDGE_LOOP('',(#64));
#340=EDGE_LOOP('',(#65,#66,#67,#68));
#341=EDGE_LOOP('',(#69,#70,#71,#72));
#342=EDGE_LOOP('',(#73));
#343=EDGE_LOOP('',(#74,#75,#76,#77));
#344=EDGE_LOOP('',(#78));
#345=EDGE_LOOP('',(#79));
#346=EDGE_LOOP('',(#80));
#347=EDGE_LOOP('',(#81));
#348=EDGE_LOOP('',(#82,#83,#84,#85));
#349=EDGE_LOOP('',(#86,#87,#88,#89));
#350=EDGE_LOOP('',(#90));
#351=EDGE_LOOP('',(#91,#92,#93,#94));
#352=EDGE_LOOP('',(#95,#96,#97,#98,#99,#100,#101,#102));
#353=EDGE_LOOP('',(#103,#104,#105,#106,#107,#108,#109,#110));
#354=EDGE_LOOP('',(#111));
#355=EDGE_LOOP('',(#112,#113,#114,#115));
#356=EDGE_LOOP('',(#116,#117,#118,#119));
#357=EDGE_LOOP('',(#120));
#358=EDGE_LOOP('',(#121,#122,#123,#124));
#359=EDGE_LOOP('',(#125,#126,#127,#128));
#360=EDGE_LOOP('',(#129));
#361=EDGE_LOOP('',(#130,#131,#132,#133));
#362=EDGE_LOOP('',(#134));
#363=EDGE_LOOP('',(#135));
#364=EDGE_LOOP('',(#136));
#365=EDGE_LOOP('',(#137));
#366=FACE_BOUND('',#330,.T.);
#367=FACE_BOUND('',#331,.T.);
#368=FACE_BOUND('',#332,.T.);
#369=FACE_BOUND('',#333,.T.);
#370=FACE_BOUND('',#334,.T.);
#371=FACE_BOUND('',#335,.T.);
#372=FACE_BOUND('',#336,.T.);
#373=FACE_BOUND('',#337,.T.);
#374=FACE_BOUND('',#338,.T.);
#375=FACE_BOUND('',#339,.T.);
#376=FACE_BOUND('',#340,.T.);
#377=FACE_BOUND('',#341,.T.);
#378=FACE_BOUND('',#342,.T.);
#379=FACE_BOUND('',#343,.T.);
#380=FACE_BOUND('',#344,.T.);
#381=FACE_BOUND('',#345,.T.);
#382=FACE_BOUND('',#346,.T.);
#383=FACE_BOUND('',#347,.T.);
#384=FACE_BOUND('',#348,.T.);
#385=FACE_BOUND('',#349,.T.);
#386=FACE_BOUND('',#350,.T.);
#387=FACE_BOUND('',#351,.T.);
#388=FACE_BOUND('',#352,.T.);
#389=FACE_BOUND('',#353,.T.);
#390=FACE_BOUND('',#354,.T.);
#391=FACE_BOUND('',#355,.T.);
#392=FACE_BOUND('',#356,.T.);
#393=FACE_BOUND('',#357,.T.);
#394=FACE_BOUND('',#358,.T.);
#395=FACE_BOUND('',#359,.T.);
#396=FACE_BOUND('',#360,.T.);
#397=FACE_BOUND('',#361,.T.);
#398=FACE_BOUND('',#362,.T.);
#399=FACE_BOUND('',#363,.T.);
#400=FACE_BOUND('',#364,.T.);
#401=FACE_BOUND('',#365,.T.);
#402=PLANE('',#470);
#403=PLANE('',#471);
#404=PLANE('',#472);
#405=PLANE('',#474);
#406=PLANE('',#475);
#407=PLANE('',#476);
#408=PLANE('',#478);
#409=PLANE('',#479);
#410=PLANE('',#481);
#411=PLANE('',#482);
#412=PLANE('',#487);
#413=PLANE('',#488);
#414=PLANE('',#489);
#415=PLANE('',#491);
#416=PLANE('',#492);
#417=PLANE('',#493);
#418=PLANE('',#495);
#419=PLANE('',#496);
#420=PLANE('',#498);
#421=PLANE('',#499);
#422=ADVANCED_FACE('',(#366),#402,.F.);
#423=ADVANCED_FACE('',(#367),#403,.T.);
#424=ADVANCED_FACE('',(#368,#369),#404,.T.);
#425=ADVANCED_FACE('',(#370),#405,.F.);
#426=ADVANCED_FACE('',(#371),#406,.T.);
#427=ADVANCED_FACE('',(#372,#373),#407,.F.);
#428=ADVANCED_FACE('',(#374),#408,.T.);
#429=ADVANCED_FACE('',(#375,#376),#409,.F.);
#430=ADVANCED_FACE('',(#377),#410,.T.);
#431=ADVANCED_FACE('',(#378,#379),#411,.T.);
#432=ADVANCED_FACE('',(#380,#381),#14,.F.);
#433=ADVANCED_FACE('',(#382,#383),#15,.F.);
#434=ADVANCED_FACE('',(#384),#412,.F.);
#435=ADVANCED_FACE('',(#385),#413,.T.);
#436=ADVANCED_FACE('',(#386,#387),#414,.T.);
#437=ADVANCED_FACE('',(#388),#415,.F.);
#438=ADVANCED_FACE('',(#389),#416,.T.);
#439=ADVANCED_FACE('',(#390,#391),#417,.F.);
#440=ADVANCED_FACE('',(#392),#418,.T.);
#441=ADVANCED_FACE('',(#393,#394),#419,.F.);
#442=ADVANCED_FACE('',(#395),#420,.T.);
#443=ADVANCED_FACE('',(#396,#397),#421,.T.);
#444=ADVANCED_FACE('',(#398,#399),#16,.F.);
#445=ADVANCED_FACE('',(#400,#401),#17,.F.);
#446=CLOSED_SHELL('',(#422,#423,#424,#425,#426,#427,#428,#429,#430,#431,
#432,#433));
#447=CLOSED_SHELL('',(#434,#435,#436,#437,#438,#439,#440,#441,#442,#443,
#444,#445));
#448=STYLED_ITEM('',(#450),#463);
#449=STYLED_ITEM('',(#451),#464);
#450=PRESENTATION_STYLE_ASSIGNMENT((#452));
#451=PRESENTATION_STYLE_ASSIGNMENT((#453));
#452=SURFACE_STYLE_USAGE(.BOTH.,#454);
#453=SURFACE_STYLE_USAGE(.BOTH.,#455);
#454=SURFACE_SIDE_STYLE('',(#456));
#455=SURFACE_SIDE_STYLE('',(#457));
#456=SURFACE_STYLE_FILL_AREA(#458);
#457=SURFACE_STYLE_FILL_AREA(#459);
#458=FILL_AREA_STYLE('',(#460));
#459=FILL_AREA_STYLE('',(#461));
#460=FILL_AREA_STYLE_COLOUR('',#462);
#461=FILL_AREA_STYLE_COLOUR('',#462);
#462=COLOUR_RGB('',0.615686274509804,0.811764705882353,0.929411764705882);
#463=MANIFOLD_SOLID_BREP('Part 2',#446);
#464=MANIFOLD_SOLID_BREP('Part 1',#447);
#465=SHAPE_DEFINITION_REPRESENTATION(#753,#467);
#466=SHAPE_DEFINITION_REPRESENTATION(#754,#468);
#467=SHAPE_REPRESENTATION('Part 2',(#469),#743);
#468=SHAPE_REPRESENTATION('Part 1',(#486),#744);
#469=AXIS2_PLACEMENT_3D('',#619,#503,#504);
#470=AXIS2_PLACEMENT_3D('',#620,#505,#506);
#471=AXIS2_PLACEMENT_3D('',#629,#511,#512);
#472=AXIS2_PLACEMENT_3D('',#635,#516,#517);
#473=AXIS2_PLACEMENT_3D('',#636,#518,#519);
#474=AXIS2_PLACEMENT_3D('',#643,#523,#524);
#475=AXIS2_PLACEMENT_3D('',#654,#531,#532);
#476=AXIS2_PLACEMENT_3D('',#660,#536,#537);
#477=AXIS2_PLACEMENT_3D('',#661,#538,#539);
#478=AXIS2_PLACEMENT_3D('',#663,#540,#541);
#479=AXIS2_PLACEMENT_3D('',#669,#545,#546);
#480=AXIS2_PLACEMENT_3D('',#670,#547,#548);
#481=AXIS2_PLACEMENT_3D('',#673,#550,#551);
#482=AXIS2_PLACEMENT_3D('',#675,#553,#554);
#483=AXIS2_PLACEMENT_3D('',#676,#555,#556);
#484=AXIS2_PLACEMENT_3D('',#678,#557,#558);
#485=AXIS2_PLACEMENT_3D('',#679,#559,#560);
#486=AXIS2_PLACEMENT_3D('',#680,#561,#562);
#487=AXIS2_PLACEMENT_3D('',#681,#563,#564);
#488=AXIS2_PLACEMENT_3D('',#690,#569,#570);
#489=AXIS2_PLACEMENT_3D('',#696,#574,#575);
#490=AXIS2_PLACEMENT_3D('',#697,#576,#577);
#491=AXIS2_PLACEMENT_3D('',#704,#581,#582);
#492=AXIS2_PLACEMENT_3D('',#715,#589,#590);
#493=AXIS2_PLACEMENT_3D('',#721,#594,#595);
#494=AXIS2_PLACEMENT_3D('',#722,#596,#597);
#495=AXIS2_PLACEMENT_3D('',#724,#598,#599);
#496=AXIS2_PLACEMENT_3D('',#730,#603,#604);
#497=AXIS2_PLACEMENT_3D('',#731,#605,#606);
#498=AXIS2_PLACEMENT_3D('',#734,#608,#609);
#499=AXIS2_PLACEMENT_3D('',#736,#611,#612);
#500=AXIS2_PLACEMENT_3D('',#737,#613,#614);
#501=AXIS2_PLACEMENT_3D('',#739,#615,#616);
#502=AXIS2_PLACEMENT_3D('',#740,#617,#618);
#503=DIRECTION('',(0.,0.,1.));
#504=DIRECTION('',(1.,0.,0.));
#505=DIRECTION('',(1.75162308040602E-46,-9.58084579867447E-17,1.));
#506=DIRECTION('',(1.44328993200774E-15,1.,9.58084579867447E-17));
#507=DIRECTION('',(-2.1924136161723E-45,-1.,-9.58084579867447E-17));
#508=DIRECTION('',(-1.,-1.97215226305255E-31,3.50324616081205E-46));
#509=DIRECTION('',(-2.1924136161723E-45,-1.,-9.58084579867447E-17));
#510=DIRECTION('',(-1.,-1.97215226305255E-31,3.50324616081205E-46));
#511=DIRECTION('',(1.97215226305251E-31,-1.,-9.58084579867447E-17));
#512=DIRECTION('',(-1.36201765666628E-30,-9.58084579867447E-17,1.));
#513=DIRECTION('',(3.50324616081205E-46,9.58084579867447E-17,-1.));
#514=DIRECTION('',(3.50324616081205E-46,9.58084579867447E-17,-1.));
#515=DIRECTION('',(-1.,-1.97215226305255E-31,3.50324616081205E-46));
#516=DIRECTION('',(1.75162308040602E-46,-9.58084579867447E-17,1.));
#517=DIRECTION('',(1.44328993200774E-15,1.,9.58084579867447E-17));
#518=DIRECTION('',(-1.75162308040602E-46,9.58084579867447E-17,-1.));
#519=DIRECTION('',(1.44328993200774E-15,1.,9.58084579867447E-17));
#520=DIRECTION('',(-2.1924136161723E-45,-1.,-9.58084579867447E-17));
#521=DIRECTION('',(-2.1924136161723E-45,-1.,-9.58084579867447E-17));
#522=DIRECTION('',(-1.,-1.97215226305255E-31,3.50324616081205E-46));
#523=DIRECTION('',(1.97215226305251E-31,-1.,-9.58084579867447E-17));
#524=DIRECTION('',(-1.36201765666628E-30,-9.58084579867447E-17,1.));
#525=DIRECTION('',(3.50324616081205E-46,9.58084579867447E-17,-1.));
#526=DIRECTION('',(1.,2.0751691391751E-45,0.));
#527=DIRECTION('',(3.50324616081205E-46,9.58084579867447E-17,-1.));
#528=DIRECTION('',(3.50324616081205E-46,9.58084579867447E-17,-1.));
#529=DIRECTION('',(3.50324616081205E-46,9.58084579867447E-17,-1.));
#530=DIRECTION('',(1.,2.0751691391751E-45,0.));
#531=DIRECTION('',(1.,2.0751691391751E-45,0.));
#532=DIRECTION('',(0.,0.,-1.));
#533=DIRECTION('',(-5.12217151145801E-76,1.,-1.69576222588971E-15));
#534=DIRECTION('',(-5.12217151145801E-76,1.,-1.69576222588971E-15));
#535=DIRECTION('',(0.,-1.69576222588971E-15,-1.));
#536=DIRECTION('',(1.,2.0751691391751E-45,0.));
#537=DIRECTION('',(0.,0.,-1.));
#538=DIRECTION('',(-1.,-2.0751691391751E-45,0.));
#539=DIRECTION('',(0.,-1.,1.69576222588971E-15));
#540=DIRECTION('',(0.,1.,-1.69576222588971E-15));
#541=DIRECTION('',(1.,0.,-1.22373827385283E-30));
#542=DIRECTION('',(1.,2.0751691391751E-45,0.));
#543=DIRECTION('',(0.,-1.69576222588971E-15,-1.));
#544=DIRECTION('',(1.,2.0751691391751E-45,0.));
#545=DIRECTION('',(0.,1.69576222588971E-15,1.));
#546=DIRECTION('',(1.,-1.44328993200774E-15,2.44747654770566E-30));
#547=DIRECTION('',(0.,-1.69576222588971E-15,-1.));
#548=DIRECTION('',(1.,-1.44328993200774E-15,2.44747654770566E-30));
#549=DIRECTION('',(-5.12217151145801E-76,1.,-1.69576222588971E-15));
#550=DIRECTION('',(0.,1.69576222588971E-15,1.));
#551=DIRECTION('',(1.,-1.44328993200774E-15,2.44747654770566E-30));
#552=DIRECTION('',(-5.12217151145801E-76,1.,-1.69576222588971E-15));
#553=DIRECTION('',(1.,2.0751691391751E-45,0.));
#554=DIRECTION('',(2.161377712088E-75,-1.,1.69576222588971E-15));
#555=DIRECTION('',(-1.,-2.0751691391751E-45,0.));
#556=DIRECTION('',(0.,-1.,1.69576222588971E-15));
#557=DIRECTION('',(-3.50324616081205E-46,-9.58084579867447E-17,1.));
#558=DIRECTION('',(1.44328993200774E-15,1.,9.58084579867447E-17));
#559=DIRECTION('',(1.,1.97215226305255E-31,-1.75162308040602E-46));
#560=DIRECTION('',(1.97215226305253E-31,-1.,1.69576222588971E-15));
#561=DIRECTION('',(0.,0.,1.));
#562=DIRECTION('',(1.,0.,0.));
#563=DIRECTION('',(1.36201765666628E-30,1.79157068387646E-15,1.));
#564=DIRECTION('',(0.,-1.,1.79157068387646E-15));
#565=DIRECTION('',(1.44328993200774E-15,1.,-1.79157068387646E-15));
#566=DIRECTION('',(-1.,1.44328993200774E-15,-1.22373827385283E-30));
#567=DIRECTION('',(1.44328993200774E-15,1.,-1.79157068387646E-15));
#568=DIRECTION('',(-1.,1.44328993200774E-15,-1.22373827385283E-30));
#569=DIRECTION('',(1.44328993200774E-15,1.,-1.79157068387646E-15));
#570=DIRECTION('',(0.,1.79157068387646E-15,1.));
#571=DIRECTION('',(-1.36201765666628E-30,-1.79157068387646E-15,-1.));
#572=DIRECTION('',(-1.,1.44328993200774E-15,-1.22373827385283E-30));
#573=DIRECTION('',(-1.36201765666628E-30,-1.79157068387646E-15,-1.));
#574=DIRECTION('',(1.36201765666628E-30,1.79157068387646E-15,1.));
#575=DIRECTION('',(0.,-1.,1.79157068387646E-15));
#576=DIRECTION('',(1.36201765666628E-30,1.79157068387646E-15,1.));
#577=DIRECTION('',(0.,-1.,1.79157068387646E-15));
#578=DIRECTION('',(1.44328993200774E-15,1.,-1.79157068387646E-15));
#579=DIRECTION('',(-1.,1.44328993200774E-15,-1.22373827385283E-30));
#580=DIRECTION('',(1.44328993200774E-15,1.,-1.79157068387646E-15));
#581=DIRECTION('',(1.44328993200774E-15,1.,-1.79157068387646E-15));
#582=DIRECTION('',(0.,1.79157068387646E-15,1.));
#583=DIRECTION('',(-1.36201765666628E-30,-1.79157068387646E-15,-1.));
#584=DIRECTION('',(1.,-1.44328993200774E-15,1.22373827385283E-30));
#585=DIRECTION('',(-1.36201765666628E-30,-1.79157068387646E-15,-1.));
#586=DIRECTION('',(-1.36201765666628E-30,-1.79157068387646E-15,-1.));
#587=DIRECTION('',(-1.36201765666628E-30,-1.79157068387646E-15,-1.));
#588=DIRECTION('',(1.,-1.44328993200774E-15,1.22373827385283E-30));
#589=DIRECTION('',(1.,-1.44328993200774E-15,1.22373827385283E-30));
#590=DIRECTION('',(-1.22373827385283E-30,-1.69576222588971E-15,-1.));
#591=DIRECTION('',(-1.44328993200774E-15,-1.,-4.18567566358068E-46));
#592=DIRECTION('',(1.22373827385283E-30,-1.76620913006431E-45,-1.));
#593=DIRECTION('',(-1.44328993200774E-15,-1.,-4.18567566358068E-46));
#594=DIRECTION('',(1.,-1.44328993200774E-15,1.22373827385283E-30));
#595=DIRECTION('',(-1.22373827385283E-30,-1.69576222588971E-15,-1.));
#596=DIRECTION('',(1.,-1.44328993200774E-15,1.22373827385283E-30));
#597=DIRECTION('',(1.44328993200774E-15,1.,0.));
#598=DIRECTION('',(-1.44328993200774E-15,-1.,0.));
#599=DIRECTION('',(1.,-1.44328993200774E-15,0.));
#600=DIRECTION('',(1.,-1.44328993200774E-15,1.22373827385283E-30));
#601=DIRECTION('',(1.22373827385283E-30,-1.76620913006431E-45,-1.));
#602=DIRECTION('',(1.,-1.44328993200774E-15,1.22373827385283E-30));
#603=DIRECTION('',(-1.22373827385283E-30,1.34764156370624E-45,1.));
#604=DIRECTION('',(1.,0.,1.22373827385283E-30));
#605=DIRECTION('',(-1.22373827385283E-30,1.34764156370624E-45,1.));
#606=DIRECTION('',(1.,0.,1.22373827385283E-30));
#607=DIRECTION('',(-1.44328993200774E-15,-1.,-4.18567566358068E-46));
#608=DIRECTION('',(-1.22373827385283E-30,1.34764156370624E-45,1.));
#609=DIRECTION('',(1.,0.,1.22373827385283E-30));
#610=DIRECTION('',(-1.44328993200774E-15,-1.,-4.18567566358068E-46));
#611=DIRECTION('',(1.,-1.44328993200774E-15,1.22373827385283E-30));
#612=DIRECTION('',(1.44328993200774E-15,1.,1.76620913006431E-45));
#613=DIRECTION('',(1.,-1.44328993200774E-15,1.22373827385283E-30));
#614=DIRECTION('',(1.44328993200774E-15,1.,0.));
#615=DIRECTION('',(1.36201765666628E-30,1.79157068387646E-15,1.));
#616=DIRECTION('',(0.,-1.,1.79157068387646E-15));
#617=DIRECTION('',(1.,-1.44328993200774E-15,1.22373827385283E-30));
#618=DIRECTION('',(1.44328993200774E-15,1.,0.));
#619=CARTESIAN_POINT('',(0.,0.,0.));
#620=CARTESIAN_POINT('',(-0.0999488507255286,-0.00325179757724126,-0.0187709697299868));
#621=CARTESIAN_POINT('',(-0.114948850725529,-0.00325179757724126,-0.0187709697299868));
#622=CARTESIAN_POINT('',(-0.114948850725529,0.00937907304614782,-0.0187709697299868));
#623=CARTESIAN_POINT('',(-0.114948850725529,-0.0158826682006303,-0.0187709697299868));
#624=CARTESIAN_POINT('',(-0.0999488507255286,0.00937907304614782,-0.0187709697299868));
#625=CARTESIAN_POINT('',(-0.0999488507255286,0.00937907304614782,-0.0187709697299868));
#626=CARTESIAN_POINT('',(-0.0999488507255286,-0.00325179757724126,-0.0187709697299868));
#627=CARTESIAN_POINT('',(-0.0999488507255286,-0.0158826682006303,-0.0187709697299868));
#628=CARTESIAN_POINT('',(-0.0999488507255286,-0.0158826682006303,-0.0187709697299868));
#629=CARTESIAN_POINT('',(-0.0999488507255286,-0.0158826682006303,0.00622903027001327));
#630=CARTESIAN_POINT('',(-0.114948850725529,-0.0158826682006303,0.00622903027001327));
#631=CARTESIAN_POINT('',(-0.114948850725529,-0.0158826682006303,0.00622903027001327));
#632=CARTESIAN_POINT('',(-0.0999488507255286,-0.0158826682006303,0.00622903027001327));
#633=CARTESIAN_POINT('',(-0.0999488507255286,-0.0158826682006303,0.00622903027001327));
#634=CARTESIAN_POINT('',(-0.0999488507255286,-0.0158826682006303,0.00622903027001327));
#635=CARTESIAN_POINT('',(-0.0999488507255286,-0.00325179757724126,0.00622903027001327));
#636=CARTESIAN_POINT('',(-0.10317000746727,0.00411560090654478,0.00622903027001327));
#637=CARTESIAN_POINT('',(-0.10317000746727,0.00646768036022057,0.00622903027001327));
#638=CARTESIAN_POINT('',(-0.114948850725529,-0.00325179757724126,0.00622903027001327));
#639=CARTESIAN_POINT('',(-0.114948850725529,0.00937907304614782,0.00622903027001327));
#640=CARTESIAN_POINT('',(-0.0999488507255286,-0.00325179757724126,0.00622903027001327));
#641=CARTESIAN_POINT('',(-0.0999488507255286,0.00937907304614782,0.00622903027001327));
#642=CARTESIAN_POINT('',(-0.0999488507255286,0.00937907304614782,0.00622903027001327));
#643=CARTESIAN_POINT('',(-0.0999488507255286,0.00937907304614782,0.00622903027001327));
#644=CARTESIAN_POINT('',(-0.112948850725529,0.00937907304614782,0.00622903027001327));
#645=CARTESIAN_POINT('',(-0.112948850725529,0.00937907304614782,0.00184961350169054));
#646=CARTESIAN_POINT('',(-0.112948850725529,0.00937907304614788,-0.0148458201438186));
#647=CARTESIAN_POINT('',(-0.112948850725529,0.00937907304614788,-0.0148458201438186));
#648=CARTESIAN_POINT('',(-0.0999488507255286,0.00937907304614788,-0.0148458201438186));
#649=CARTESIAN_POINT('',(-0.0999488507255286,0.00937907304614782,0.00622903027001327));
#650=CARTESIAN_POINT('',(-0.114948850725529,0.00937907304614782,0.00622903027001327));
#651=CARTESIAN_POINT('',(-0.0999488507255286,0.00937907304614782,0.00622903027001327));
#652=CARTESIAN_POINT('',(-0.0999488507255286,0.00937907304614782,0.00184961350169054));
#653=CARTESIAN_POINT('',(-0.112948850725529,0.00937907304614782,0.00184961350169054));
#654=CARTESIAN_POINT('',(-0.0999488507255286,-0.00325179757724126,0.00622903027001327));
#655=CARTESIAN_POINT('',(-0.0999488507255286,0.00367998036020384,0.00184961350169055));
#656=CARTESIAN_POINT('',(-0.0999488507255286,-0.00892187205678835,0.00184961350169057));
#657=CARTESIAN_POINT('',(-0.0999488507255286,0.00367998036020384,-0.0148458201438186));
#658=CARTESIAN_POINT('',(-0.0999488507255286,-0.00892187205678835,-0.0148458201438186));
#659=CARTESIAN_POINT('',(-0.0999488507255286,-0.00892187205678835,-0.00649810332106402));
#660=CARTESIAN_POINT('',(-0.114948850725529,-0.00325179757724126,0.00622903027001327));
#661=CARTESIAN_POINT('',(-0.114948850725529,-0.000156293786829853,-0.00636815838515736));
#662=CARTESIAN_POINT('',(-0.114948850725529,-0.00215629378682985,-0.00636815838515736));
#663=CARTESIAN_POINT('',(-0.112948850725529,-0.00892187205678835,-0.00649810332106402));
#664=CARTESIAN_POINT('',(-0.112948850725529,-0.00892187205678835,-0.0148458201438186));
#665=CARTESIAN_POINT('',(-0.112948850725529,-0.00892187205678835,-0.0148458201438186));
#666=CARTESIAN_POINT('',(-0.112948850725529,-0.00892187205678835,-0.00649810332106402));
#667=CARTESIAN_POINT('',(-0.112948850725529,-0.00892187205678835,0.00184961350169057));
#668=CARTESIAN_POINT('',(-0.112948850725529,-0.00892187205678835,0.00184961350169057));
#669=CARTESIAN_POINT('',(-0.112948850725529,0.00367998036020384,0.00184961350169055));
#670=CARTESIAN_POINT('',(-0.10317000746727,0.00411560090654478,0.00184961350169055));
#671=CARTESIAN_POINT('',(-0.100817928013594,0.00411560090654478,0.00184961350169055));
#672=CARTESIAN_POINT('',(-0.112948850725529,0.00367998036020384,0.00184961350169055));
#673=CARTESIAN_POINT('',(-0.112948850725529,0.00367998036020384,-0.0148458201438186));
#674=CARTESIAN_POINT('',(-0.112948850725529,0.00367998036020384,-0.0148458201438186));
#675=CARTESIAN_POINT('',(-0.112948850725529,0.000199582288282873,-0.00627096972998674));
#676=CARTESIAN_POINT('',(-0.112948850725529,-0.000156293786829853,-0.00636815838515736));
#677=CARTESIAN_POINT('',(-0.112948850725529,-0.00215629378682985,-0.00636815838515736));
#678=CARTESIAN_POINT('',(-0.10317000746727,0.00411560090654478,-0.000770969729986734));
#679=CARTESIAN_POINT('',(-0.137948850725529,-0.000156293786829853,-0.00636815838515736));
#680=CARTESIAN_POINT('',(0.,0.,0.));
#681=CARTESIAN_POINT('',(-0.0999488507255284,0.270251657707724,-0.0187709697299869));
#682=CARTESIAN_POINT('',(-0.114948850725528,0.270251657707724,-0.0187709697299869));
#683=CARTESIAN_POINT('',(-0.114948850725528,0.257620787084335,-0.0187709697299869));
#684=CARTESIAN_POINT('',(-0.114948850725528,0.282882528331113,-0.018770969729987));
#685=CARTESIAN_POINT('',(-0.0999488507255284,0.282882528331113,-0.018770969729987));
#686=CARTESIAN_POINT('',(-0.0999488507255284,0.282882528331113,-0.018770969729987));
#687=CARTESIAN_POINT('',(-0.0999488507255284,0.270251657707724,-0.0187709697299869));
#688=CARTESIAN_POINT('',(-0.0999488507255284,0.257620787084335,-0.0187709697299869));
#689=CARTESIAN_POINT('',(-0.0999488507255284,0.257620787084335,-0.0187709697299869));
#690=CARTESIAN_POINT('',(-0.0999488507255284,0.282882528331113,0.00622903027001301));
#691=CARTESIAN_POINT('',(-0.114948850725528,0.282882528331113,0.00622903027001301));
#692=CARTESIAN_POINT('',(-0.114948850725528,0.282882528331113,0.00622903027001301));
#693=CARTESIAN_POINT('',(-0.0999488507255284,0.282882528331113,0.00622903027001301));
#694=CARTESIAN_POINT('',(-0.0999488507255284,0.282882528331113,0.00622903027001301));
#695=CARTESIAN_POINT('',(-0.0999488507255284,0.282882528331113,0.00622903027001301));
#696=CARTESIAN_POINT('',(-0.0999488507255284,0.270251657707724,0.00622903027001303));
#697=CARTESIAN_POINT('',(-0.10317000746727,0.262884259223938,0.00622903027001305));
#698=CARTESIAN_POINT('',(-0.10317000746727,0.260532179770262,0.00622903027001305));
#699=CARTESIAN_POINT('',(-0.114948850725528,0.270251657707724,0.00622903027001303));
#700=CARTESIAN_POINT('',(-0.114948850725528,0.257620787084335,0.00622903027001306));
#701=CARTESIAN_POINT('',(-0.0999488507255284,0.257620787084335,0.00622903027001306));
#702=CARTESIAN_POINT('',(-0.0999488507255284,0.257620787084335,0.00622903027001306));
#703=CARTESIAN_POINT('',(-0.0999488507255284,0.270251657707724,0.00622903027001303));
#704=CARTESIAN_POINT('',(-0.0999488507255284,0.257620787084335,0.00622903027001306));
#705=CARTESIAN_POINT('',(-0.112948850725528,0.257620787084335,0.00622903027001306));
#706=CARTESIAN_POINT('',(-0.112948850725528,0.257620787084335,0.00184961350169033));
#707=CARTESIAN_POINT('',(-0.112948850725528,0.257620787084335,-0.0148458201438189));
#708=CARTESIAN_POINT('',(-0.112948850725528,0.257620787084335,0.00184961350169033));
#709=CARTESIAN_POINT('',(-0.0999488507255284,0.257620787084335,0.00184961350169033));
#710=CARTESIAN_POINT('',(-0.0999488507255284,0.257620787084335,0.00622903027001306));
#711=CARTESIAN_POINT('',(-0.114948850725528,0.257620787084335,0.00622903027001306));
#712=CARTESIAN_POINT('',(-0.0999488507255284,0.257620787084335,0.00622903027001306));
#713=CARTESIAN_POINT('',(-0.0999488507255284,0.257620787084335,-0.0148458201438189));
#714=CARTESIAN_POINT('',(-0.112948850725528,0.257620787084335,-0.0148458201438189));
#715=CARTESIAN_POINT('',(-0.0999488507255284,0.270251657707724,0.00622903027001303));
#716=CARTESIAN_POINT('',(-0.0999488507255284,0.263319879770279,0.00184961350169033));
#717=CARTESIAN_POINT('',(-0.0999488507255284,0.275921732187271,0.00184961350169033));
#718=CARTESIAN_POINT('',(-0.0999488507255284,0.275921732187271,-0.00649810332106426));
#719=CARTESIAN_POINT('',(-0.0999488507255284,0.275921732187271,-0.0148458201438188));
#720=CARTESIAN_POINT('',(-0.0999488507255284,0.263319879770279,-0.0148458201438189));
#721=CARTESIAN_POINT('',(-0.114948850725528,0.270251657707724,0.00622903027001303));
#722=CARTESIAN_POINT('',(-0.114948850725528,0.267156153917313,-0.00636815838515759));
#723=CARTESIAN_POINT('',(-0.114948850725528,0.269156153917313,-0.00636815838515759));
#724=CARTESIAN_POINT('',(-0.112948850725528,0.275921732187271,-0.00649810332106426));
#725=CARTESIAN_POINT('',(-0.112948850725528,0.275921732187271,0.00184961350169033));
#726=CARTESIAN_POINT('',(-0.112948850725528,0.275921732187271,0.00184961350169033));
#727=CARTESIAN_POINT('',(-0.112948850725528,0.275921732187271,-0.00649810332106426));
#728=CARTESIAN_POINT('',(-0.112948850725528,0.275921732187271,-0.0148458201438189));
#729=CARTESIAN_POINT('',(-0.112948850725528,0.275921732187271,-0.0148458201438189));
#730=CARTESIAN_POINT('',(-0.112948850725528,0.263319879770279,0.00184961350169033));
#731=CARTESIAN_POINT('',(-0.10317000746727,0.262884259223938,0.00184961350169033));
#732=CARTESIAN_POINT('',(-0.100817928013594,0.262884259223938,0.00184961350169033));
#733=CARTESIAN_POINT('',(-0.112948850725528,0.263319879770279,0.00184961350169033));
#734=CARTESIAN_POINT('',(-0.112948850725528,0.263319879770279,-0.0148458201438189));
#735=CARTESIAN_POINT('',(-0.112948850725528,0.263319879770279,-0.0148458201438189));
#736=CARTESIAN_POINT('',(-0.112948850725528,0.2668002778422,-0.00627096972998697));
#737=CARTESIAN_POINT('',(-0.112948850725528,0.267156153917313,-0.00636815838515759));
#738=CARTESIAN_POINT('',(-0.112948850725528,0.269156153917313,-0.00636815838515759));
#739=CARTESIAN_POINT('',(-0.10317000746727,0.262884259223938,-0.000770969729986954));
#740=CARTESIAN_POINT('',(-0.137948850725528,0.267156153917313,-0.00636815838515759));
#741=MECHANICAL_DESIGN_GEOMETRIC_PRESENTATION_REPRESENTATION('',(#448),
#743);
#742=MECHANICAL_DESIGN_GEOMETRIC_PRESENTATION_REPRESENTATION('',(#449),
#744);
#743=(
GEOMETRIC_REPRESENTATION_CONTEXT(3)
GLOBAL_UNCERTAINTY_ASSIGNED_CONTEXT((#745))
GLOBAL_UNIT_ASSIGNED_CONTEXT((#751,#749,#747))
REPRESENTATION_CONTEXT('Part 2','TOP_LEVEL_ASSEMBLY_PART')
);
#744=(
GEOMETRIC_REPRESENTATION_CONTEXT(3)
GLOBAL_UNCERTAINTY_ASSIGNED_CONTEXT((#746))
GLOBAL_UNIT_ASSIGNED_CONTEXT((#752,#750,#748))
REPRESENTATION_CONTEXT('Part 1','TOP_LEVEL_ASSEMBLY_PART')
);
#745=UNCERTAINTY_MEASURE_WITH_UNIT(LENGTH_MEASURE(1.E-8),#751,
'DISTANCE_ACCURACY_VALUE','Maximum Tolerance applied to model');
#746=UNCERTAINTY_MEASURE_WITH_UNIT(LENGTH_MEASURE(1.E-8),#752,
'DISTANCE_ACCURACY_VALUE','Maximum Tolerance applied to model');
#747=(
NAMED_UNIT(*)
SI_UNIT($,.STERADIAN.)
SOLID_ANGLE_UNIT()
);
#748=(
NAMED_UNIT(*)
SI_UNIT($,.STERADIAN.)
SOLID_ANGLE_UNIT()
);
#749=(
NAMED_UNIT(*)
PLANE_ANGLE_UNIT()
SI_UNIT($,.RADIAN.)
);
#750=(
NAMED_UNIT(*)
PLANE_ANGLE_UNIT()
SI_UNIT($,.RADIAN.)
);
#751=(
LENGTH_UNIT()
NAMED_UNIT(*)
SI_UNIT($,.METRE.)
);
#752=(
LENGTH_UNIT()
NAMED_UNIT(*)
SI_UNIT($,.METRE.)
);
#753=PRODUCT_DEFINITION_SHAPE('','',#755);
#754=PRODUCT_DEFINITION_SHAPE('','',#756);
#755=PRODUCT_DEFINITION('','',#759,#757);
#756=PRODUCT_DEFINITION('','',#760,#758);
#757=PRODUCT_DEFINITION_CONTEXT('',#771,'design');
#758=PRODUCT_DEFINITION_CONTEXT('',#772,'design');
#759=PRODUCT_DEFINITION_FORMATION_WITH_SPECIFIED_SOURCE('','',#763,
 .NOT_KNOWN.);
#760=PRODUCT_DEFINITION_FORMATION_WITH_SPECIFIED_SOURCE('','',#764,
 .NOT_KNOWN.);
#761=PRODUCT_RELATED_PRODUCT_CATEGORY('','',(#763));
#762=PRODUCT_RELATED_PRODUCT_CATEGORY('','',(#764));
#763=PRODUCT('Part 2','Part 2','Part 2',(#767));
#764=PRODUCT('Part 1','Part 1','Part 1',(#768));
#765=PRODUCT_CATEGORY('','');
#766=PRODUCT_CATEGORY('','');
#767=PRODUCT_CONTEXT('',#771,'mechanical');
#768=PRODUCT_CONTEXT('',#772,'mechanical');
#769=APPLICATION_PROTOCOL_DEFINITION('international standard',
'ap242_managed_model_based_3d_engineering',2020,#771);
#770=APPLICATION_PROTOCOL_DEFINITION('international standard',
'ap242_managed_model_based_3d_engineering',2020,#772);
#771=APPLICATION_CONTEXT('managed model based 3d engineering');
#772=APPLICATION_CONTEXT('managed model based 3d engineering');
ENDSEC;
END-ISO-10303-21;
