ISO-10303-21;
HEADER;
/* Generated by software containing ST-Developer
 * from STEP Tools, Inc. (www.steptools.com) 
 */
/* OPTION: using custom renumber hook */

FILE_DESCRIPTION(
/* description */ ('STEP AP242 Edition 2',
'CAx-IF Rec.Pracs.---Representation and Presentation of Product Manufa
cturing Information (PMI)---4.0---2014-10-13',
'CAx-IF Rec.Pracs.---3D Tessellated Geometry---0.4---2014-09-14','2;1',
'CAx-IF Rec.Pracs.---User Defined Attributes---1.5---2016-08-15'),
/* implementation_level */ '2;1');

FILE_NAME(
/* name */ 'Holders',
/* time_stamp */ '2026-07-04T19:00:21Z',
/* author */ (''),
/* organization */ (''),
/* preprocessor_version */ 'ST-DEVELOPER v20',
/* originating_system */ 'ONSHAPE BY PTC INC, 1.217',
/* authorisation */ '  ');

FILE_SCHEMA (('AP242_MANAGED_MODEL_BASED_3D_ENGINEERING_MIM_LF { 1 0 10303 442 3 1 4 }'));
ENDSEC;

DATA;
#10=SHAPE_REPRESENTATION_RELATIONSHIP('','',#673,#12);
#11=SHAPE_REPRESENTATION_RELATIONSHIP('','',#674,#13);
#12=ADVANCED_BREP_SHAPE_REPRESENTATION('',(#669),#1077);
#13=ADVANCED_BREP_SHAPE_REPRESENTATION('',(#670),#1078);
#14=CYLINDRICAL_SURFACE('',#697,0.002);
#15=CYLINDRICAL_SURFACE('',#698,0.002);
#16=CYLINDRICAL_SURFACE('',#699,0.002);
#17=CYLINDRICAL_SURFACE('',#700,0.002);
#18=CYLINDRICAL_SURFACE('',#723,0.002);
#19=CYLINDRICAL_SURFACE('',#724,0.002);
#20=CYLINDRICAL_SURFACE('',#725,0.002);
#21=CYLINDRICAL_SURFACE('',#726,0.002);
#22=CIRCLE('',#680,0.002);
#23=CIRCLE('',#681,0.002);
#24=CIRCLE('',#684,0.002);
#25=CIRCLE('',#685,0.002);
#26=CIRCLE('',#687,0.002);
#27=CIRCLE('',#688,0.002);
#28=CIRCLE('',#691,0.002);
#29=CIRCLE('',#692,0.002);
#30=CIRCLE('',#706,0.002);
#31=CIRCLE('',#707,0.002);
#32=CIRCLE('',#710,0.002);
#33=CIRCLE('',#711,0.002);
#34=CIRCLE('',#713,0.002);
#35=CIRCLE('',#714,0.002);
#36=CIRCLE('',#717,0.002);
#37=CIRCLE('',#718,0.002);
#38=ORIENTED_EDGE('',*,*,#202,.F.);
#39=ORIENTED_EDGE('',*,*,#203,.T.);
#40=ORIENTED_EDGE('',*,*,#204,.T.);
#41=ORIENTED_EDGE('',*,*,#205,.F.);
#42=ORIENTED_EDGE('',*,*,#206,.F.);
#43=ORIENTED_EDGE('',*,*,#207,.T.);
#44=ORIENTED_EDGE('',*,*,#208,.F.);
#45=ORIENTED_EDGE('',*,*,#209,.F.);
#46=ORIENTED_EDGE('',*,*,#210,.F.);
#47=ORIENTED_EDGE('',*,*,#211,.T.);
#48=ORIENTED_EDGE('',*,*,#212,.T.);
#49=ORIENTED_EDGE('',*,*,#202,.T.);
#50=ORIENTED_EDGE('',*,*,#213,.T.);
#51=ORIENTED_EDGE('',*,*,#214,.F.);
#52=ORIENTED_EDGE('',*,*,#215,.T.);
#53=ORIENTED_EDGE('',*,*,#207,.F.);
#54=ORIENTED_EDGE('',*,*,#216,.F.);
#55=ORIENTED_EDGE('',*,*,#217,.F.);
#56=ORIENTED_EDGE('',*,*,#218,.F.);
#57=ORIENTED_EDGE('',*,*,#219,.F.);
#58=ORIENTED_EDGE('',*,*,#210,.T.);
#59=ORIENTED_EDGE('',*,*,#220,.T.);
#60=ORIENTED_EDGE('',*,*,#221,.F.);
#61=ORIENTED_EDGE('',*,*,#222,.F.);
#62=ORIENTED_EDGE('',*,*,#221,.T.);
#63=ORIENTED_EDGE('',*,*,#223,.T.);
#64=ORIENTED_EDGE('',*,*,#224,.T.);
#65=ORIENTED_EDGE('',*,*,#209,.T.);
#66=ORIENTED_EDGE('',*,*,#225,.F.);
#67=ORIENTED_EDGE('',*,*,#226,.T.);
#68=ORIENTED_EDGE('',*,*,#227,.F.);
#69=ORIENTED_EDGE('',*,*,#228,.F.);
#70=ORIENTED_EDGE('',*,*,#229,.F.);
#71=ORIENTED_EDGE('',*,*,#230,.F.);
#72=ORIENTED_EDGE('',*,*,#227,.T.);
#73=ORIENTED_EDGE('',*,*,#231,.F.);
#74=ORIENTED_EDGE('',*,*,#213,.F.);
#75=ORIENTED_EDGE('',*,*,#205,.T.);
#76=ORIENTED_EDGE('',*,*,#232,.F.);
#77=ORIENTED_EDGE('',*,*,#233,.T.);
#78=ORIENTED_EDGE('',*,*,#234,.T.);
#79=ORIENTED_EDGE('',*,*,#235,.T.);
#80=ORIENTED_EDGE('',*,*,#225,.T.);
#81=ORIENTED_EDGE('',*,*,#208,.T.);
#82=ORIENTED_EDGE('',*,*,#215,.F.);
#83=ORIENTED_EDGE('',*,*,#236,.F.);
#84=ORIENTED_EDGE('',*,*,#236,.T.);
#85=ORIENTED_EDGE('',*,*,#214,.T.);
#86=ORIENTED_EDGE('',*,*,#231,.T.);
#87=ORIENTED_EDGE('',*,*,#226,.F.);
#88=ORIENTED_EDGE('',*,*,#237,.T.);
#89=ORIENTED_EDGE('',*,*,#238,.T.);
#90=ORIENTED_EDGE('',*,*,#216,.T.);
#91=ORIENTED_EDGE('',*,*,#206,.T.);
#92=ORIENTED_EDGE('',*,*,#224,.F.);
#93=ORIENTED_EDGE('',*,*,#239,.F.);
#94=ORIENTED_EDGE('',*,*,#239,.T.);
#95=ORIENTED_EDGE('',*,*,#223,.F.);
#96=ORIENTED_EDGE('',*,*,#220,.F.);
#97=ORIENTED_EDGE('',*,*,#217,.T.);
#98=ORIENTED_EDGE('',*,*,#204,.F.);
#99=ORIENTED_EDGE('',*,*,#240,.F.);
#100=ORIENTED_EDGE('',*,*,#241,.T.);
#101=ORIENTED_EDGE('',*,*,#232,.T.);
#102=ORIENTED_EDGE('',*,*,#203,.F.);
#103=ORIENTED_EDGE('',*,*,#212,.F.);
#104=ORIENTED_EDGE('',*,*,#242,.T.);
#105=ORIENTED_EDGE('',*,*,#240,.T.);
#106=ORIENTED_EDGE('',*,*,#228,.T.);
#107=ORIENTED_EDGE('',*,*,#233,.F.);
#108=ORIENTED_EDGE('',*,*,#241,.F.);
#109=ORIENTED_EDGE('',*,*,#242,.F.);
#110=ORIENTED_EDGE('',*,*,#211,.F.);
#111=ORIENTED_EDGE('',*,*,#222,.T.);
#112=ORIENTED_EDGE('',*,*,#230,.T.);
#113=ORIENTED_EDGE('',*,*,#235,.F.);
#114=ORIENTED_EDGE('',*,*,#229,.T.);
#115=ORIENTED_EDGE('',*,*,#234,.F.);
#116=ORIENTED_EDGE('',*,*,#219,.T.);
#117=ORIENTED_EDGE('',*,*,#238,.F.);
#118=ORIENTED_EDGE('',*,*,#218,.T.);
#119=ORIENTED_EDGE('',*,*,#237,.F.);
#120=ORIENTED_EDGE('',*,*,#243,.T.);
#121=ORIENTED_EDGE('',*,*,#244,.T.);
#122=ORIENTED_EDGE('',*,*,#245,.F.);
#123=ORIENTED_EDGE('',*,*,#246,.F.);
#124=ORIENTED_EDGE('',*,*,#247,.T.);
#125=ORIENTED_EDGE('',*,*,#248,.T.);
#126=ORIENTED_EDGE('',*,*,#249,.T.);
#127=ORIENTED_EDGE('',*,*,#250,.F.);
#128=ORIENTED_EDGE('',*,*,#251,.T.);
#129=ORIENTED_EDGE('',*,*,#252,.T.);
#130=ORIENTED_EDGE('',*,*,#253,.T.);
#131=ORIENTED_EDGE('',*,*,#250,.T.);
#132=ORIENTED_EDGE('',*,*,#254,.F.);
#133=ORIENTED_EDGE('',*,*,#255,.T.);
#134=ORIENTED_EDGE('',*,*,#256,.F.);
#135=ORIENTED_EDGE('',*,*,#243,.F.);
#136=ORIENTED_EDGE('',*,*,#257,.F.);
#137=ORIENTED_EDGE('',*,*,#258,.F.);
#138=ORIENTED_EDGE('',*,*,#259,.T.);
#139=ORIENTED_EDGE('',*,*,#260,.T.);
#140=ORIENTED_EDGE('',*,*,#251,.F.);
#141=ORIENTED_EDGE('',*,*,#261,.T.);
#142=ORIENTED_EDGE('',*,*,#262,.T.);
#143=ORIENTED_EDGE('',*,*,#263,.F.);
#144=ORIENTED_EDGE('',*,*,#262,.F.);
#145=ORIENTED_EDGE('',*,*,#264,.T.);
#146=ORIENTED_EDGE('',*,*,#265,.T.);
#147=ORIENTED_EDGE('',*,*,#266,.F.);
#148=ORIENTED_EDGE('',*,*,#267,.T.);
#149=ORIENTED_EDGE('',*,*,#248,.F.);
#150=ORIENTED_EDGE('',*,*,#268,.F.);
#151=ORIENTED_EDGE('',*,*,#269,.F.);
#152=ORIENTED_EDGE('',*,*,#270,.T.);
#153=ORIENTED_EDGE('',*,*,#271,.T.);
#154=ORIENTED_EDGE('',*,*,#265,.F.);
#155=ORIENTED_EDGE('',*,*,#272,.F.);
#156=ORIENTED_EDGE('',*,*,#273,.T.);
#157=ORIENTED_EDGE('',*,*,#244,.F.);
#158=ORIENTED_EDGE('',*,*,#256,.T.);
#159=ORIENTED_EDGE('',*,*,#274,.T.);
#160=ORIENTED_EDGE('',*,*,#275,.F.);
#161=ORIENTED_EDGE('',*,*,#276,.F.);
#162=ORIENTED_EDGE('',*,*,#267,.F.);
#163=ORIENTED_EDGE('',*,*,#277,.T.);
#164=ORIENTED_EDGE('',*,*,#254,.T.);
#165=ORIENTED_EDGE('',*,*,#249,.F.);
#166=ORIENTED_EDGE('',*,*,#277,.F.);
#167=ORIENTED_EDGE('',*,*,#266,.T.);
#168=ORIENTED_EDGE('',*,*,#274,.F.);
#169=ORIENTED_EDGE('',*,*,#255,.F.);
#170=ORIENTED_EDGE('',*,*,#278,.F.);
#171=ORIENTED_EDGE('',*,*,#279,.F.);
#172=ORIENTED_EDGE('',*,*,#253,.F.);
#173=ORIENTED_EDGE('',*,*,#280,.T.);
#174=ORIENTED_EDGE('',*,*,#268,.T.);
#175=ORIENTED_EDGE('',*,*,#247,.F.);
#176=ORIENTED_EDGE('',*,*,#280,.F.);
#177=ORIENTED_EDGE('',*,*,#252,.F.);
#178=ORIENTED_EDGE('',*,*,#263,.T.);
#179=ORIENTED_EDGE('',*,*,#269,.T.);
#180=ORIENTED_EDGE('',*,*,#245,.T.);
#181=ORIENTED_EDGE('',*,*,#273,.F.);
#182=ORIENTED_EDGE('',*,*,#281,.F.);
#183=ORIENTED_EDGE('',*,*,#282,.T.);
#184=ORIENTED_EDGE('',*,*,#246,.T.);
#185=ORIENTED_EDGE('',*,*,#282,.F.);
#186=ORIENTED_EDGE('',*,*,#283,.F.);
#187=ORIENTED_EDGE('',*,*,#257,.T.);
#188=ORIENTED_EDGE('',*,*,#264,.F.);
#189=ORIENTED_EDGE('',*,*,#261,.F.);
#190=ORIENTED_EDGE('',*,*,#258,.T.);
#191=ORIENTED_EDGE('',*,*,#283,.T.);
#192=ORIENTED_EDGE('',*,*,#281,.T.);
#193=ORIENTED_EDGE('',*,*,#272,.T.);
#194=ORIENTED_EDGE('',*,*,#271,.F.);
#195=ORIENTED_EDGE('',*,*,#276,.T.);
#196=ORIENTED_EDGE('',*,*,#270,.F.);
#197=ORIENTED_EDGE('',*,*,#275,.T.);
#198=ORIENTED_EDGE('',*,*,#260,.F.);
#199=ORIENTED_EDGE('',*,*,#279,.T.);
#200=ORIENTED_EDGE('',*,*,#259,.F.);
#201=ORIENTED_EDGE('',*,*,#278,.T.);
#202=EDGE_CURVE('',#284,#285,#344,.T.);
#203=EDGE_CURVE('',#284,#286,#345,.T.);
#204=EDGE_CURVE('',#286,#287,#346,.T.);
#205=EDGE_CURVE('',#285,#287,#347,.T.);
#206=EDGE_CURVE('',#288,#289,#348,.T.);
#207=EDGE_CURVE('',#288,#290,#349,.T.);
#208=EDGE_CURVE('',#291,#290,#350,.T.);
#209=EDGE_CURVE('',#289,#291,#351,.T.);
#210=EDGE_CURVE('',#292,#293,#352,.T.);
#211=EDGE_CURVE('',#292,#294,#353,.T.);
#212=EDGE_CURVE('',#294,#284,#354,.T.);
#213=EDGE_CURVE('',#285,#295,#355,.T.);
#214=EDGE_CURVE('',#296,#295,#356,.T.);
#215=EDGE_CURVE('',#296,#290,#357,.T.);
#216=EDGE_CURVE('',#297,#288,#358,.T.);
#217=EDGE_CURVE('',#293,#297,#359,.T.);
#218=EDGE_CURVE('',#298,#298,#22,.T.);
#219=EDGE_CURVE('',#299,#299,#23,.T.);
#220=EDGE_CURVE('',#293,#300,#360,.T.);
#221=EDGE_CURVE('',#301,#300,#361,.T.);
#222=EDGE_CURVE('',#292,#301,#362,.T.);
#223=EDGE_CURVE('',#300,#302,#363,.T.);
#224=EDGE_CURVE('',#302,#289,#364,.T.);
#225=EDGE_CURVE('',#303,#291,#365,.T.);
#226=EDGE_CURVE('',#303,#304,#366,.T.);
#227=EDGE_CURVE('',#305,#304,#367,.T.);
#228=EDGE_CURVE('',#301,#305,#368,.T.);
#229=EDGE_CURVE('',#306,#306,#24,.T.);
#230=EDGE_CURVE('',#307,#307,#25,.T.);
#231=EDGE_CURVE('',#295,#304,#369,.T.);
#232=EDGE_CURVE('',#308,#287,#370,.T.);
#233=EDGE_CURVE('',#308,#305,#371,.T.);
#234=EDGE_CURVE('',#309,#309,#26,.T.);
#235=EDGE_CURVE('',#310,#310,#27,.T.);
#236=EDGE_CURVE('',#303,#296,#372,.T.);
#237=EDGE_CURVE('',#311,#311,#28,.T.);
#238=EDGE_CURVE('',#312,#312,#29,.T.);
#239=EDGE_CURVE('',#297,#302,#373,.T.);
#240=EDGE_CURVE('',#313,#286,#374,.T.);
#241=EDGE_CURVE('',#313,#308,#375,.T.);
#242=EDGE_CURVE('',#294,#313,#376,.T.);
#243=EDGE_CURVE('',#314,#315,#377,.T.);
#244=EDGE_CURVE('',#315,#316,#378,.T.);
#245=EDGE_CURVE('',#317,#316,#379,.T.);
#246=EDGE_CURVE('',#314,#317,#380,.T.);
#247=EDGE_CURVE('',#318,#319,#381,.T.);
#248=EDGE_CURVE('',#319,#320,#382,.T.);
#249=EDGE_CURVE('',#320,#321,#383,.T.);
#250=EDGE_CURVE('',#318,#321,#384,.T.);
#251=EDGE_CURVE('',#322,#323,#385,.T.);
#252=EDGE_CURVE('',#323,#324,#386,.T.);
#253=EDGE_CURVE('',#324,#318,#387,.T.);
#254=EDGE_CURVE('',#325,#321,#388,.T.);
#255=EDGE_CURVE('',#325,#326,#389,.T.);
#256=EDGE_CURVE('',#315,#326,#390,.T.);
#257=EDGE_CURVE('',#327,#314,#391,.T.);
#258=EDGE_CURVE('',#322,#327,#392,.T.);
#259=EDGE_CURVE('',#328,#328,#30,.T.);
#260=EDGE_CURVE('',#329,#329,#31,.T.);
#261=EDGE_CURVE('',#322,#330,#393,.T.);
#262=EDGE_CURVE('',#330,#331,#394,.T.);
#263=EDGE_CURVE('',#323,#331,#395,.T.);
#264=EDGE_CURVE('',#330,#332,#396,.T.);
#265=EDGE_CURVE('',#332,#333,#397,.T.);
#266=EDGE_CURVE('',#334,#333,#398,.T.);
#267=EDGE_CURVE('',#334,#320,#399,.T.);
#268=EDGE_CURVE('',#335,#319,#400,.T.);
#269=EDGE_CURVE('',#331,#335,#401,.T.);
#270=EDGE_CURVE('',#336,#336,#32,.T.);
#271=EDGE_CURVE('',#337,#337,#33,.T.);
#272=EDGE_CURVE('',#338,#332,#402,.T.);
#273=EDGE_CURVE('',#338,#316,#403,.T.);
#274=EDGE_CURVE('',#326,#333,#404,.T.);
#275=EDGE_CURVE('',#339,#339,#34,.T.);
#276=EDGE_CURVE('',#340,#340,#35,.T.);
#277=EDGE_CURVE('',#334,#325,#405,.T.);
#278=EDGE_CURVE('',#341,#341,#36,.T.);
#279=EDGE_CURVE('',#342,#342,#37,.T.);
#280=EDGE_CURVE('',#324,#335,#406,.T.);
#281=EDGE_CURVE('',#343,#338,#407,.T.);
#282=EDGE_CURVE('',#343,#317,#408,.T.);
#283=EDGE_CURVE('',#327,#343,#409,.T.);
#284=VERTEX_POINT('',#900);
#285=VERTEX_POINT('',#901);
#286=VERTEX_POINT('',#903);
#287=VERTEX_POINT('',#905);
#288=VERTEX_POINT('',#909);
#289=VERTEX_POINT('',#910);
#290=VERTEX_POINT('',#912);
#291=VERTEX_POINT('',#914);
#292=VERTEX_POINT('',#918);
#293=VERTEX_POINT('',#919);
#294=VERTEX_POINT('',#921);
#295=VERTEX_POINT('',#924);
#296=VERTEX_POINT('',#926);
#297=VERTEX_POINT('',#929);
#298=VERTEX_POINT('',#933);
#299=VERTEX_POINT('',#935);
#300=VERTEX_POINT('',#937);
#301=VERTEX_POINT('',#939);
#302=VERTEX_POINT('',#943);
#303=VERTEX_POINT('',#946);
#304=VERTEX_POINT('',#948);
#305=VERTEX_POINT('',#950);
#306=VERTEX_POINT('',#954);
#307=VERTEX_POINT('',#956);
#308=VERTEX_POINT('',#959);
#309=VERTEX_POINT('',#963);
#310=VERTEX_POINT('',#965);
#311=VERTEX_POINT('',#970);
#312=VERTEX_POINT('',#972);
#313=VERTEX_POINT('',#977);
#314=VERTEX_POINT('',#989);
#315=VERTEX_POINT('',#990);
#316=VERTEX_POINT('',#992);
#317=VERTEX_POINT('',#994);
#318=VERTEX_POINT('',#998);
#319=VERTEX_POINT('',#999);
#320=VERTEX_POINT('',#1001);
#321=VERTEX_POINT('',#1003);
#322=VERTEX_POINT('',#1007);
#323=VERTEX_POINT('',#1008);
#324=VERTEX_POINT('',#1010);
#325=VERTEX_POINT('',#1013);
#326=VERTEX_POINT('',#1015);
#327=VERTEX_POINT('',#1018);
#328=VERTEX_POINT('',#1022);
#329=VERTEX_POINT('',#1024);
#330=VERTEX_POINT('',#1026);
#331=VERTEX_POINT('',#1028);
#332=VERTEX_POINT('',#1032);
#333=VERTEX_POINT('',#1034);
#334=VERTEX_POINT('',#1036);
#335=VERTEX_POINT('',#1039);
#336=VERTEX_POINT('',#1043);
#337=VERTEX_POINT('',#1045);
#338=VERTEX_POINT('',#1047);
#339=VERTEX_POINT('',#1052);
#340=VERTEX_POINT('',#1054);
#341=VERTEX_POINT('',#1059);
#342=VERTEX_POINT('',#1061);
#343=VERTEX_POINT('',#1066);
#344=LINE('',#899,#410);
#345=LINE('',#902,#411);
#346=LINE('',#904,#412);
#347=LINE('',#906,#413);
#348=LINE('',#908,#414);
#349=LINE('',#911,#415);
#350=LINE('',#913,#416);
#351=LINE('',#915,#417);
#352=LINE('',#917,#418);
#353=LINE('',#920,#419);
#354=LINE('',#922,#420);
#355=LINE('',#923,#421);
#356=LINE('',#925,#422);
#357=LINE('',#927,#423);
#358=LINE('',#928,#424);
#359=LINE('',#930,#425);
#360=LINE('',#936,#426);
#361=LINE('',#938,#427);
#362=LINE('',#940,#428);
#363=LINE('',#942,#429);
#364=LINE('',#944,#430);
#365=LINE('',#945,#431);
#366=LINE('',#947,#432);
#367=LINE('',#949,#433);
#368=LINE('',#951,#434);
#369=LINE('',#957,#435);
#370=LINE('',#958,#436);
#371=LINE('',#960,#437);
#372=LINE('',#966,#438);
#373=LINE('',#973,#439);
#374=LINE('',#976,#440);
#375=LINE('',#978,#441);
#376=LINE('',#980,#442);
#377=LINE('',#988,#443);
#378=LINE('',#991,#444);
#379=LINE('',#993,#445);
#380=LINE('',#995,#446);
#381=LINE('',#997,#447);
#382=LINE('',#1000,#448);
#383=LINE('',#1002,#449);
#384=LINE('',#1004,#450);
#385=LINE('',#1006,#451);
#386=LINE('',#1009,#452);
#387=LINE('',#1011,#453);
#388=LINE('',#1012,#454);
#389=LINE('',#1014,#455);
#390=LINE('',#1016,#456);
#391=LINE('',#1017,#457);
#392=LINE('',#1019,#458);
#393=LINE('',#1025,#459);
#394=LINE('',#1027,#460);
#395=LINE('',#1029,#461);
#396=LINE('',#1031,#462);
#397=LINE('',#1033,#463);
#398=LINE('',#1035,#464);
#399=LINE('',#1037,#465);
#400=LINE('',#1038,#466);
#401=LINE('',#1040,#467);
#402=LINE('',#1046,#468);
#403=LINE('',#1048,#469);
#404=LINE('',#1049,#470);
#405=LINE('',#1055,#471);
#406=LINE('',#1062,#472);
#407=LINE('',#1065,#473);
#408=LINE('',#1067,#474);
#409=LINE('',#1069,#475);
#410=VECTOR('',#731,1.);
#411=VECTOR('',#732,1.);
#412=VECTOR('',#733,1.);
#413=VECTOR('',#734,1.);
#414=VECTOR('',#737,1.);
#415=VECTOR('',#738,1.);
#416=VECTOR('',#739,1.);
#417=VECTOR('',#740,1.);
#418=VECTOR('',#743,1.);
#419=VECTOR('',#744,1.);
#420=VECTOR('',#745,1.);
#421=VECTOR('',#746,1.);
#422=VECTOR('',#747,1.);
#423=VECTOR('',#748,1.);
#424=VECTOR('',#749,1.);
#425=VECTOR('',#750,1.);
#426=VECTOR('',#757,1.);
#427=VECTOR('',#758,1.);
#428=VECTOR('',#759,1.);
#429=VECTOR('',#762,1.);
#430=VECTOR('',#763,1.);
#431=VECTOR('',#764,1.);
#432=VECTOR('',#765,1.);
#433=VECTOR('',#766,1.);
#434=VECTOR('',#767,1.);
#435=VECTOR('',#774,1.);
#436=VECTOR('',#775,1.);
#437=VECTOR('',#776,1.);
#438=VECTOR('',#783,1.);
#439=VECTOR('',#792,1.);
#440=VECTOR('',#797,1.);
#441=VECTOR('',#798,1.);
#442=VECTOR('',#801,1.);
#443=VECTOR('',#816,1.);
#444=VECTOR('',#817,1.);
#445=VECTOR('',#818,1.);
#446=VECTOR('',#819,1.);
#447=VECTOR('',#822,1.);
#448=VECTOR('',#823,1.);
#449=VECTOR('',#824,1.);
#450=VECTOR('',#825,1.);
#451=VECTOR('',#828,1.);
#452=VECTOR('',#829,1.);
#453=VECTOR('',#830,1.);
#454=VECTOR('',#831,1.);
#455=VECTOR('',#832,1.);
#456=VECTOR('',#833,1.);
#457=VECTOR('',#834,1.);
#458=VECTOR('',#835,1.);
#459=VECTOR('',#842,1.);
#460=VECTOR('',#843,1.);
#461=VECTOR('',#844,1.);
#462=VECTOR('',#847,1.);
#463=VECTOR('',#848,1.);
#464=VECTOR('',#849,1.);
#465=VECTOR('',#850,1.);
#466=VECTOR('',#851,1.);
#467=VECTOR('',#852,1.);
#468=VECTOR('',#859,1.);
#469=VECTOR('',#860,1.);
#470=VECTOR('',#861,1.);
#471=VECTOR('',#868,1.);
#472=VECTOR('',#877,1.);
#473=VECTOR('',#882,1.);
#474=VECTOR('',#883,1.);
#475=VECTOR('',#886,1.);
#476=EDGE_LOOP('',(#38,#39,#40,#41));
#477=EDGE_LOOP('',(#42,#43,#44,#45));
#478=EDGE_LOOP('',(#46,#47,#48,#49,#50,#51,#52,#53,#54,#55));
#479=EDGE_LOOP('',(#56));
#480=EDGE_LOOP('',(#57));
#481=EDGE_LOOP('',(#58,#59,#60,#61));
#482=EDGE_LOOP('',(#62,#63,#64,#65,#66,#67,#68,#69));
#483=EDGE_LOOP('',(#70));
#484=EDGE_LOOP('',(#71));
#485=EDGE_LOOP('',(#72,#73,#74,#75,#76,#77));
#486=EDGE_LOOP('',(#78));
#487=EDGE_LOOP('',(#79));
#488=EDGE_LOOP('',(#80,#81,#82,#83));
#489=EDGE_LOOP('',(#84,#85,#86,#87));
#490=EDGE_LOOP('',(#88));
#491=EDGE_LOOP('',(#89));
#492=EDGE_LOOP('',(#90,#91,#92,#93));
#493=EDGE_LOOP('',(#94,#95,#96,#97));
#494=EDGE_LOOP('',(#98,#99,#100,#101));
#495=EDGE_LOOP('',(#102,#103,#104,#105));
#496=EDGE_LOOP('',(#106,#107,#108,#109,#110,#111));
#497=EDGE_LOOP('',(#112));
#498=EDGE_LOOP('',(#113));
#499=EDGE_LOOP('',(#114));
#500=EDGE_LOOP('',(#115));
#501=EDGE_LOOP('',(#116));
#502=EDGE_LOOP('',(#117));
#503=EDGE_LOOP('',(#118));
#504=EDGE_LOOP('',(#119));
#505=EDGE_LOOP('',(#120,#121,#122,#123));
#506=EDGE_LOOP('',(#124,#125,#126,#127));
#507=EDGE_LOOP('',(#128,#129,#130,#131,#132,#133,#134,#135,#136,#137));
#508=EDGE_LOOP('',(#138));
#509=EDGE_LOOP('',(#139));
#510=EDGE_LOOP('',(#140,#141,#142,#143));
#511=EDGE_LOOP('',(#144,#145,#146,#147,#148,#149,#150,#151));
#512=EDGE_LOOP('',(#152));
#513=EDGE_LOOP('',(#153));
#514=EDGE_LOOP('',(#154,#155,#156,#157,#158,#159));
#515=EDGE_LOOP('',(#160));
#516=EDGE_LOOP('',(#161));
#517=EDGE_LOOP('',(#162,#163,#164,#165));
#518=EDGE_LOOP('',(#166,#167,#168,#169));
#519=EDGE_LOOP('',(#170));
#520=EDGE_LOOP('',(#171));
#521=EDGE_LOOP('',(#172,#173,#174,#175));
#522=EDGE_LOOP('',(#176,#177,#178,#179));
#523=EDGE_LOOP('',(#180,#181,#182,#183));
#524=EDGE_LOOP('',(#184,#185,#186,#187));
#525=EDGE_LOOP('',(#188,#189,#190,#191,#192,#193));
#526=EDGE_LOOP('',(#194));
#527=EDGE_LOOP('',(#195));
#528=EDGE_LOOP('',(#196));
#529=EDGE_LOOP('',(#197));
#530=EDGE_LOOP('',(#198));
#531=EDGE_LOOP('',(#199));
#532=EDGE_LOOP('',(#200));
#533=EDGE_LOOP('',(#201));
#534=FACE_BOUND('',#476,.T.);
#535=FACE_BOUND('',#477,.T.);
#536=FACE_BOUND('',#478,.T.);
#537=FACE_BOUND('',#479,.T.);
#538=FACE_BOUND('',#480,.T.);
#539=FACE_BOUND('',#481,.T.);
#540=FACE_BOUND('',#482,.T.);
#541=FACE_BOUND('',#483,.T.);
#542=FACE_BOUND('',#484,.T.);
#543=FACE_BOUND('',#485,.T.);
#544=FACE_BOUND('',#486,.T.);
#545=FACE_BOUND('',#487,.T.);
#546=FACE_BOUND('',#488,.T.);
#547=FACE_BOUND('',#489,.T.);
#548=FACE_BOUND('',#490,.T.);
#549=FACE_BOUND('',#491,.T.);
#550=FACE_BOUND('',#492,.T.);
#551=FACE_BOUND('',#493,.T.);
#552=FACE_BOUND('',#494,.T.);
#553=FACE_BOUND('',#495,.T.);
#554=FACE_BOUND('',#496,.T.);
#555=FACE_BOUND('',#497,.T.);
#556=FACE_BOUND('',#498,.T.);
#557=FACE_BOUND('',#499,.T.);
#558=FACE_BOUND('',#500,.T.);
#559=FACE_BOUND('',#501,.T.);
#560=FACE_BOUND('',#502,.T.);
#561=FACE_BOUND('',#503,.T.);
#562=FACE_BOUND('',#504,.T.);
#563=FACE_BOUND('',#505,.T.);
#564=FACE_BOUND('',#506,.T.);
#565=FACE_BOUND('',#507,.T.);
#566=FACE_BOUND('',#508,.T.);
#567=FACE_BOUND('',#509,.T.);
#568=FACE_BOUND('',#510,.T.);
#569=FACE_BOUND('',#511,.T.);
#570=FACE_BOUND('',#512,.T.);
#571=FACE_BOUND('',#513,.T.);
#572=FACE_BOUND('',#514,.T.);
#573=FACE_BOUND('',#515,.T.);
#574=FACE_BOUND('',#516,.T.);
#575=FACE_BOUND('',#517,.T.);
#576=FACE_BOUND('',#518,.T.);
#577=FACE_BOUND('',#519,.T.);
#578=FACE_BOUND('',#520,.T.);
#579=FACE_BOUND('',#521,.T.);
#580=FACE_BOUND('',#522,.T.);
#581=FACE_BOUND('',#523,.T.);
#582=FACE_BOUND('',#524,.T.);
#583=FACE_BOUND('',#525,.T.);
#584=FACE_BOUND('',#526,.T.);
#585=FACE_BOUND('',#527,.T.);
#586=FACE_BOUND('',#528,.T.);
#587=FACE_BOUND('',#529,.T.);
#588=FACE_BOUND('',#530,.T.);
#589=FACE_BOUND('',#531,.T.);
#590=FACE_BOUND('',#532,.T.);
#591=FACE_BOUND('',#533,.T.);
#592=PLANE('',#676);
#593=PLANE('',#677);
#594=PLANE('',#678);
#595=PLANE('',#679);
#596=PLANE('',#682);
#597=PLANE('',#683);
#598=PLANE('',#686);
#599=PLANE('',#689);
#600=PLANE('',#690);
#601=PLANE('',#693);
#602=PLANE('',#694);
#603=PLANE('',#695);
#604=PLANE('',#696);
#605=PLANE('',#702);
#606=PLANE('',#703);
#607=PLANE('',#704);
#608=PLANE('',#705);
#609=PLANE('',#708);
#610=PLANE('',#709);
#611=PLANE('',#712);
#612=PLANE('',#715);
#613=PLANE('',#716);
#614=PLANE('',#719);
#615=PLANE('',#720);
#616=PLANE('',#721);
#617=PLANE('',#722);
#618=ADVANCED_FACE('',(#534),#592,.T.);
#619=ADVANCED_FACE('',(#535),#593,.F.);
#620=ADVANCED_FACE('',(#536),#594,.T.);
#621=ADVANCED_FACE('',(#537,#538,#539),#595,.F.);
#622=ADVANCED_FACE('',(#540),#596,.F.);
#623=ADVANCED_FACE('',(#541,#542,#543),#597,.T.);
#624=ADVANCED_FACE('',(#544,#545,#546),#598,.F.);
#625=ADVANCED_FACE('',(#547),#599,.F.);
#626=ADVANCED_FACE('',(#548,#549,#550),#600,.F.);
#627=ADVANCED_FACE('',(#551),#601,.F.);
#628=ADVANCED_FACE('',(#552),#602,.T.);
#629=ADVANCED_FACE('',(#553),#603,.T.);
#630=ADVANCED_FACE('',(#554),#604,.T.);
#631=ADVANCED_FACE('',(#555,#556),#14,.F.);
#632=ADVANCED_FACE('',(#557,#558),#15,.F.);
#633=ADVANCED_FACE('',(#559,#560),#16,.F.);
#634=ADVANCED_FACE('',(#561,#562),#17,.F.);
#635=ADVANCED_FACE('',(#563),#605,.T.);
#636=ADVANCED_FACE('',(#564),#606,.F.);
#637=ADVANCED_FACE('',(#565),#607,.T.);
#638=ADVANCED_FACE('',(#566,#567,#568),#608,.F.);
#639=ADVANCED_FACE('',(#569),#609,.F.);
#640=ADVANCED_FACE('',(#570,#571,#572),#610,.T.);
#641=ADVANCED_FACE('',(#573,#574,#575),#611,.F.);
#642=ADVANCED_FACE('',(#576),#612,.F.);
#643=ADVANCED_FACE('',(#577,#578,#579),#613,.F.);
#644=ADVANCED_FACE('',(#580),#614,.F.);
#645=ADVANCED_FACE('',(#581),#615,.T.);
#646=ADVANCED_FACE('',(#582),#616,.T.);
#647=ADVANCED_FACE('',(#583),#617,.T.);
#648=ADVANCED_FACE('',(#584,#585),#18,.F.);
#649=ADVANCED_FACE('',(#586,#587),#19,.F.);
#650=ADVANCED_FACE('',(#588,#589),#20,.F.);
#651=ADVANCED_FACE('',(#590,#591),#21,.F.);
#652=CLOSED_SHELL('',(#618,#619,#620,#621,#622,#623,#624,#625,#626,#627,
#628,#629,#630,#631,#632,#633,#634));
#653=CLOSED_SHELL('',(#635,#636,#637,#638,#639,#640,#641,#642,#643,#644,
#645,#646,#647,#648,#649,#650,#651));
#654=STYLED_ITEM('',(#656),#669);
#655=STYLED_ITEM('',(#657),#670);
#656=PRESENTATION_STYLE_ASSIGNMENT((#658));
#657=PRESENTATION_STYLE_ASSIGNMENT((#659));
#658=SURFACE_STYLE_USAGE(.BOTH.,#660);
#659=SURFACE_STYLE_USAGE(.BOTH.,#661);
#660=SURFACE_SIDE_STYLE('',(#662));
#661=SURFACE_SIDE_STYLE('',(#663));
#662=SURFACE_STYLE_FILL_AREA(#664);
#663=SURFACE_STYLE_FILL_AREA(#665);
#664=FILL_AREA_STYLE('',(#666));
#665=FILL_AREA_STYLE('',(#667));
#666=FILL_AREA_STYLE_COLOUR('',#668);
#667=FILL_AREA_STYLE_COLOUR('',#668);
#668=COLOUR_RGB('',0.615686274509804,0.811764705882353,0.929411764705882);
#669=MANIFOLD_SOLID_BREP('Part 1',#652);
#670=MANIFOLD_SOLID_BREP('Part 2',#653);
#671=SHAPE_DEFINITION_REPRESENTATION(#1087,#673);
#672=SHAPE_DEFINITION_REPRESENTATION(#1088,#674);
#673=SHAPE_REPRESENTATION('Part 1',(#675),#1077);
#674=SHAPE_REPRESENTATION('Part 2',(#701),#1078);
#675=AXIS2_PLACEMENT_3D('',#897,#727,#728);
#676=AXIS2_PLACEMENT_3D('',#898,#729,#730);
#677=AXIS2_PLACEMENT_3D('',#907,#735,#736);
#678=AXIS2_PLACEMENT_3D('',#916,#741,#742);
#679=AXIS2_PLACEMENT_3D('',#931,#751,#752);
#680=AXIS2_PLACEMENT_3D('',#932,#753,#754);
#681=AXIS2_PLACEMENT_3D('',#934,#755,#756);
#682=AXIS2_PLACEMENT_3D('',#941,#760,#761);
#683=AXIS2_PLACEMENT_3D('',#952,#768,#769);
#684=AXIS2_PLACEMENT_3D('',#953,#770,#771);
#685=AXIS2_PLACEMENT_3D('',#955,#772,#773);
#686=AXIS2_PLACEMENT_3D('',#961,#777,#778);
#687=AXIS2_PLACEMENT_3D('',#962,#779,#780);
#688=AXIS2_PLACEMENT_3D('',#964,#781,#782);
#689=AXIS2_PLACEMENT_3D('',#967,#784,#785);
#690=AXIS2_PLACEMENT_3D('',#968,#786,#787);
#691=AXIS2_PLACEMENT_3D('',#969,#788,#789);
#692=AXIS2_PLACEMENT_3D('',#971,#790,#791);
#693=AXIS2_PLACEMENT_3D('',#974,#793,#794);
#694=AXIS2_PLACEMENT_3D('',#975,#795,#796);
#695=AXIS2_PLACEMENT_3D('',#979,#799,#800);
#696=AXIS2_PLACEMENT_3D('',#981,#802,#803);
#697=AXIS2_PLACEMENT_3D('',#982,#804,#805);
#698=AXIS2_PLACEMENT_3D('',#983,#806,#807);
#699=AXIS2_PLACEMENT_3D('',#984,#808,#809);
#700=AXIS2_PLACEMENT_3D('',#985,#810,#811);
#701=AXIS2_PLACEMENT_3D('',#986,#812,#813);
#702=AXIS2_PLACEMENT_3D('',#987,#814,#815);
#703=AXIS2_PLACEMENT_3D('',#996,#820,#821);
#704=AXIS2_PLACEMENT_3D('',#1005,#826,#827);
#705=AXIS2_PLACEMENT_3D('',#1020,#836,#837);
#706=AXIS2_PLACEMENT_3D('',#1021,#838,#839);
#707=AXIS2_PLACEMENT_3D('',#1023,#840,#841);
#708=AXIS2_PLACEMENT_3D('',#1030,#845,#846);
#709=AXIS2_PLACEMENT_3D('',#1041,#853,#854);
#710=AXIS2_PLACEMENT_3D('',#1042,#855,#856);
#711=AXIS2_PLACEMENT_3D('',#1044,#857,#858);
#712=AXIS2_PLACEMENT_3D('',#1050,#862,#863);
#713=AXIS2_PLACEMENT_3D('',#1051,#864,#865);
#714=AXIS2_PLACEMENT_3D('',#1053,#866,#867);
#715=AXIS2_PLACEMENT_3D('',#1056,#869,#870);
#716=AXIS2_PLACEMENT_3D('',#1057,#871,#872);
#717=AXIS2_PLACEMENT_3D('',#1058,#873,#874);
#718=AXIS2_PLACEMENT_3D('',#1060,#875,#876);
#719=AXIS2_PLACEMENT_3D('',#1063,#878,#879);
#720=AXIS2_PLACEMENT_3D('',#1064,#880,#881);
#721=AXIS2_PLACEMENT_3D('',#1068,#884,#885);
#722=AXIS2_PLACEMENT_3D('',#1070,#887,#888);
#723=AXIS2_PLACEMENT_3D('',#1071,#889,#890);
#724=AXIS2_PLACEMENT_3D('',#1072,#891,#892);
#725=AXIS2_PLACEMENT_3D('',#1073,#893,#894);
#726=AXIS2_PLACEMENT_3D('',#1074,#895,#896);
#727=DIRECTION('',(0.,0.,1.));
#728=DIRECTION('',(1.,0.,0.));
#729=DIRECTION('',(0.,-9.58084579867446E-17,1.));
#730=DIRECTION('',(1.,0.,0.));
#731=DIRECTION('',(1.,0.,0.));
#732=DIRECTION('',(0.,-1.,-9.58084579867446E-17));
#733=DIRECTION('',(1.,0.,0.));
#734=DIRECTION('',(0.,-1.,-9.58084579867446E-17));
#735=DIRECTION('',(0.,-9.58084579867446E-17,1.));
#736=DIRECTION('',(1.,0.,0.));
#737=DIRECTION('',(0.,-1.,-9.58084579867446E-17));
#738=DIRECTION('',(1.,0.,0.));
#739=DIRECTION('',(0.,1.,9.58084579867446E-17));
#740=DIRECTION('',(1.,0.,0.));
#741=DIRECTION('',(0.,1.,9.58084579867446E-17));
#742=DIRECTION('',(0.,-9.58084579867446E-17,1.));
#743=DIRECTION('',(0.,9.58084579867446E-17,-1.));
#744=DIRECTION('',(1.,0.,0.));
#745=DIRECTION('',(0.,9.58084579867446E-17,-1.));
#746=DIRECTION('',(0.,9.58084579867446E-17,-1.));
#747=DIRECTION('',(1.,0.,0.));
#748=DIRECTION('',(0.,-9.58084579867446E-17,1.));
#749=DIRECTION('',(0.,-9.58084579867446E-17,1.));
#750=DIRECTION('',(1.,0.,0.));
#751=DIRECTION('',(1.,0.,0.));
#752=DIRECTION('',(0.,0.,-1.));
#753=DIRECTION('',(-1.,0.,0.));
#754=DIRECTION('',(0.,0.,1.));
#755=DIRECTION('',(-1.,0.,0.));
#756=DIRECTION('',(0.,0.,1.));
#757=DIRECTION('',(0.,-1.,-9.58084579867446E-17));
#758=DIRECTION('',(0.,9.58084579867446E-17,-1.));
#759=DIRECTION('',(0.,-1.,-9.58084579867446E-17));
#760=DIRECTION('',(0.,1.,9.58084579867446E-17));
#761=DIRECTION('',(0.,-9.58084579867446E-17,1.));
#762=DIRECTION('',(1.,0.,0.));
#763=DIRECTION('',(0.,-9.58084579867446E-17,1.));
#764=DIRECTION('',(0.,-9.58084579867446E-17,1.));
#765=DIRECTION('',(1.,0.,0.));
#766=DIRECTION('',(0.,9.58084579867446E-17,-1.));
#767=DIRECTION('',(1.,0.,0.));
#768=DIRECTION('',(1.,0.,0.));
#769=DIRECTION('',(0.,0.,-1.));
#770=DIRECTION('',(1.,0.,0.));
#771=DIRECTION('',(0.,0.,-1.));
#772=DIRECTION('',(1.,0.,0.));
#773=DIRECTION('',(0.,0.,-1.));
#774=DIRECTION('',(0.,-1.,-9.58084579867446E-17));
#775=DIRECTION('',(0.,9.58084579867446E-17,-1.));
#776=DIRECTION('',(0.,-1.,-9.58084579867446E-17));
#777=DIRECTION('',(1.,0.,0.));
#778=DIRECTION('',(0.,0.,-1.));
#779=DIRECTION('',(1.,0.,0.));
#780=DIRECTION('',(0.,0.,-1.));
#781=DIRECTION('',(1.,0.,0.));
#782=DIRECTION('',(0.,0.,-1.));
#783=DIRECTION('',(0.,1.,9.58084579867446E-17));
#784=DIRECTION('',(0.,-9.58084579867446E-17,1.));
#785=DIRECTION('',(1.,0.,0.));
#786=DIRECTION('',(-1.,0.,0.));
#787=DIRECTION('',(0.,0.,1.));
#788=DIRECTION('',(-1.,0.,0.));
#789=DIRECTION('',(0.,0.,1.));
#790=DIRECTION('',(-1.,0.,0.));
#791=DIRECTION('',(0.,0.,1.));
#792=DIRECTION('',(0.,-1.,-9.58084579867446E-17));
#793=DIRECTION('',(0.,-9.58084579867446E-17,1.));
#794=DIRECTION('',(1.,0.,0.));
#795=DIRECTION('',(0.,1.,9.58084579867446E-17));
#796=DIRECTION('',(0.,-9.58084579867446E-17,1.));
#797=DIRECTION('',(0.,9.58084579867446E-17,-1.));
#798=DIRECTION('',(1.,0.,0.));
#799=DIRECTION('',(1.,0.,0.));
#800=DIRECTION('',(0.,0.,-1.));
#801=DIRECTION('',(0.,-1.,-9.58084579867446E-17));
#802=DIRECTION('',(0.,-9.58084579867446E-17,1.));
#803=DIRECTION('',(1.,0.,0.));
#804=DIRECTION('',(1.,0.,0.));
#805=DIRECTION('',(0.,0.,-1.));
#806=DIRECTION('',(1.,0.,0.));
#807=DIRECTION('',(0.,0.,-1.));
#808=DIRECTION('',(-1.,0.,0.));
#809=DIRECTION('',(0.,0.,1.));
#810=DIRECTION('',(-1.,0.,0.));
#811=DIRECTION('',(0.,0.,1.));
#812=DIRECTION('',(0.,0.,1.));
#813=DIRECTION('',(1.,0.,0.));
#814=DIRECTION('',(1.36201765666628E-30,1.79157068387646E-15,1.));
#815=DIRECTION('',(1.,-1.44328993200774E-15,1.22373827385283E-30));
#816=DIRECTION('',(1.,-1.44328993200774E-15,1.22373827385283E-30));
#817=DIRECTION('',(1.44328993200774E-15,1.,-1.79157068387646E-15));
#818=DIRECTION('',(1.,-1.44328993200774E-15,1.22373827385283E-30));
#819=DIRECTION('',(1.44328993200774E-15,1.,-1.79157068387646E-15));
#820=DIRECTION('',(1.36201765666628E-30,1.79157068387646E-15,1.));
#821=DIRECTION('',(1.,-1.44328993200774E-15,1.22373827385283E-30));
#822=DIRECTION('',(1.44328993200774E-15,1.,-1.79157068387646E-15));
#823=DIRECTION('',(1.,-1.44328993200774E-15,1.22373827385283E-30));
#824=DIRECTION('',(-1.44328993200774E-15,-1.,1.79157068387646E-15));
#825=DIRECTION('',(1.,-1.44328993200774E-15,1.22373827385283E-30));
#826=DIRECTION('',(-1.44328993200774E-15,-1.,1.79157068387646E-15));
#827=DIRECTION('',(1.36201765666628E-30,1.79157068387646E-15,1.));
#828=DIRECTION('',(-1.36201765666628E-30,-1.79157068387646E-15,-1.));
#829=DIRECTION('',(1.,-1.44328993200774E-15,1.22373827385283E-30));
#830=DIRECTION('',(1.36201765666628E-30,1.79157068387646E-15,1.));
#831=DIRECTION('',(1.36201765666628E-30,1.79157068387646E-15,1.));
#832=DIRECTION('',(1.,-1.44328993200774E-15,1.22373827385283E-30));
#833=DIRECTION('',(-1.36201765666628E-30,-1.79157068387646E-15,-1.));
#834=DIRECTION('',(-1.36201765666628E-30,-1.79157068387646E-15,-1.));
#835=DIRECTION('',(1.,-1.44328993200774E-15,1.22373827385283E-30));
#836=DIRECTION('',(1.,-1.44328993200774E-15,1.22373827385283E-30));
#837=DIRECTION('',(-1.22373827385283E-30,-1.69576222588971E-15,-1.));
#838=DIRECTION('',(1.,-1.44328993200774E-15,1.22373827385283E-30));
#839=DIRECTION('',(1.22373827385283E-30,1.69576222588971E-15,1.));
#840=DIRECTION('',(1.,-1.44328993200774E-15,1.22373827385283E-30));
#841=DIRECTION('',(1.22373827385283E-30,1.69576222588971E-15,1.));
#842=DIRECTION('',(1.44328993200774E-15,1.,-1.79157068387646E-15));
#843=DIRECTION('',(-1.36201765666628E-30,-1.79157068387646E-15,-1.));
#844=DIRECTION('',(1.44328993200774E-15,1.,-1.79157068387646E-15));
#845=DIRECTION('',(-1.44328993200774E-15,-1.,1.79157068387646E-15));
#846=DIRECTION('',(1.36201765666628E-30,1.79157068387646E-15,1.));
#847=DIRECTION('',(1.,-1.44328993200774E-15,1.22373827385283E-30));
#848=DIRECTION('',(-1.36201765666628E-30,-1.79157068387646E-15,-1.));
#849=DIRECTION('',(1.,-1.44328993200774E-15,1.22373827385283E-30));
#850=DIRECTION('',(1.36201765666628E-30,1.79157068387646E-15,1.));
#851=DIRECTION('',(1.36201765666628E-30,1.79157068387646E-15,1.));
#852=DIRECTION('',(1.,-1.44328993200774E-15,1.22373827385283E-30));
#853=DIRECTION('',(1.,-1.44328993200774E-15,1.22373827385283E-30));
#854=DIRECTION('',(-1.22373827385283E-30,-1.69576222588971E-15,-1.));
#855=DIRECTION('',(-1.,1.44328993200774E-15,-1.22373827385283E-30));
#856=DIRECTION('',(-1.22373827385283E-30,-1.69576222588971E-15,-1.));
#857=DIRECTION('',(-1.,1.44328993200774E-15,-1.22373827385283E-30));
#858=DIRECTION('',(-1.22373827385283E-30,-1.69576222588971E-15,-1.));
#859=DIRECTION('',(1.44328993200774E-15,1.,-1.79157068387646E-15));
#860=DIRECTION('',(-1.36201765666628E-30,-1.79157068387646E-15,-1.));
#861=DIRECTION('',(1.44328993200774E-15,1.,-1.79157068387646E-15));
#862=DIRECTION('',(1.,-1.44328993200774E-15,1.22373827385283E-30));
#863=DIRECTION('',(-1.22373827385283E-30,-1.69576222588971E-15,-1.));
#864=DIRECTION('',(-1.,1.44328993200774E-15,-1.22373827385283E-30));
#865=DIRECTION('',(-1.22373827385283E-30,-1.69576222588971E-15,-1.));
#866=DIRECTION('',(-1.,1.44328993200774E-15,-1.22373827385283E-30));
#867=DIRECTION('',(-1.22373827385283E-30,-1.69576222588971E-15,-1.));
#868=DIRECTION('',(-1.44328993200774E-15,-1.,1.79157068387646E-15));
#869=DIRECTION('',(1.36201765666628E-30,1.79157068387646E-15,1.));
#870=DIRECTION('',(1.,-1.44328993200774E-15,1.22373827385283E-30));
#871=DIRECTION('',(-1.,1.44328993200774E-15,-1.22373827385283E-30));
#872=DIRECTION('',(1.22373827385283E-30,1.69576222588971E-15,1.));
#873=DIRECTION('',(1.,-1.44328993200774E-15,1.22373827385283E-30));
#874=DIRECTION('',(1.22373827385283E-30,1.69576222588971E-15,1.));
#875=DIRECTION('',(1.,-1.44328993200774E-15,1.22373827385283E-30));
#876=DIRECTION('',(1.22373827385283E-30,1.69576222588971E-15,1.));
#877=DIRECTION('',(1.44328993200774E-15,1.,-1.79157068387646E-15));
#878=DIRECTION('',(1.36201765666628E-30,1.79157068387646E-15,1.));
#879=DIRECTION('',(1.,-1.44328993200774E-15,1.22373827385283E-30));
#880=DIRECTION('',(-1.44328993200774E-15,-1.,1.79157068387646E-15));
#881=DIRECTION('',(1.36201765666628E-30,1.79157068387646E-15,1.));
#882=DIRECTION('',(1.,-1.44328993200774E-15,1.22373827385283E-30));
#883=DIRECTION('',(-1.36201765666628E-30,-1.79157068387646E-15,-1.));
#884=DIRECTION('',(1.,-1.44328993200774E-15,1.22373827385283E-30));
#885=DIRECTION('',(-1.22373827385283E-30,-1.69576222588971E-15,-1.));
#886=DIRECTION('',(1.44328993200774E-15,1.,-1.79157068387646E-15));
#887=DIRECTION('',(1.36201765666628E-30,1.79157068387646E-15,1.));
#888=DIRECTION('',(1.,-1.44328993200774E-15,1.22373827385283E-30));
#889=DIRECTION('',(1.,-1.44328993200774E-15,1.22373827385283E-30));
#890=DIRECTION('',(-1.22373827385283E-30,-1.69576222588971E-15,-1.));
#891=DIRECTION('',(1.,-1.44328993200774E-15,1.22373827385283E-30));
#892=DIRECTION('',(-1.22373827385283E-30,-1.69576222588971E-15,-1.));
#893=DIRECTION('',(-1.,1.44328993200774E-15,-1.22373827385283E-30));
#894=DIRECTION('',(1.22373827385283E-30,1.69576222588971E-15,1.));
#895=DIRECTION('',(-1.,1.44328993200774E-15,-1.22373827385283E-30));
#896=DIRECTION('',(1.22373827385283E-30,1.69576222588971E-15,1.));
#897=CARTESIAN_POINT('',(0.,0.,0.));
#898=CARTESIAN_POINT('',(-0.106080330908298,0.138946848988533,-0.0187709697299867));
#899=CARTESIAN_POINT('',(-0.106080330908298,0.00937907304614782,-0.0187709697299868));
#900=CARTESIAN_POINT('',(-0.114948850725529,0.00937907304614782,-0.0187709697299868));
#901=CARTESIAN_POINT('',(-0.0896324515342712,0.00937907304614782,-0.0187709697299868));
#902=CARTESIAN_POINT('',(-0.114948850725529,-0.00325179757724122,-0.0187709697299868));
#903=CARTESIAN_POINT('',(-0.114948850725529,-0.0158826682006302,-0.0187709697299868));
#904=CARTESIAN_POINT('',(-0.1022906511299,-0.0158826682006302,-0.0187709697299868));
#905=CARTESIAN_POINT('',(-0.0896324515342712,-0.0158826682006302,-0.0187709697299868));
#906=CARTESIAN_POINT('',(-0.0896324515342712,-0.0049975928850472,-0.0187709697299868));
#907=CARTESIAN_POINT('',(-0.106080330908298,0.138946848988533,-0.0197709697299867));
#908=CARTESIAN_POINT('',(-0.114839993417263,0.138946848988533,-0.0197709697299867));
#909=CARTESIAN_POINT('',(-0.114839993417263,0.00937907304614782,-0.0197709697299868));
#910=CARTESIAN_POINT('',(-0.114839993417263,-0.0193742588162422,-0.0197709697299868));
#911=CARTESIAN_POINT('',(-0.106080330908298,0.00937907304614782,-0.0197709697299868));
#912=CARTESIAN_POINT('',(-0.0966935008764267,0.00937907304614782,-0.0197709697299868));
#913=CARTESIAN_POINT('',(-0.0966935008764267,0.138946848988533,-0.0197709697299867));
#914=CARTESIAN_POINT('',(-0.0966935008764267,-0.0193742588162422,-0.0197709697299868));
#915=CARTESIAN_POINT('',(-0.106080330908298,-0.0193742588162422,-0.0197709697299868));
#916=CARTESIAN_POINT('',(-0.106080330908298,0.00937907304614782,-0.0187709697299868));
#917=CARTESIAN_POINT('',(-0.122528210282326,0.00937907304614782,-0.0187709697299868));
#918=CARTESIAN_POINT('',(-0.122528210282326,0.00937907304614782,0.00622903027001327));
#919=CARTESIAN_POINT('',(-0.122528210282326,0.00937907304614783,-0.0437709697299868));
#920=CARTESIAN_POINT('',(-0.106080330908298,0.00937907304614782,0.00622903027001327));
#921=CARTESIAN_POINT('',(-0.114948850725529,0.00937907304614782,0.00622903027001327));
#922=CARTESIAN_POINT('',(-0.114948850725529,0.00937907304614782,0.00622903027001327));
#923=CARTESIAN_POINT('',(-0.0896324515342712,0.00937907304614782,-0.0187709697299868));
#924=CARTESIAN_POINT('',(-0.0896324515342712,0.00937907304614783,-0.0437709697299868));
#925=CARTESIAN_POINT('',(-0.106080330908298,0.00937907304614783,-0.0437709697299868));
#926=CARTESIAN_POINT('',(-0.0966935008764267,0.00937907304614783,-0.0437709697299868));
#927=CARTESIAN_POINT('',(-0.0966935008764267,0.00937907304614783,-0.0437709697299868));
#928=CARTESIAN_POINT('',(-0.114839993417263,0.00937907304614783,-0.0437709697299868));
#929=CARTESIAN_POINT('',(-0.114839993417263,0.00937907304614783,-0.0437709697299868));
#930=CARTESIAN_POINT('',(-0.106080330908298,0.00937907304614783,-0.0437709697299868));
#931=CARTESIAN_POINT('',(-0.122528210282326,-0.0049975928850472,-0.0187709697299868));
#932=CARTESIAN_POINT('',(-0.122528210282326,0.00458344999108279,-0.029596527236084));
#933=CARTESIAN_POINT('',(-0.122528210282326,0.00458344999108279,-0.0275965272360841));
#934=CARTESIAN_POINT('',(-0.122528210282326,-0.00575848284377525,-0.0297932025176698));
#935=CARTESIAN_POINT('',(-0.122528210282326,-0.00575848284377525,-0.0277932025176698));
#936=CARTESIAN_POINT('',(-0.122528210282326,-0.0049975928850472,-0.0437709697299868));
#937=CARTESIAN_POINT('',(-0.122528210282326,-0.0193742588162422,-0.0437709697299868));
#938=CARTESIAN_POINT('',(-0.122528210282326,-0.0193742588162422,-0.0187709697299868));
#939=CARTESIAN_POINT('',(-0.122528210282326,-0.0193742588162422,0.00622903027001327));
#940=CARTESIAN_POINT('',(-0.122528210282326,-0.0049975928850472,0.00622903027001327));
#941=CARTESIAN_POINT('',(-0.106080330908298,-0.0193742588162422,-0.0187709697299868));
#942=CARTESIAN_POINT('',(-0.106080330908298,-0.0193742588162422,-0.0437709697299868));
#943=CARTESIAN_POINT('',(-0.114839993417263,-0.0193742588162422,-0.0437709697299868));
#944=CARTESIAN_POINT('',(-0.114839993417263,-0.0193742588162422,-0.0437709697299868));
#945=CARTESIAN_POINT('',(-0.0966935008764267,-0.0193742588162422,-0.0437709697299868));
#946=CARTESIAN_POINT('',(-0.0966935008764267,-0.0193742588162422,-0.0437709697299868));
#947=CARTESIAN_POINT('',(-0.106080330908298,-0.0193742588162422,-0.0437709697299868));
#948=CARTESIAN_POINT('',(-0.0896324515342712,-0.0193742588162422,-0.0437709697299868));
#949=CARTESIAN_POINT('',(-0.0896324515342712,-0.0193742588162422,-0.0187709697299868));
#950=CARTESIAN_POINT('',(-0.0896324515342712,-0.0193742588162422,0.00622903027001327));
#951=CARTESIAN_POINT('',(-0.106080330908298,-0.0193742588162422,0.00622903027001327));
#952=CARTESIAN_POINT('',(-0.0896324515342712,-0.0049975928850472,-0.0187709697299868));
#953=CARTESIAN_POINT('',(-0.0896324515342712,-0.0145577121239986,-0.0294223757067539));
#954=CARTESIAN_POINT('',(-0.0896324515342712,-0.0145577121239986,-0.0314223757067539));
#955=CARTESIAN_POINT('',(-0.0896324515342712,-0.000116496177076486,-0.0280944426951079));
#956=CARTESIAN_POINT('',(-0.0896324515342712,-0.000116496177076486,-0.0300944426951079));
#957=CARTESIAN_POINT('',(-0.0896324515342712,-0.0049975928850472,-0.0437709697299868));
#958=CARTESIAN_POINT('',(-0.0896324515342712,-0.0158826682006302,0.00622903027001327));
#959=CARTESIAN_POINT('',(-0.0896324515342712,-0.0158826682006302,0.00622903027001327));
#960=CARTESIAN_POINT('',(-0.0896324515342712,-0.0049975928850472,0.00622903027001327));
#961=CARTESIAN_POINT('',(-0.0966935008764267,-0.00499759288504719,-0.0437709697299868));
#962=CARTESIAN_POINT('',(-0.0966935008764267,-0.0145577121239986,-0.0294223757067539));
#963=CARTESIAN_POINT('',(-0.0966935008764267,-0.0145577121239986,-0.0314223757067539));
#964=CARTESIAN_POINT('',(-0.0966935008764267,-0.000116496177076486,-0.0280944426951079));
#965=CARTESIAN_POINT('',(-0.0966935008764267,-0.000116496177076486,-0.0300944426951079));
#966=CARTESIAN_POINT('',(-0.0966935008764267,-0.00499759288504719,-0.0437709697299868));
#967=CARTESIAN_POINT('',(-0.106080330908298,-0.0049975928850472,-0.0437709697299868));
#968=CARTESIAN_POINT('',(-0.114839993417263,-0.00499759288504719,-0.0437709697299868));
#969=CARTESIAN_POINT('',(-0.114839993417263,0.00458344999108279,-0.029596527236084));
#970=CARTESIAN_POINT('',(-0.114839993417263,0.00458344999108279,-0.0275965272360841));
#971=CARTESIAN_POINT('',(-0.114839993417263,-0.00575848284377525,-0.0297932025176698));
#972=CARTESIAN_POINT('',(-0.114839993417263,-0.00575848284377525,-0.0277932025176698));
#973=CARTESIAN_POINT('',(-0.114839993417263,-0.00499759288504719,-0.0437709697299868));
#974=CARTESIAN_POINT('',(-0.106080330908298,-0.0049975928850472,-0.0437709697299868));
#975=CARTESIAN_POINT('',(-0.1022906511299,-0.0158826682006302,0.00622903027001327));
#976=CARTESIAN_POINT('',(-0.114948850725529,-0.0158826682006302,0.00622903027001327));
#977=CARTESIAN_POINT('',(-0.114948850725529,-0.0158826682006302,0.00622903027001327));
#978=CARTESIAN_POINT('',(-0.1022906511299,-0.0158826682006302,0.00622903027001327));
#979=CARTESIAN_POINT('',(-0.114948850725529,-0.00325179757724123,0.00622903027001327));
#980=CARTESIAN_POINT('',(-0.114948850725529,-0.00325179757724123,0.00622903027001327));
#981=CARTESIAN_POINT('',(-0.106080330908298,-0.0049975928850472,0.00622903027001327));
#982=CARTESIAN_POINT('',(-0.0996324515342712,-0.000116496177076486,-0.0280944426951079));
#983=CARTESIAN_POINT('',(-0.0996324515342712,-0.0145577121239986,-0.0294223757067539));
#984=CARTESIAN_POINT('',(-0.112528210282326,-0.00575848284377525,-0.0297932025176698));
#985=CARTESIAN_POINT('',(-0.112528210282326,0.00458344999108279,-0.029596527236084));
#986=CARTESIAN_POINT('',(0.,0.,0.));
#987=CARTESIAN_POINT('',(-0.106080330908298,0.12805301114195,-0.0187709697299867));
#988=CARTESIAN_POINT('',(-0.106080330908298,0.257620787084335,-0.0187709697299869));
#989=CARTESIAN_POINT('',(-0.114948850725528,0.257620787084335,-0.0187709697299869));
#990=CARTESIAN_POINT('',(-0.0896324515342711,0.257620787084335,-0.0187709697299869));
#991=CARTESIAN_POINT('',(-0.089632451534271,0.27199745301553,-0.0187709697299869));
#992=CARTESIAN_POINT('',(-0.089632451534271,0.282882528331113,-0.018770969729987));
#993=CARTESIAN_POINT('',(-0.1022906511299,0.282882528331113,-0.018770969729987));
#994=CARTESIAN_POINT('',(-0.114948850725528,0.282882528331113,-0.018770969729987));
#995=CARTESIAN_POINT('',(-0.114948850725528,0.270251657707724,-0.0187709697299869));
#996=CARTESIAN_POINT('',(-0.106080330908298,0.12805301114195,-0.0197709697299867));
#997=CARTESIAN_POINT('',(-0.114839993417263,0.12805301114195,-0.0197709697299867));
#998=CARTESIAN_POINT('',(-0.114839993417263,0.257620787084335,-0.0197709697299869));
#999=CARTESIAN_POINT('',(-0.114839993417263,0.286374118946725,-0.019770969729987));
#1000=CARTESIAN_POINT('',(-0.106080330908298,0.286374118946725,-0.019770969729987));
#1001=CARTESIAN_POINT('',(-0.0966935008764265,0.286374118946725,-0.019770969729987));
#1002=CARTESIAN_POINT('',(-0.0966935008764267,0.12805301114195,-0.0197709697299867));
#1003=CARTESIAN_POINT('',(-0.0966935008764265,0.257620787084335,-0.0197709697299869));
#1004=CARTESIAN_POINT('',(-0.106080330908298,0.257620787084335,-0.0197709697299869));
#1005=CARTESIAN_POINT('',(-0.106080330908298,0.257620787084335,-0.0187709697299869));
#1006=CARTESIAN_POINT('',(-0.122528210282326,0.257620787084335,-0.0187709697299869));
#1007=CARTESIAN_POINT('',(-0.122528210282326,0.257620787084335,0.00622903027001306));
#1008=CARTESIAN_POINT('',(-0.122528210282326,0.257620787084335,-0.043770969729987));
#1009=CARTESIAN_POINT('',(-0.106080330908298,0.257620787084335,-0.043770969729987));
#1010=CARTESIAN_POINT('',(-0.114839993417263,0.257620787084335,-0.043770969729987));
#1011=CARTESIAN_POINT('',(-0.114839993417263,0.257620787084335,-0.043770969729987));
#1012=CARTESIAN_POINT('',(-0.0966935008764265,0.257620787084335,-0.043770969729987));
#1013=CARTESIAN_POINT('',(-0.0966935008764265,0.257620787084335,-0.043770969729987));
#1014=CARTESIAN_POINT('',(-0.106080330908298,0.257620787084335,-0.043770969729987));
#1015=CARTESIAN_POINT('',(-0.0896324515342711,0.257620787084335,-0.043770969729987));
#1016=CARTESIAN_POINT('',(-0.0896324515342711,0.257620787084335,-0.0187709697299869));
#1017=CARTESIAN_POINT('',(-0.114948850725528,0.257620787084335,0.00622903027001306));
#1018=CARTESIAN_POINT('',(-0.114948850725528,0.257620787084335,0.00622903027001306));
#1019=CARTESIAN_POINT('',(-0.106080330908298,0.257620787084335,0.00622903027001306));
#1020=CARTESIAN_POINT('',(-0.122528210282325,0.27199745301553,-0.0187709697299869));
#1021=CARTESIAN_POINT('',(-0.122528210282326,0.2624164101394,-0.0295965272360843));
#1022=CARTESIAN_POINT('',(-0.122528210282326,0.2624164101394,-0.0275965272360843));
#1023=CARTESIAN_POINT('',(-0.122528210282325,0.272758342974258,-0.0297932025176701));
#1024=CARTESIAN_POINT('',(-0.122528210282325,0.272758342974258,-0.02779320251767));
#1025=CARTESIAN_POINT('',(-0.122528210282325,0.27199745301553,0.00622903027001303));
#1026=CARTESIAN_POINT('',(-0.122528210282325,0.286374118946725,0.00622903027001301));
#1027=CARTESIAN_POINT('',(-0.122528210282325,0.286374118946725,-0.018770969729987));
#1028=CARTESIAN_POINT('',(-0.122528210282325,0.286374118946725,-0.043770969729987));
#1029=CARTESIAN_POINT('',(-0.122528210282325,0.27199745301553,-0.043770969729987));
#1030=CARTESIAN_POINT('',(-0.106080330908298,0.286374118946725,-0.018770969729987));
#1031=CARTESIAN_POINT('',(-0.106080330908298,0.286374118946725,0.00622903027001301));
#1032=CARTESIAN_POINT('',(-0.089632451534271,0.286374118946725,0.00622903027001301));
#1033=CARTESIAN_POINT('',(-0.089632451534271,0.286374118946725,-0.018770969729987));
#1034=CARTESIAN_POINT('',(-0.089632451534271,0.286374118946725,-0.043770969729987));
#1035=CARTESIAN_POINT('',(-0.106080330908298,0.286374118946725,-0.043770969729987));
#1036=CARTESIAN_POINT('',(-0.0966935008764265,0.286374118946725,-0.043770969729987));
#1037=CARTESIAN_POINT('',(-0.0966935008764265,0.286374118946725,-0.043770969729987));
#1038=CARTESIAN_POINT('',(-0.114839993417263,0.286374118946725,-0.043770969729987));
#1039=CARTESIAN_POINT('',(-0.114839993417263,0.286374118946725,-0.043770969729987));
#1040=CARTESIAN_POINT('',(-0.106080330908298,0.286374118946725,-0.043770969729987));
#1041=CARTESIAN_POINT('',(-0.089632451534271,0.27199745301553,-0.0187709697299869));
#1042=CARTESIAN_POINT('',(-0.089632451534271,0.281557572254481,-0.0294223757067541));
#1043=CARTESIAN_POINT('',(-0.089632451534271,0.281557572254481,-0.0314223757067542));
#1044=CARTESIAN_POINT('',(-0.0896324515342711,0.267116356307559,-0.0280944426951082));
#1045=CARTESIAN_POINT('',(-0.0896324515342711,0.267116356307559,-0.0300944426951082));
#1046=CARTESIAN_POINT('',(-0.089632451534271,0.27199745301553,0.00622903027001303));
#1047=CARTESIAN_POINT('',(-0.089632451534271,0.282882528331113,0.00622903027001301));
#1048=CARTESIAN_POINT('',(-0.089632451534271,0.282882528331113,0.00622903027001301));
#1049=CARTESIAN_POINT('',(-0.089632451534271,0.27199745301553,-0.043770969729987));
#1050=CARTESIAN_POINT('',(-0.0966935008764265,0.27199745301553,-0.043770969729987));
#1051=CARTESIAN_POINT('',(-0.0966935008764265,0.281557572254481,-0.0294223757067541));
#1052=CARTESIAN_POINT('',(-0.0966935008764265,0.281557572254481,-0.0314223757067542));
#1053=CARTESIAN_POINT('',(-0.0966935008764265,0.267116356307559,-0.0280944426951082));
#1054=CARTESIAN_POINT('',(-0.0966935008764265,0.267116356307559,-0.0300944426951082));
#1055=CARTESIAN_POINT('',(-0.0966935008764265,0.27199745301553,-0.043770969729987));
#1056=CARTESIAN_POINT('',(-0.106080330908298,0.27199745301553,-0.043770969729987));
#1057=CARTESIAN_POINT('',(-0.114839993417263,0.27199745301553,-0.043770969729987));
#1058=CARTESIAN_POINT('',(-0.114839993417263,0.2624164101394,-0.0295965272360843));
#1059=CARTESIAN_POINT('',(-0.114839993417263,0.2624164101394,-0.0275965272360843));
#1060=CARTESIAN_POINT('',(-0.114839993417263,0.272758342974258,-0.0297932025176701));
#1061=CARTESIAN_POINT('',(-0.114839993417263,0.272758342974258,-0.02779320251767));
#1062=CARTESIAN_POINT('',(-0.114839993417263,0.27199745301553,-0.043770969729987));
#1063=CARTESIAN_POINT('',(-0.106080330908298,0.27199745301553,-0.043770969729987));
#1064=CARTESIAN_POINT('',(-0.1022906511299,0.282882528331113,0.00622903027001301));
#1065=CARTESIAN_POINT('',(-0.1022906511299,0.282882528331113,0.00622903027001301));
#1066=CARTESIAN_POINT('',(-0.114948850725528,0.282882528331113,0.00622903027001301));
#1067=CARTESIAN_POINT('',(-0.114948850725528,0.282882528331113,0.00622903027001301));
#1068=CARTESIAN_POINT('',(-0.114948850725528,0.270251657707724,0.00622903027001303));
#1069=CARTESIAN_POINT('',(-0.114948850725528,0.270251657707724,0.00622903027001303));
#1070=CARTESIAN_POINT('',(-0.106080330908298,0.27199745301553,0.00622903027001303));
#1071=CARTESIAN_POINT('',(-0.099632451534271,0.267116356307559,-0.0280944426951082));
#1072=CARTESIAN_POINT('',(-0.099632451534271,0.281557572254481,-0.0294223757067541));
#1073=CARTESIAN_POINT('',(-0.112528210282325,0.272758342974258,-0.0297932025176701));
#1074=CARTESIAN_POINT('',(-0.112528210282326,0.2624164101394,-0.0295965272360843));
#1075=MECHANICAL_DESIGN_GEOMETRIC_PRESENTATION_REPRESENTATION('',(#654),
#1077);
#1076=MECHANICAL_DESIGN_GEOMETRIC_PRESENTATION_REPRESENTATION('',(#655),
#1078);
#1077=(
GEOMETRIC_REPRESENTATION_CONTEXT(3)
GLOBAL_UNCERTAINTY_ASSIGNED_CONTEXT((#1079))
GLOBAL_UNIT_ASSIGNED_CONTEXT((#1085,#1083,#1081))
REPRESENTATION_CONTEXT('Part 1','TOP_LEVEL_ASSEMBLY_PART')
);
#1078=(
GEOMETRIC_REPRESENTATION_CONTEXT(3)
GLOBAL_UNCERTAINTY_ASSIGNED_CONTEXT((#1080))
GLOBAL_UNIT_ASSIGNED_CONTEXT((#1086,#1084,#1082))
REPRESENTATION_CONTEXT('Part 2','TOP_LEVEL_ASSEMBLY_PART')
);
#1079=UNCERTAINTY_MEASURE_WITH_UNIT(LENGTH_MEASURE(1.E-8),#1085,
'DISTANCE_ACCURACY_VALUE','Maximum Tolerance applied to model');
#1080=UNCERTAINTY_MEASURE_WITH_UNIT(LENGTH_MEASURE(1.E-8),#1086,
'DISTANCE_ACCURACY_VALUE','Maximum Tolerance applied to model');
#1081=(
NAMED_UNIT(*)
SI_UNIT($,.STERADIAN.)
SOLID_ANGLE_UNIT()
);
#1082=(
NAMED_UNIT(*)
SI_UNIT($,.STERADIAN.)
SOLID_ANGLE_UNIT()
);
#1083=(
NAMED_UNIT(*)
PLANE_ANGLE_UNIT()
SI_UNIT($,.RADIAN.)
);
#1084=(
NAMED_UNIT(*)
PLANE_ANGLE_UNIT()
SI_UNIT($,.RADIAN.)
);
#1085=(
LENGTH_UNIT()
NAMED_UNIT(*)
SI_UNIT($,.METRE.)
);
#1086=(
LENGTH_UNIT()
NAMED_UNIT(*)
SI_UNIT($,.METRE.)
);
#1087=PRODUCT_DEFINITION_SHAPE('','',#1089);
#1088=PRODUCT_DEFINITION_SHAPE('','',#1090);
#1089=PRODUCT_DEFINITION('','',#1093,#1091);
#1090=PRODUCT_DEFINITION('','',#1094,#1092);
#1091=PRODUCT_DEFINITION_CONTEXT('',#1105,'design');
#1092=PRODUCT_DEFINITION_CONTEXT('',#1106,'design');
#1093=PRODUCT_DEFINITION_FORMATION_WITH_SPECIFIED_SOURCE('','',#1097,
 .NOT_KNOWN.);
#1094=PRODUCT_DEFINITION_FORMATION_WITH_SPECIFIED_SOURCE('','',#1098,
 .NOT_KNOWN.);
#1095=PRODUCT_RELATED_PRODUCT_CATEGORY('','',(#1097));
#1096=PRODUCT_RELATED_PRODUCT_CATEGORY('','',(#1098));
#1097=PRODUCT('Part 1','Part 1','Part 1',(#1101));
#1098=PRODUCT('Part 2','Part 2','Part 2',(#1102));
#1099=PRODUCT_CATEGORY('','');
#1100=PRODUCT_CATEGORY('','');
#1101=PRODUCT_CONTEXT('',#1105,'mechanical');
#1102=PRODUCT_CONTEXT('',#1106,'mechanical');
#1103=APPLICATION_PROTOCOL_DEFINITION('international standard',
'ap242_managed_model_based_3d_engineering',2020,#1105);
#1104=APPLICATION_PROTOCOL_DEFINITION('international standard',
'ap242_managed_model_based_3d_engineering',2020,#1106);
#1105=APPLICATION_CONTEXT('managed model based 3d engineering');
#1106=APPLICATION_CONTEXT('managed model based 3d engineering');
ENDSEC;
END-ISO-10303-21;
