ISO-10303-21;
HEADER;
/* Generated by software containing ST-Developer
 * from STEP Tools, Inc. (www.steptools.com) 
 */
/* OPTION: using custom renumber hook */

FILE_DESCRIPTION(
/* description */ ('STEP AP242 Edition 2',
'CAx-IF Rec.Pracs.---Representation and Presentation of Product Manufa
cturing Information (PMI)---4.0---2014-10-13',
'CAx-IF Rec.Pracs.---3D Tessellated Geometry---0.4---2014-09-14','2;1',
'CAx-IF Rec.Pracs.---User Defined Attributes---1.5---2016-08-15'),
/* implementation_level */ '2;1');

FILE_NAME(
/* name */ 'Idlers Left',
/* time_stamp */ '2026-07-04T19:00:33Z',
/* author */ (''),
/* organization */ (''),
/* preprocessor_version */ 'ST-DEVELOPER v20',
/* originating_system */ 'ONSHAPE BY PTC INC, 1.217',
/* authorisation */ '  ');

FILE_SCHEMA (('AP242_MANAGED_MODEL_BASED_3D_ENGINEERING_MIM_LF { 1 0 10303 442 3 1 4 }'));
ENDSEC;

DATA;
#10=SHAPE_REPRESENTATION_RELATIONSHIP('','',#583,#11);
#11=ADVANCED_BREP_SHAPE_REPRESENTATION('',(#581),#977);
#12=CYLINDRICAL_SURFACE('',#591,0.00775);
#13=CYLINDRICAL_SURFACE('',#599,0.004);
#14=CYLINDRICAL_SURFACE('',#602,0.004);
#15=CYLINDRICAL_SURFACE('',#606,0.0025);
#16=CYLINDRICAL_SURFACE('',#609,0.005);
#17=CYLINDRICAL_SURFACE('',#615,0.0015);
#18=CYLINDRICAL_SURFACE('',#621,0.00265563491861033);
#19=CYLINDRICAL_SURFACE('',#624,0.00265563491861036);
#20=CYLINDRICAL_SURFACE('',#636,0.0015);
#21=CYLINDRICAL_SURFACE('',#637,0.0015);
#22=CYLINDRICAL_SURFACE('',#639,0.0015);
#23=CYLINDRICAL_SURFACE('',#642,0.0015);
#24=CYLINDRICAL_SURFACE('',#645,0.005);
#25=LINE('',#824,#67);
#26=LINE('',#827,#68);
#27=LINE('',#831,#69);
#28=LINE('',#833,#70);
#29=LINE('',#835,#71);
#30=LINE('',#839,#72);
#31=LINE('',#841,#73);
#32=LINE('',#843,#74);
#33=LINE('',#845,#75);
#34=LINE('',#848,#76);
#35=LINE('',#850,#77);
#36=LINE('',#852,#78);
#37=LINE('',#863,#79);
#38=LINE('',#865,#80);
#39=LINE('',#867,#81);
#40=LINE('',#869,#82);
#41=LINE('',#871,#83);
#42=LINE('',#872,#84);
#43=LINE('',#874,#85);
#44=LINE('',#877,#86);
#45=LINE('',#878,#87);
#46=LINE('',#879,#88);
#47=LINE('',#881,#89);
#48=LINE('',#883,#90);
#49=LINE('',#885,#91);
#50=LINE('',#886,#92);
#51=LINE('',#888,#93);
#52=LINE('',#913,#94);
#53=LINE('',#915,#95);
#54=LINE('',#922,#96);
#55=LINE('',#924,#97);
#56=LINE('',#926,#98);
#57=LINE('',#930,#99);
#58=LINE('',#932,#100);
#59=LINE('',#936,#101);
#60=LINE('',#938,#102);
#61=LINE('',#940,#103);
#62=LINE('',#946,#104);
#63=LINE('',#948,#105);
#64=LINE('',#950,#106);
#65=LINE('',#952,#107);
#66=LINE('',#954,#108);
#67=VECTOR('',#656,1.);
#68=VECTOR('',#657,1.);
#69=VECTOR('',#660,1.);
#70=VECTOR('',#661,1.);
#71=VECTOR('',#662,1.);
#72=VECTOR('',#665,1.);
#73=VECTOR('',#666,1.);
#74=VECTOR('',#667,1.);
#75=VECTOR('',#670,1.);
#76=VECTOR('',#671,1.);
#77=VECTOR('',#672,1.);
#78=VECTOR('',#673,1.);
#79=VECTOR('',#686,1.);
#80=VECTOR('',#687,1.);
#81=VECTOR('',#688,1.);
#82=VECTOR('',#689,1.);
#83=VECTOR('',#690,1.);
#84=VECTOR('',#691,1.);
#85=VECTOR('',#694,1.);
#86=VECTOR('',#695,1.);
#87=VECTOR('',#696,1.);
#88=VECTOR('',#697,1.);
#89=VECTOR('',#698,1.);
#90=VECTOR('',#699,1.);
#91=VECTOR('',#702,1.);
#92=VECTOR('',#703,1.);
#93=VECTOR('',#704,1.);
#94=VECTOR('',#739,1.);
#95=VECTOR('',#740,1.);
#96=VECTOR('',#751,1.);
#97=VECTOR('',#752,1.);
#98=VECTOR('',#755,1.);
#99=VECTOR('',#760,1.);
#100=VECTOR('',#763,1.);
#101=VECTOR('',#766,1.);
#102=VECTOR('',#769,1.);
#103=VECTOR('',#772,1.);
#104=VECTOR('',#779,1.);
#105=VECTOR('',#780,1.);
#106=VECTOR('',#783,1.);
#107=VECTOR('',#784,1.);
#108=VECTOR('',#787,1.);
#109=ORIENTED_EDGE('',*,*,#249,.F.);
#110=ORIENTED_EDGE('',*,*,#250,.F.);
#111=ORIENTED_EDGE('',*,*,#251,.T.);
#112=ORIENTED_EDGE('',*,*,#252,.T.);
#113=ORIENTED_EDGE('',*,*,#253,.F.);
#114=ORIENTED_EDGE('',*,*,#254,.F.);
#115=ORIENTED_EDGE('',*,*,#255,.F.);
#116=ORIENTED_EDGE('',*,*,#256,.F.);
#117=ORIENTED_EDGE('',*,*,#257,.F.);
#118=ORIENTED_EDGE('',*,*,#258,.F.);
#119=ORIENTED_EDGE('',*,*,#259,.F.);
#120=ORIENTED_EDGE('',*,*,#260,.T.);
#121=ORIENTED_EDGE('',*,*,#261,.F.);
#122=ORIENTED_EDGE('',*,*,#262,.F.);
#123=ORIENTED_EDGE('',*,*,#263,.T.);
#124=ORIENTED_EDGE('',*,*,#264,.T.);
#125=ORIENTED_EDGE('',*,*,#265,.T.);
#126=ORIENTED_EDGE('',*,*,#266,.F.);
#127=ORIENTED_EDGE('',*,*,#267,.F.);
#128=ORIENTED_EDGE('',*,*,#268,.F.);
#129=ORIENTED_EDGE('',*,*,#269,.F.);
#130=ORIENTED_EDGE('',*,*,#270,.F.);
#131=ORIENTED_EDGE('',*,*,#271,.T.);
#132=ORIENTED_EDGE('',*,*,#272,.T.);
#133=ORIENTED_EDGE('',*,*,#273,.T.);
#134=ORIENTED_EDGE('',*,*,#251,.F.);
#135=ORIENTED_EDGE('',*,*,#274,.T.);
#136=ORIENTED_EDGE('',*,*,#262,.T.);
#137=ORIENTED_EDGE('',*,*,#275,.F.);
#138=ORIENTED_EDGE('',*,*,#276,.T.);
#139=ORIENTED_EDGE('',*,*,#255,.T.);
#140=ORIENTED_EDGE('',*,*,#277,.F.);
#141=ORIENTED_EDGE('',*,*,#265,.F.);
#142=ORIENTED_EDGE('',*,*,#261,.T.);
#143=ORIENTED_EDGE('',*,*,#278,.T.);
#144=ORIENTED_EDGE('',*,*,#279,.F.);
#145=ORIENTED_EDGE('',*,*,#280,.T.);
#146=ORIENTED_EDGE('',*,*,#269,.T.);
#147=ORIENTED_EDGE('',*,*,#278,.F.);
#148=ORIENTED_EDGE('',*,*,#264,.F.);
#149=ORIENTED_EDGE('',*,*,#281,.T.);
#150=ORIENTED_EDGE('',*,*,#259,.T.);
#151=ORIENTED_EDGE('',*,*,#282,.F.);
#152=ORIENTED_EDGE('',*,*,#283,.T.);
#153=ORIENTED_EDGE('',*,*,#284,.F.);
#154=ORIENTED_EDGE('',*,*,#268,.T.);
#155=ORIENTED_EDGE('',*,*,#284,.T.);
#156=ORIENTED_EDGE('',*,*,#285,.F.);
#157=ORIENTED_EDGE('',*,*,#267,.T.);
#158=ORIENTED_EDGE('',*,*,#285,.T.);
#159=ORIENTED_EDGE('',*,*,#266,.T.);
#160=ORIENTED_EDGE('',*,*,#260,.F.);
#161=ORIENTED_EDGE('',*,*,#281,.F.);
#162=ORIENTED_EDGE('',*,*,#263,.F.);
#163=ORIENTED_EDGE('',*,*,#274,.F.);
#164=ORIENTED_EDGE('',*,*,#286,.T.);
#165=ORIENTED_EDGE('',*,*,#287,.T.);
#166=ORIENTED_EDGE('',*,*,#288,.F.);
#167=ORIENTED_EDGE('',*,*,#250,.T.);
#168=ORIENTED_EDGE('',*,*,#286,.F.);
#169=ORIENTED_EDGE('',*,*,#288,.T.);
#170=ORIENTED_EDGE('',*,*,#289,.F.);
#171=ORIENTED_EDGE('',*,*,#290,.T.);
#172=ORIENTED_EDGE('',*,*,#291,.F.);
#173=ORIENTED_EDGE('',*,*,#290,.F.);
#174=ORIENTED_EDGE('',*,*,#292,.F.);
#175=ORIENTED_EDGE('',*,*,#293,.T.);
#176=ORIENTED_EDGE('',*,*,#294,.F.);
#177=ORIENTED_EDGE('',*,*,#287,.F.);
#178=ORIENTED_EDGE('',*,*,#295,.F.);
#179=ORIENTED_EDGE('',*,*,#293,.F.);
#180=ORIENTED_EDGE('',*,*,#254,.T.);
#181=ORIENTED_EDGE('',*,*,#296,.F.);
#182=ORIENTED_EDGE('',*,*,#297,.F.);
#183=ORIENTED_EDGE('',*,*,#277,.T.);
#184=ORIENTED_EDGE('',*,*,#253,.T.);
#185=ORIENTED_EDGE('',*,*,#298,.F.);
#186=ORIENTED_EDGE('',*,*,#299,.F.);
#187=ORIENTED_EDGE('',*,*,#296,.T.);
#188=ORIENTED_EDGE('',*,*,#252,.F.);
#189=ORIENTED_EDGE('',*,*,#273,.F.);
#190=ORIENTED_EDGE('',*,*,#300,.T.);
#191=ORIENTED_EDGE('',*,*,#298,.T.);
#192=ORIENTED_EDGE('',*,*,#257,.T.);
#193=ORIENTED_EDGE('',*,*,#301,.F.);
#194=ORIENTED_EDGE('',*,*,#302,.F.);
#195=ORIENTED_EDGE('',*,*,#303,.T.);
#196=ORIENTED_EDGE('',*,*,#256,.T.);
#197=ORIENTED_EDGE('',*,*,#276,.F.);
#198=ORIENTED_EDGE('',*,*,#304,.F.);
#199=ORIENTED_EDGE('',*,*,#301,.T.);
#200=ORIENTED_EDGE('',*,*,#258,.T.);
#201=ORIENTED_EDGE('',*,*,#303,.F.);
#202=ORIENTED_EDGE('',*,*,#305,.F.);
#203=ORIENTED_EDGE('',*,*,#282,.T.);
#204=ORIENTED_EDGE('',*,*,#306,.T.);
#205=ORIENTED_EDGE('',*,*,#307,.T.);
#206=ORIENTED_EDGE('',*,*,#275,.T.);
#207=ORIENTED_EDGE('',*,*,#297,.T.);
#208=ORIENTED_EDGE('',*,*,#299,.T.);
#209=ORIENTED_EDGE('',*,*,#300,.F.);
#210=ORIENTED_EDGE('',*,*,#272,.F.);
#211=ORIENTED_EDGE('',*,*,#308,.F.);
#212=ORIENTED_EDGE('',*,*,#309,.T.);
#213=ORIENTED_EDGE('',*,*,#305,.T.);
#214=ORIENTED_EDGE('',*,*,#302,.T.);
#215=ORIENTED_EDGE('',*,*,#304,.T.);
#216=ORIENTED_EDGE('',*,*,#309,.F.);
#217=ORIENTED_EDGE('',*,*,#310,.F.);
#218=ORIENTED_EDGE('',*,*,#311,.T.);
#219=ORIENTED_EDGE('',*,*,#279,.T.);
#220=ORIENTED_EDGE('',*,*,#283,.F.);
#221=ORIENTED_EDGE('',*,*,#308,.T.);
#222=ORIENTED_EDGE('',*,*,#271,.F.);
#223=ORIENTED_EDGE('',*,*,#312,.F.);
#224=ORIENTED_EDGE('',*,*,#310,.T.);
#225=ORIENTED_EDGE('',*,*,#313,.F.);
#226=ORIENTED_EDGE('',*,*,#280,.F.);
#227=ORIENTED_EDGE('',*,*,#311,.F.);
#228=ORIENTED_EDGE('',*,*,#312,.T.);
#229=ORIENTED_EDGE('',*,*,#270,.T.);
#230=ORIENTED_EDGE('',*,*,#314,.F.);
#231=ORIENTED_EDGE('',*,*,#313,.T.);
#232=ORIENTED_EDGE('',*,*,#307,.F.);
#233=ORIENTED_EDGE('',*,*,#314,.T.);
#234=ORIENTED_EDGE('',*,*,#315,.F.);
#235=ORIENTED_EDGE('',*,*,#289,.T.);
#236=ORIENTED_EDGE('',*,*,#291,.T.);
#237=ORIENTED_EDGE('',*,*,#295,.T.);
#238=ORIENTED_EDGE('',*,*,#294,.T.);
#239=ORIENTED_EDGE('',*,*,#292,.T.);
#240=ORIENTED_EDGE('',*,*,#316,.F.);
#241=ORIENTED_EDGE('',*,*,#316,.T.);
#242=ORIENTED_EDGE('',*,*,#249,.T.);
#243=ORIENTED_EDGE('',*,*,#317,.F.);
#244=ORIENTED_EDGE('',*,*,#317,.T.);
#245=ORIENTED_EDGE('',*,*,#318,.T.);
#246=ORIENTED_EDGE('',*,*,#306,.F.);
#247=ORIENTED_EDGE('',*,*,#315,.T.);
#248=ORIENTED_EDGE('',*,*,#318,.F.);
#249=EDGE_CURVE('',#319,#319,#371,.T.);
#250=EDGE_CURVE('',#320,#320,#372,.T.);
#251=EDGE_CURVE('',#321,#322,#25,.T.);
#252=EDGE_CURVE('',#322,#323,#26,.T.);
#253=EDGE_CURVE('',#324,#323,#373,.T.);
#254=EDGE_CURVE('',#325,#324,#27,.T.);
#255=EDGE_CURVE('',#326,#325,#28,.T.);
#256=EDGE_CURVE('',#327,#326,#29,.T.);
#257=EDGE_CURVE('',#328,#327,#374,.T.);
#258=EDGE_CURVE('',#329,#328,#30,.T.);
#259=EDGE_CURVE('',#330,#329,#31,.T.);
#260=EDGE_CURVE('',#330,#321,#32,.T.);
#261=EDGE_CURVE('',#331,#332,#33,.T.);
#262=EDGE_CURVE('',#333,#331,#34,.T.);
#263=EDGE_CURVE('',#333,#334,#35,.T.);
#264=EDGE_CURVE('',#334,#332,#36,.T.);
#265=EDGE_CURVE('',#335,#335,#375,.T.);
#266=EDGE_CURVE('',#336,#336,#376,.T.);
#267=EDGE_CURVE('',#337,#337,#377,.T.);
#268=EDGE_CURVE('',#338,#338,#378,.T.);
#269=EDGE_CURVE('',#339,#331,#37,.T.);
#270=EDGE_CURVE('',#340,#339,#38,.T.);
#271=EDGE_CURVE('',#340,#341,#39,.T.);
#272=EDGE_CURVE('',#341,#342,#40,.T.);
#273=EDGE_CURVE('',#342,#322,#41,.T.);
#274=EDGE_CURVE('',#321,#333,#42,.T.);
#275=EDGE_CURVE('',#343,#344,#43,.T.);
#276=EDGE_CURVE('',#343,#326,#44,.T.);
#277=EDGE_CURVE('',#344,#325,#45,.T.);
#278=EDGE_CURVE('',#332,#345,#46,.T.);
#279=EDGE_CURVE('',#346,#345,#47,.T.);
#280=EDGE_CURVE('',#346,#339,#48,.T.);
#281=EDGE_CURVE('',#334,#330,#49,.T.);
#282=EDGE_CURVE('',#347,#329,#50,.T.);
#283=EDGE_CURVE('',#347,#345,#51,.T.);
#284=EDGE_CURVE('',#348,#348,#379,.T.);
#285=EDGE_CURVE('',#349,#349,#380,.T.);
#286=EDGE_CURVE('',#350,#350,#381,.T.);
#287=EDGE_CURVE('',#351,#351,#382,.F.);
#288=EDGE_CURVE('',#352,#352,#383,.T.);
#289=EDGE_CURVE('',#353,#354,#384,.T.);
#290=EDGE_CURVE('',#353,#354,#385,.T.);
#291=EDGE_CURVE('',#354,#355,#52,.T.);
#292=EDGE_CURVE('',#356,#353,#53,.F.);
#293=EDGE_CURVE('',#356,#355,#386,.T.);
#294=EDGE_CURVE('',#351,#356,#387,.T.);
#295=EDGE_CURVE('',#355,#351,#388,.T.);
#296=EDGE_CURVE('',#357,#324,#54,.T.);
#297=EDGE_CURVE('',#344,#357,#55,.T.);
#298=EDGE_CURVE('',#358,#323,#56,.T.);
#299=EDGE_CURVE('',#357,#358,#389,.T.);
#300=EDGE_CURVE('',#342,#358,#57,.T.);
#301=EDGE_CURVE('',#359,#327,#58,.T.);
#302=EDGE_CURVE('',#360,#359,#390,.T.);
#303=EDGE_CURVE('',#360,#328,#59,.T.);
#304=EDGE_CURVE('',#359,#343,#60,.T.);
#305=EDGE_CURVE('',#347,#360,#61,.T.);
#306=EDGE_CURVE('',#361,#361,#391,.T.);
#307=EDGE_CURVE('',#362,#362,#392,.T.);
#308=EDGE_CURVE('',#363,#341,#62,.T.);
#309=EDGE_CURVE('',#363,#347,#63,.T.);
#310=EDGE_CURVE('',#364,#363,#64,.T.);
#311=EDGE_CURVE('',#364,#346,#65,.T.);
#312=EDGE_CURVE('',#364,#340,#66,.T.);
#313=EDGE_CURVE('',#365,#365,#393,.T.);
#314=EDGE_CURVE('',#366,#366,#394,.T.);
#315=EDGE_CURVE('',#367,#367,#395,.T.);
#316=EDGE_CURVE('',#368,#368,#396,.T.);
#317=EDGE_CURVE('',#369,#369,#397,.T.);
#318=EDGE_CURVE('',#370,#370,#398,.T.);
#319=VERTEX_POINT('',#821);
#320=VERTEX_POINT('',#823);
#321=VERTEX_POINT('',#825);
#322=VERTEX_POINT('',#826);
#323=VERTEX_POINT('',#828);
#324=VERTEX_POINT('',#830);
#325=VERTEX_POINT('',#832);
#326=VERTEX_POINT('',#834);
#327=VERTEX_POINT('',#836);
#328=VERTEX_POINT('',#838);
#329=VERTEX_POINT('',#840);
#330=VERTEX_POINT('',#842);
#331=VERTEX_POINT('',#846);
#332=VERTEX_POINT('',#847);
#333=VERTEX_POINT('',#849);
#334=VERTEX_POINT('',#851);
#335=VERTEX_POINT('',#855);
#336=VERTEX_POINT('',#857);
#337=VERTEX_POINT('',#860);
#338=VERTEX_POINT('',#862);
#339=VERTEX_POINT('',#864);
#340=VERTEX_POINT('',#866);
#341=VERTEX_POINT('',#868);
#342=VERTEX_POINT('',#870);
#343=VERTEX_POINT('',#875);
#344=VERTEX_POINT('',#876);
#345=VERTEX_POINT('',#880);
#346=VERTEX_POINT('',#882);
#347=VERTEX_POINT('',#887);
#348=VERTEX_POINT('',#891);
#349=VERTEX_POINT('',#895);
#350=VERTEX_POINT('',#900);
#351=VERTEX_POINT('',#902);
#352=VERTEX_POINT('',#905);
#353=VERTEX_POINT('',#909);
#354=VERTEX_POINT('',#910);
#355=VERTEX_POINT('',#914);
#356=VERTEX_POINT('',#916);
#357=VERTEX_POINT('',#923);
#358=VERTEX_POINT('',#927);
#359=VERTEX_POINT('',#933);
#360=VERTEX_POINT('',#935);
#361=VERTEX_POINT('',#943);
#362=VERTEX_POINT('',#945);
#363=VERTEX_POINT('',#947);
#364=VERTEX_POINT('',#951);
#365=VERTEX_POINT('',#957);
#366=VERTEX_POINT('',#959);
#367=VERTEX_POINT('',#963);
#368=VERTEX_POINT('',#966);
#369=VERTEX_POINT('',#970);
#370=VERTEX_POINT('',#974);
#371=CIRCLE('',#586,0.0015);
#372=CIRCLE('',#587,0.005);
#373=CIRCLE('',#588,0.00265563491861033);
#374=CIRCLE('',#589,0.00265563491861036);
#375=CIRCLE('',#592,0.00775);
#376=CIRCLE('',#593,0.00775);
#377=CIRCLE('',#595,0.004);
#378=CIRCLE('',#596,0.004);
#379=CIRCLE('',#600,0.004);
#380=CIRCLE('',#603,0.004);
#381=CIRCLE('',#607,0.0025);
#382=CIRCLE('',#608,0.0025);
#383=CIRCLE('',#610,0.005);
#384=CIRCLE('',#613,0.0015);
#385=CIRCLE('',#614,0.0015);
#386=CIRCLE('',#616,0.0015);
#387=CIRCLE('',#618,0.0015);
#388=CIRCLE('',#619,0.0015);
#389=CIRCLE('',#622,0.00265563491861033);
#390=CIRCLE('',#625,0.00265563491861036);
#391=CIRCLE('',#629,0.005);
#392=CIRCLE('',#630,0.0015);
#393=CIRCLE('',#634,0.0015);
#394=CIRCLE('',#635,0.0015);
#395=CIRCLE('',#638,0.0015);
#396=CIRCLE('',#640,0.0015);
#397=CIRCLE('',#643,0.0015);
#398=CIRCLE('',#646,0.005);
#399=EDGE_LOOP('',(#109));
#400=EDGE_LOOP('',(#110));
#401=EDGE_LOOP('',(#111,#112,#113,#114,#115,#116,#117,#118,#119,#120));
#402=EDGE_LOOP('',(#121,#122,#123,#124));
#403=EDGE_LOOP('',(#125));
#404=EDGE_LOOP('',(#126));
#405=EDGE_LOOP('',(#127));
#406=EDGE_LOOP('',(#128));
#407=EDGE_LOOP('',(#129,#130,#131,#132,#133,#134,#135,#136));
#408=EDGE_LOOP('',(#137,#138,#139,#140));
#409=EDGE_LOOP('',(#141));
#410=EDGE_LOOP('',(#142,#143,#144,#145,#146));
#411=EDGE_LOOP('',(#147,#148,#149,#150,#151,#152));
#412=EDGE_LOOP('',(#153));
#413=EDGE_LOOP('',(#154));
#414=EDGE_LOOP('',(#155));
#415=EDGE_LOOP('',(#156));
#416=EDGE_LOOP('',(#157));
#417=EDGE_LOOP('',(#158));
#418=EDGE_LOOP('',(#159));
#419=EDGE_LOOP('',(#160,#161,#162,#163));
#420=EDGE_LOOP('',(#164));
#421=EDGE_LOOP('',(#165));
#422=EDGE_LOOP('',(#166));
#423=EDGE_LOOP('',(#167));
#424=EDGE_LOOP('',(#168));
#425=EDGE_LOOP('',(#169));
#426=EDGE_LOOP('',(#170,#171));
#427=EDGE_LOOP('',(#172,#173,#174,#175));
#428=EDGE_LOOP('',(#176,#177,#178,#179));
#429=EDGE_LOOP('',(#180,#181,#182,#183));
#430=EDGE_LOOP('',(#184,#185,#186,#187));
#431=EDGE_LOOP('',(#188,#189,#190,#191));
#432=EDGE_LOOP('',(#192,#193,#194,#195));
#433=EDGE_LOOP('',(#196,#197,#198,#199));
#434=EDGE_LOOP('',(#200,#201,#202,#203));
#435=EDGE_LOOP('',(#204));
#436=EDGE_LOOP('',(#205));
#437=EDGE_LOOP('',(#206,#207,#208,#209,#210,#211,#212,#213,#214,#215));
#438=EDGE_LOOP('',(#216,#217,#218,#219,#220));
#439=EDGE_LOOP('',(#221,#222,#223,#224));
#440=EDGE_LOOP('',(#225));
#441=EDGE_LOOP('',(#226,#227,#228,#229));
#442=EDGE_LOOP('',(#230));
#443=EDGE_LOOP('',(#231));
#444=EDGE_LOOP('',(#232));
#445=EDGE_LOOP('',(#233));
#446=EDGE_LOOP('',(#234));
#447=EDGE_LOOP('',(#235,#236,#237,#238,#239));
#448=EDGE_LOOP('',(#240));
#449=EDGE_LOOP('',(#241));
#450=EDGE_LOOP('',(#242));
#451=EDGE_LOOP('',(#243));
#452=EDGE_LOOP('',(#244));
#453=EDGE_LOOP('',(#245));
#454=EDGE_LOOP('',(#246));
#455=EDGE_LOOP('',(#247));
#456=EDGE_LOOP('',(#248));
#457=FACE_BOUND('',#399,.T.);
#458=FACE_BOUND('',#400,.T.);
#459=FACE_BOUND('',#401,.T.);
#460=FACE_BOUND('',#402,.T.);
#461=FACE_BOUND('',#403,.T.);
#462=FACE_BOUND('',#404,.T.);
#463=FACE_BOUND('',#405,.T.);
#464=FACE_BOUND('',#406,.T.);
#465=FACE_BOUND('',#407,.T.);
#466=FACE_BOUND('',#408,.T.);
#467=FACE_BOUND('',#409,.T.);
#468=FACE_BOUND('',#410,.T.);
#469=FACE_BOUND('',#411,.T.);
#470=FACE_BOUND('',#412,.T.);
#471=FACE_BOUND('',#413,.T.);
#472=FACE_BOUND('',#414,.T.);
#473=FACE_BOUND('',#415,.T.);
#474=FACE_BOUND('',#416,.T.);
#475=FACE_BOUND('',#417,.T.);
#476=FACE_BOUND('',#418,.T.);
#477=FACE_BOUND('',#419,.T.);
#478=FACE_BOUND('',#420,.T.);
#479=FACE_BOUND('',#421,.T.);
#480=FACE_BOUND('',#422,.T.);
#481=FACE_BOUND('',#423,.T.);
#482=FACE_BOUND('',#424,.T.);
#483=FACE_BOUND('',#425,.T.);
#484=FACE_BOUND('',#426,.T.);
#485=FACE_BOUND('',#427,.T.);
#486=FACE_BOUND('',#428,.T.);
#487=FACE_BOUND('',#429,.T.);
#488=FACE_BOUND('',#430,.T.);
#489=FACE_BOUND('',#431,.T.);
#490=FACE_BOUND('',#432,.T.);
#491=FACE_BOUND('',#433,.T.);
#492=FACE_BOUND('',#434,.T.);
#493=FACE_BOUND('',#435,.T.);
#494=FACE_BOUND('',#436,.T.);
#495=FACE_BOUND('',#437,.T.);
#496=FACE_BOUND('',#438,.T.);
#497=FACE_BOUND('',#439,.T.);
#498=FACE_BOUND('',#440,.T.);
#499=FACE_BOUND('',#441,.T.);
#500=FACE_BOUND('',#442,.T.);
#501=FACE_BOUND('',#443,.T.);
#502=FACE_BOUND('',#444,.T.);
#503=FACE_BOUND('',#445,.T.);
#504=FACE_BOUND('',#446,.T.);
#505=FACE_BOUND('',#447,.T.);
#506=FACE_BOUND('',#448,.T.);
#507=FACE_BOUND('',#449,.T.);
#508=FACE_BOUND('',#450,.T.);
#509=FACE_BOUND('',#451,.T.);
#510=FACE_BOUND('',#452,.T.);
#511=FACE_BOUND('',#453,.T.);
#512=FACE_BOUND('',#454,.T.);
#513=FACE_BOUND('',#455,.T.);
#514=FACE_BOUND('',#456,.T.);
#515=PLANE('',#585);
#516=PLANE('',#590);
#517=PLANE('',#594);
#518=PLANE('',#597);
#519=PLANE('',#598);
#520=PLANE('',#601);
#521=PLANE('',#604);
#522=PLANE('',#605);
#523=PLANE('',#611);
#524=PLANE('',#612);
#525=PLANE('',#617);
#526=PLANE('',#620);
#527=PLANE('',#623);
#528=PLANE('',#626);
#529=PLANE('',#627);
#530=PLANE('',#628);
#531=PLANE('',#631);
#532=PLANE('',#632);
#533=PLANE('',#633);
#534=PLANE('',#641);
#535=PLANE('',#644);
#536=PLANE('',#647);
#537=ADVANCED_FACE('',(#457,#458,#459),#515,.T.);
#538=ADVANCED_FACE('',(#460),#516,.T.);
#539=ADVANCED_FACE('',(#461,#462),#12,.F.);
#540=ADVANCED_FACE('',(#463,#464,#465),#517,.T.);
#541=ADVANCED_FACE('',(#466,#467,#468),#518,.T.);
#542=ADVANCED_FACE('',(#469),#519,.T.);
#543=ADVANCED_FACE('',(#470,#471),#13,.F.);
#544=ADVANCED_FACE('',(#472),#520,.T.);
#545=ADVANCED_FACE('',(#473,#474),#14,.F.);
#546=ADVANCED_FACE('',(#475),#521,.T.);
#547=ADVANCED_FACE('',(#476,#477),#522,.T.);
#548=ADVANCED_FACE('',(#478,#479),#15,.F.);
#549=ADVANCED_FACE('',(#480,#481),#16,.T.);
#550=ADVANCED_FACE('',(#482,#483),#523,.T.);
#551=ADVANCED_FACE('',(#484),#524,.T.);
#552=ADVANCED_FACE('',(#485),#17,.F.);
#553=ADVANCED_FACE('',(#486),#525,.T.);
#554=ADVANCED_FACE('',(#487),#526,.F.);
#555=ADVANCED_FACE('',(#488),#18,.T.);
#556=ADVANCED_FACE('',(#489),#527,.T.);
#557=ADVANCED_FACE('',(#490),#19,.T.);
#558=ADVANCED_FACE('',(#491),#528,.F.);
#559=ADVANCED_FACE('',(#492),#529,.F.);
#560=ADVANCED_FACE('',(#493,#494,#495),#530,.F.);
#561=ADVANCED_FACE('',(#496),#531,.T.);
#562=ADVANCED_FACE('',(#497),#532,.F.);
#563=ADVANCED_FACE('',(#498,#499,#500),#533,.T.);
#564=ADVANCED_FACE('',(#501,#502),#20,.F.);
#565=ADVANCED_FACE('',(#503,#504),#21,.F.);
#566=ADVANCED_FACE('',(#505,#506),#22,.F.);
#567=ADVANCED_FACE('',(#507),#534,.T.);
#568=ADVANCED_FACE('',(#508,#509),#23,.F.);
#569=ADVANCED_FACE('',(#510),#535,.T.);
#570=ADVANCED_FACE('',(#511,#512),#24,.T.);
#571=ADVANCED_FACE('',(#513,#514),#536,.F.);
#572=CLOSED_SHELL('',(#537,#538,#539,#540,#541,#542,#543,#544,#545,#546,
#547,#548,#549,#550,#551,#552,#553,#554,#555,#556,#557,#558,#559,#560,#561,
#562,#563,#564,#565,#566,#567,#568,#569,#570,#571));
#573=STYLED_ITEM('',(#574),#581);
#574=PRESENTATION_STYLE_ASSIGNMENT((#575));
#575=SURFACE_STYLE_USAGE(.BOTH.,#576);
#576=SURFACE_SIDE_STYLE('',(#577));
#577=SURFACE_STYLE_FILL_AREA(#578);
#578=FILL_AREA_STYLE('',(#579));
#579=FILL_AREA_STYLE_COLOUR('',#580);
#580=COLOUR_RGB('',0.615686274509804,0.811764705882353,0.929411764705882);
#581=MANIFOLD_SOLID_BREP('Left XY',#572);
#582=SHAPE_DEFINITION_REPRESENTATION(#982,#583);
#583=SHAPE_REPRESENTATION('Left XY',(#584),#977);
#584=AXIS2_PLACEMENT_3D('',#818,#648,#649);
#585=AXIS2_PLACEMENT_3D('',#819,#650,#651);
#586=AXIS2_PLACEMENT_3D('',#820,#652,#653);
#587=AXIS2_PLACEMENT_3D('',#822,#654,#655);
#588=AXIS2_PLACEMENT_3D('',#829,#658,#659);
#589=AXIS2_PLACEMENT_3D('',#837,#663,#664);
#590=AXIS2_PLACEMENT_3D('',#844,#668,#669);
#591=AXIS2_PLACEMENT_3D('',#853,#674,#675);
#592=AXIS2_PLACEMENT_3D('',#854,#676,#677);
#593=AXIS2_PLACEMENT_3D('',#856,#678,#679);
#594=AXIS2_PLACEMENT_3D('',#858,#680,#681);
#595=AXIS2_PLACEMENT_3D('',#859,#682,#683);
#596=AXIS2_PLACEMENT_3D('',#861,#684,#685);
#597=AXIS2_PLACEMENT_3D('',#873,#692,#693);
#598=AXIS2_PLACEMENT_3D('',#884,#700,#701);
#599=AXIS2_PLACEMENT_3D('',#889,#705,#706);
#600=AXIS2_PLACEMENT_3D('',#890,#707,#708);
#601=AXIS2_PLACEMENT_3D('',#892,#709,#710);
#602=AXIS2_PLACEMENT_3D('',#893,#711,#712);
#603=AXIS2_PLACEMENT_3D('',#894,#713,#714);
#604=AXIS2_PLACEMENT_3D('',#896,#715,#716);
#605=AXIS2_PLACEMENT_3D('',#897,#717,#718);
#606=AXIS2_PLACEMENT_3D('',#898,#719,#720);
#607=AXIS2_PLACEMENT_3D('',#899,#721,#722);
#608=AXIS2_PLACEMENT_3D('',#901,#723,#724);
#609=AXIS2_PLACEMENT_3D('',#903,#725,#726);
#610=AXIS2_PLACEMENT_3D('',#904,#727,#728);
#611=AXIS2_PLACEMENT_3D('',#906,#729,#730);
#612=AXIS2_PLACEMENT_3D('',#907,#731,#732);
#613=AXIS2_PLACEMENT_3D('',#908,#733,#734);
#614=AXIS2_PLACEMENT_3D('',#911,#735,#736);
#615=AXIS2_PLACEMENT_3D('',#912,#737,#738);
#616=AXIS2_PLACEMENT_3D('',#917,#741,#742);
#617=AXIS2_PLACEMENT_3D('',#918,#743,#744);
#618=AXIS2_PLACEMENT_3D('',#919,#745,#746);
#619=AXIS2_PLACEMENT_3D('',#920,#747,#748);
#620=AXIS2_PLACEMENT_3D('',#921,#749,#750);
#621=AXIS2_PLACEMENT_3D('',#925,#753,#754);
#622=AXIS2_PLACEMENT_3D('',#928,#756,#757);
#623=AXIS2_PLACEMENT_3D('',#929,#758,#759);
#624=AXIS2_PLACEMENT_3D('',#931,#761,#762);
#625=AXIS2_PLACEMENT_3D('',#934,#764,#765);
#626=AXIS2_PLACEMENT_3D('',#937,#767,#768);
#627=AXIS2_PLACEMENT_3D('',#939,#770,#771);
#628=AXIS2_PLACEMENT_3D('',#941,#773,#774);
#629=AXIS2_PLACEMENT_3D('',#942,#775,#776);
#630=AXIS2_PLACEMENT_3D('',#944,#777,#778);
#631=AXIS2_PLACEMENT_3D('',#949,#781,#782);
#632=AXIS2_PLACEMENT_3D('',#953,#785,#786);
#633=AXIS2_PLACEMENT_3D('',#955,#788,#789);
#634=AXIS2_PLACEMENT_3D('',#956,#790,#791);
#635=AXIS2_PLACEMENT_3D('',#958,#792,#793);
#636=AXIS2_PLACEMENT_3D('',#960,#794,#795);
#637=AXIS2_PLACEMENT_3D('',#961,#796,#797);
#638=AXIS2_PLACEMENT_3D('',#962,#798,#799);
#639=AXIS2_PLACEMENT_3D('',#964,#800,#801);
#640=AXIS2_PLACEMENT_3D('',#965,#802,#803);
#641=AXIS2_PLACEMENT_3D('',#967,#804,#805);
#642=AXIS2_PLACEMENT_3D('',#968,#806,#807);
#643=AXIS2_PLACEMENT_3D('',#969,#808,#809);
#644=AXIS2_PLACEMENT_3D('',#971,#810,#811);
#645=AXIS2_PLACEMENT_3D('',#972,#812,#813);
#646=AXIS2_PLACEMENT_3D('',#973,#814,#815);
#647=AXIS2_PLACEMENT_3D('',#975,#816,#817);
#648=DIRECTION('',(0.,0.,1.));
#649=DIRECTION('',(1.,0.,0.));
#650=DIRECTION('',(0.,9.58084579867446E-17,1.));
#651=DIRECTION('',(0.,-1.,9.58084579867446E-17));
#652=DIRECTION('',(0.,9.58084579867446E-17,1.));
#653=DIRECTION('',(0.,-1.,9.58084579867446E-17));
#654=DIRECTION('',(0.,9.58084579867446E-17,1.));
#655=DIRECTION('',(0.,-1.,9.58084579867446E-17));
#656=DIRECTION('',(1.,0.,0.));
#657=DIRECTION('',(-2.36197881879884E-16,1.,-9.58084579867446E-17));
#658=DIRECTION('',(0.,9.58084579867446E-17,1.));
#659=DIRECTION('',(0.,-1.,9.58084579867446E-17));
#660=DIRECTION('',(-1.,0.,0.));
#661=DIRECTION('',(0.,-1.,9.58084579867446E-17));
#662=DIRECTION('',(1.,0.,0.));
#663=DIRECTION('',(0.,9.58084579867446E-17,1.));
#664=DIRECTION('',(0.,-1.,9.58084579867446E-17));
#665=DIRECTION('',(0.,-1.,9.58084579867446E-17));
#666=DIRECTION('',(1.,0.,0.));
#667=DIRECTION('',(0.,-1.,9.58084579867446E-17));
#668=DIRECTION('',(0.,0.,-1.));
#669=DIRECTION('',(-1.,0.,0.));
#670=DIRECTION('',(0.,1.,0.));
#671=DIRECTION('',(1.,0.,0.));
#672=DIRECTION('',(0.,1.,0.));
#673=DIRECTION('',(1.,0.,0.));
#674=DIRECTION('',(1.,0.,0.));
#675=DIRECTION('',(0.,0.,-1.));
#676=DIRECTION('',(1.,0.,0.));
#677=DIRECTION('',(0.,0.,-1.));
#678=DIRECTION('',(1.,0.,0.));
#679=DIRECTION('',(0.,0.,-1.));
#680=DIRECTION('',(0.,-1.,0.));
#681=DIRECTION('',(0.,0.,-1.));
#682=DIRECTION('',(0.,-1.,0.));
#683=DIRECTION('',(0.,0.,-1.));
#684=DIRECTION('',(0.,-1.,0.));
#685=DIRECTION('',(0.,0.,-1.));
#686=DIRECTION('',(0.,0.,-1.));
#687=DIRECTION('',(1.,0.,0.));
#688=DIRECTION('',(0.,-9.58084579867446E-17,-1.));
#689=DIRECTION('',(1.,0.,0.));
#690=DIRECTION('',(0.,-9.58084579867446E-17,-1.));
#691=DIRECTION('',(0.,0.,-1.));
#692=DIRECTION('',(1.,0.,0.));
#693=DIRECTION('',(0.,1.,0.));
#694=DIRECTION('',(0.,-1.,9.58084579867446E-17));
#695=DIRECTION('',(0.,-9.58084579867446E-17,-1.));
#696=DIRECTION('',(0.,-9.58084579867446E-17,-1.));
#697=DIRECTION('',(0.,0.,1.));
#698=DIRECTION('',(0.,-9.58084579867446E-17,-1.));
#699=DIRECTION('',(0.,-1.,9.58084579867446E-17));
#700=DIRECTION('',(0.,1.,0.));
#701=DIRECTION('',(0.,0.,1.));
#702=DIRECTION('',(0.,0.,1.));
#703=DIRECTION('',(0.,-9.58084579867446E-17,-1.));
#704=DIRECTION('',(1.,0.,0.));
#705=DIRECTION('',(0.,-1.,0.));
#706=DIRECTION('',(0.,0.,-1.));
#707=DIRECTION('',(0.,-1.,0.));
#708=DIRECTION('',(0.,0.,-1.));
#709=DIRECTION('',(0.,-1.,0.));
#710=DIRECTION('',(1.,0.,0.));
#711=DIRECTION('',(0.,-1.,0.));
#712=DIRECTION('',(0.,0.,-1.));
#713=DIRECTION('',(0.,-1.,0.));
#714=DIRECTION('',(0.,0.,-1.));
#715=DIRECTION('',(0.,-1.,0.));
#716=DIRECTION('',(1.,0.,0.));
#717=DIRECTION('',(-1.,0.,0.));
#718=DIRECTION('',(0.,-1.,0.));
#719=DIRECTION('',(0.,-9.58084579867446E-17,-1.));
#720=DIRECTION('',(0.,1.,-9.58084579867446E-17));
#721=DIRECTION('',(0.,9.58084579867446E-17,1.));
#722=DIRECTION('',(0.,-1.,9.58084579867446E-17));
#723=DIRECTION('',(0.,9.58084579867446E-17,1.));
#724=DIRECTION('',(0.,-1.,9.58084579867446E-17));
#725=DIRECTION('',(0.,-9.58084579867446E-17,-1.));
#726=DIRECTION('',(0.,1.,-9.58084579867446E-17));
#727=DIRECTION('',(0.,9.58084579867446E-17,1.));
#728=DIRECTION('',(0.,-1.,9.58084579867446E-17));
#729=DIRECTION('',(0.,9.58084579867446E-17,1.));
#730=DIRECTION('',(1.,0.,0.));
#731=DIRECTION('',(0.,9.58084579867446E-17,1.));
#732=DIRECTION('',(0.,-1.,9.58084579867446E-17));
#733=DIRECTION('',(0.,9.58084579867446E-17,1.));
#734=DIRECTION('',(0.,-1.,9.58084579867446E-17));
#735=DIRECTION('',(0.,9.58084579867446E-17,1.));
#736=DIRECTION('',(0.,-1.,9.58084579867446E-17));
#737=DIRECTION('',(0.,-9.58084579867446E-17,-1.));
#738=DIRECTION('',(0.,1.,-9.58084579867446E-17));
#739=DIRECTION('',(0.,9.58084579867446E-17,1.));
#740=DIRECTION('',(0.,9.58084579867446E-17,1.));
#741=DIRECTION('',(0.,9.58084579867446E-17,1.));
#742=DIRECTION('',(0.,-1.,9.58084579867446E-17));
#743=DIRECTION('',(0.,9.58084579867446E-17,1.));
#744=DIRECTION('',(1.,0.,0.));
#745=DIRECTION('',(0.,9.58084579867446E-17,1.));
#746=DIRECTION('',(0.,-1.,9.58084579867446E-17));
#747=DIRECTION('',(0.,9.58084579867446E-17,1.));
#748=DIRECTION('',(0.,-1.,9.58084579867446E-17));
#749=DIRECTION('',(0.,-1.,9.58084579867446E-17));
#750=DIRECTION('',(0.,-9.58084579867446E-17,-1.));
#751=DIRECTION('',(0.,-9.58084579867446E-17,-1.));
#752=DIRECTION('',(-1.,0.,0.));
#753=DIRECTION('',(0.,-9.58084579867446E-17,-1.));
#754=DIRECTION('',(0.,1.,-9.58084579867446E-17));
#755=DIRECTION('',(0.,-9.58084579867446E-17,-1.));
#756=DIRECTION('',(0.,9.58084579867446E-17,1.));
#757=DIRECTION('',(0.,-1.,9.58084579867446E-17));
#758=DIRECTION('',(-1.,-2.36197881879884E-16,2.2629754842647E-32));
#759=DIRECTION('',(2.36197881879884E-16,-1.,0.));
#760=DIRECTION('',(-2.36197881879884E-16,1.,-9.58084579867446E-17));
#761=DIRECTION('',(0.,-9.58084579867446E-17,-1.));
#762=DIRECTION('',(0.,1.,-9.58084579867446E-17));
#763=DIRECTION('',(0.,-9.58084579867446E-17,-1.));
#764=DIRECTION('',(0.,9.58084579867446E-17,1.));
#765=DIRECTION('',(0.,-1.,9.58084579867446E-17));
#766=DIRECTION('',(0.,-9.58084579867446E-17,-1.));
#767=DIRECTION('',(0.,1.,-9.58084579867446E-17));
#768=DIRECTION('',(0.,9.58084579867446E-17,1.));
#769=DIRECTION('',(1.,0.,0.));
#770=DIRECTION('',(1.,0.,0.));
#771=DIRECTION('',(0.,0.,-1.));
#772=DIRECTION('',(0.,-1.,9.58084579867446E-17));
#773=DIRECTION('',(0.,9.58084579867446E-17,1.));
#774=DIRECTION('',(1.,0.,0.));
#775=DIRECTION('',(0.,9.58084579867446E-17,1.));
#776=DIRECTION('',(0.,-1.,9.58084579867446E-17));
#777=DIRECTION('',(0.,9.58084579867446E-17,1.));
#778=DIRECTION('',(0.,-1.,9.58084579867446E-17));
#779=DIRECTION('',(0.,-1.,9.58084579867446E-17));
#780=DIRECTION('',(1.,0.,0.));
#781=DIRECTION('',(0.,1.,-9.58084579867446E-17));
#782=DIRECTION('',(0.,9.58084579867446E-17,1.));
#783=DIRECTION('',(0.,-9.58084579867446E-17,-1.));
#784=DIRECTION('',(1.,0.,0.));
#785=DIRECTION('',(1.,0.,0.));
#786=DIRECTION('',(0.,0.,-1.));
#787=DIRECTION('',(0.,-1.,9.58084579867446E-17));
#788=DIRECTION('',(0.,9.58084579867446E-17,1.));
#789=DIRECTION('',(1.,0.,0.));
#790=DIRECTION('',(0.,9.58084579867446E-17,1.));
#791=DIRECTION('',(0.,-1.,9.58084579867446E-17));
#792=DIRECTION('',(0.,9.58084579867446E-17,1.));
#793=DIRECTION('',(0.,-1.,9.58084579867446E-17));
#794=DIRECTION('',(0.,9.58084579867446E-17,1.));
#795=DIRECTION('',(0.,-1.,9.58084579867446E-17));
#796=DIRECTION('',(0.,9.58084579867446E-17,1.));
#797=DIRECTION('',(0.,-1.,9.58084579867446E-17));
#798=DIRECTION('',(0.,9.58084579867446E-17,1.));
#799=DIRECTION('',(0.,-1.,9.58084579867446E-17));
#800=DIRECTION('',(0.,9.58084579867446E-17,1.));
#801=DIRECTION('',(0.,-1.,9.58084579867446E-17));
#802=DIRECTION('',(0.,9.58084579867446E-17,1.));
#803=DIRECTION('',(0.,-1.,9.58084579867446E-17));
#804=DIRECTION('',(0.,9.58084579867446E-17,1.));
#805=DIRECTION('',(1.,0.,0.));
#806=DIRECTION('',(0.,9.58084579867446E-17,1.));
#807=DIRECTION('',(0.,-1.,9.58084579867446E-17));
#808=DIRECTION('',(0.,9.58084579867446E-17,1.));
#809=DIRECTION('',(0.,-1.,9.58084579867446E-17));
#810=DIRECTION('',(0.,9.58084579867446E-17,1.));
#811=DIRECTION('',(1.,0.,0.));
#812=DIRECTION('',(0.,9.58084579867446E-17,1.));
#813=DIRECTION('',(0.,-1.,9.58084579867446E-17));
#814=DIRECTION('',(0.,9.58084579867446E-17,1.));
#815=DIRECTION('',(0.,-1.,9.58084579867446E-17));
#816=DIRECTION('',(0.,9.58084579867446E-17,1.));
#817=DIRECTION('',(1.,0.,0.));
#818=CARTESIAN_POINT('',(0.,0.,0.));
#819=CARTESIAN_POINT('',(-0.00427650231122971,-0.20509685575962,0.0340530806175916));
#820=CARTESIAN_POINT('',(-0.0162764260619879,-0.199043704748153,0.0340530806175916));
#821=CARTESIAN_POINT('',(-0.0162764260619879,-0.200543704748154,0.0340530806175916));
#822=CARTESIAN_POINT('',(-0.000276502311229706,-0.206149936836329,0.0340530806175916));
#823=CARTESIAN_POINT('',(-0.000276502311229706,-0.211149936836329,0.0340530806175916));
#824=CARTESIAN_POINT('',(-0.00427650231122971,-0.214149936836329,0.0340530806175915));
#825=CARTESIAN_POINT('',(-0.0242765023112297,-0.214149936836329,0.0340530806175915));
#826=CARTESIAN_POINT('',(0.0127234976887703,-0.214149936836329,0.0340530806175916));
#827=CARTESIAN_POINT('',(0.0127234976887703,-0.210477754295634,0.0340530806175916));
#828=CARTESIAN_POINT('',(0.0127234976887703,-0.206805571754939,0.0340530806175916));
#829=CARTESIAN_POINT('',(0.0153791326073806,-0.206805571754939,0.0340530806175916));
#830=CARTESIAN_POINT('',(0.0153791326073807,-0.204149936836329,0.0340530806175916));
#831=CARTESIAN_POINT('',(0.0215513151480755,-0.204149936836329,0.0340530806175916));
#832=CARTESIAN_POINT('',(0.0277234976887703,-0.204149936836329,0.0340530806175916));
#833=CARTESIAN_POINT('',(0.0277234976887703,-0.20509685575962,0.0340530806175916));
#834=CARTESIAN_POINT('',(0.0277234976887703,-0.199043774682913,0.0340530806175916));
#835=CARTESIAN_POINT('',(0.0215513151480755,-0.199043774682913,0.0340530806175916));
#836=CARTESIAN_POINT('',(0.0153791326073807,-0.199043774682913,0.0340530806175916));
#837=CARTESIAN_POINT('',(0.0153791326073806,-0.196388139764302,0.0340530806175916));
#838=CARTESIAN_POINT('',(0.0127234976887703,-0.196388139764302,0.0340530806175916));
#839=CARTESIAN_POINT('',(0.0127234976887703,-0.193715957223607,0.0340530806175916));
#840=CARTESIAN_POINT('',(0.0127234976887703,-0.191043774682913,0.0340530806175916));
#841=CARTESIAN_POINT('',(-0.00427650231122971,-0.191043774682913,0.0340530806175916));
#842=CARTESIAN_POINT('',(-0.0242765023112297,-0.191043774682913,0.0340530806175916));
#843=CARTESIAN_POINT('',(-0.0242765023112297,-0.20509685575962,0.0340530806175916));
#844=CARTESIAN_POINT('',(-0.00427650231122971,-0.20509685575962,-0.00905308153582518));
#845=CARTESIAN_POINT('',(0.0277234976887703,-0.20509685575962,-0.00905308153582518));
#846=CARTESIAN_POINT('',(0.0277234976887703,-0.214149936836329,-0.00905308153582518));
#847=CARTESIAN_POINT('',(0.0277234976887703,-0.191043774682913,-0.00905308153582518));
#848=CARTESIAN_POINT('',(-0.00427650231122971,-0.214149936836329,-0.00905308153582518));
#849=CARTESIAN_POINT('',(-0.0242765023112297,-0.214149936836329,-0.00905308153582518));
#850=CARTESIAN_POINT('',(-0.0242765023112297,-0.20509685575962,-0.00905308153582518));
#851=CARTESIAN_POINT('',(-0.0242765023112297,-0.191043774682913,-0.00905308153582518));
#852=CARTESIAN_POINT('',(-0.00427650231122971,-0.191043774682913,-0.00905308153582518));
#853=CARTESIAN_POINT('',(-0.00427650231122971,-0.20509685575962,-4.5911679965878E-10));
#854=CARTESIAN_POINT('',(0.0277234976887703,-0.20509685575962,-4.5911679965878E-10));
#855=CARTESIAN_POINT('',(0.0277234976887703,-0.20509685575962,-0.0077500004591168));
#856=CARTESIAN_POINT('',(-0.0242765023112297,-0.20509685575962,-4.5911679965878E-10));
#857=CARTESIAN_POINT('',(-0.0242765023112297,-0.20509685575962,-0.0077500004591168));
#858=CARTESIAN_POINT('',(-0.00427650231122971,-0.214149936836329,-4.59116814011118E-10));
#859=CARTESIAN_POINT('',(0.0117234976887703,-0.214149936836329,0.0289916116050095));
#860=CARTESIAN_POINT('',(0.0117234976887703,-0.214149936836329,0.0249916116050095));
#861=CARTESIAN_POINT('',(0.0117234976887703,-0.214149936836329,0.0119916116050095));
#862=CARTESIAN_POINT('',(0.0117234976887703,-0.214149936836329,0.0079916116050095));
#863=CARTESIAN_POINT('',(0.0277234976887703,-0.214149936836329,-4.59116814011118E-10));
#864=CARTESIAN_POINT('',(0.0277234976887703,-0.214149936836329,0.0520530806175916));
#865=CARTESIAN_POINT('',(0.00172353581339121,-0.214149936836329,0.0520530806175916));
#866=CARTESIAN_POINT('',(-0.0242764260619879,-0.214149936836329,0.0520530806175916));
#867=CARTESIAN_POINT('',(-0.0242764260619879,-0.214149936836329,0.0520530806175916));
#868=CARTESIAN_POINT('',(-0.0242764260619879,-0.214149936836329,0.0500530806175916));
#869=CARTESIAN_POINT('',(0.00172353581339121,-0.214149936836329,0.0500530806175916));
#870=CARTESIAN_POINT('',(0.0127234976887703,-0.214149936836329,0.0500530806175916));
#871=CARTESIAN_POINT('',(0.0127234976887703,-0.214149936836329,0.0500530806175916));
#872=CARTESIAN_POINT('',(-0.0242765023112297,-0.214149936836329,-4.59116814011118E-10));
#873=CARTESIAN_POINT('',(0.0277234976887703,-0.20509685575962,-4.5911680013333E-10));
#874=CARTESIAN_POINT('',(0.0277234976887703,-0.202596820792242,0.0500530806175916));
#875=CARTESIAN_POINT('',(0.0277234976887703,-0.199043774682913,0.0500530806175916));
#876=CARTESIAN_POINT('',(0.0277234976887703,-0.204149936836329,0.0500530806175916));
#877=CARTESIAN_POINT('',(0.0277234976887703,-0.199043774682913,0.0500530806175916));
#878=CARTESIAN_POINT('',(0.0277234976887703,-0.204149936836329,0.0500530806175916));
#879=CARTESIAN_POINT('',(0.0277234976887703,-0.191043774682913,-4.59116786255542E-10));
#880=CARTESIAN_POINT('',(0.0277234976887703,-0.191043757199222,0.0500530806175916));
#881=CARTESIAN_POINT('',(0.0277234976887703,-0.191043739715533,0.0520530806175916));
#882=CARTESIAN_POINT('',(0.0277234976887703,-0.191043739715533,0.0520530806175916));
#883=CARTESIAN_POINT('',(0.0277234976887703,-0.202596820792242,0.0520530806175916));
#884=CARTESIAN_POINT('',(-0.00427650231122971,-0.191043774682913,-4.59116786255542E-10));
#885=CARTESIAN_POINT('',(-0.0242765023112297,-0.191043774682913,-4.59116786255542E-10));
#886=CARTESIAN_POINT('',(0.0127234976887703,-0.191043774682913,0.0500530806175916));
#887=CARTESIAN_POINT('',(0.0127234976887703,-0.191043704748154,0.0500530806175916));
#888=CARTESIAN_POINT('',(-0.00427650231122971,-0.191043774682913,0.0500530806175916));
#889=CARTESIAN_POINT('',(0.0117234976887703,-0.194149936836329,0.0119916116050095));
#890=CARTESIAN_POINT('',(0.0117234976887703,-0.194149936836329,0.0119916116050095));
#891=CARTESIAN_POINT('',(0.0117234976887703,-0.194149936836329,0.0079916116050095));
#892=CARTESIAN_POINT('',(0.0117234976887703,-0.194149936836329,0.0124999995408832));
#893=CARTESIAN_POINT('',(0.0117234976887703,-0.194149936836329,0.0289916116050095));
#894=CARTESIAN_POINT('',(0.0117234976887703,-0.194149936836329,0.0289916116050095));
#895=CARTESIAN_POINT('',(0.0117234976887703,-0.194149936836329,0.0249916116050095));
#896=CARTESIAN_POINT('',(0.0117234976887703,-0.194149936836329,0.0124999995408832));
#897=CARTESIAN_POINT('',(-0.0242765023112297,-0.20259685575962,0.0124999995408832));
#898=CARTESIAN_POINT('',(-0.000276502311229706,-0.206149936836329,0.0420530806175916));
#899=CARTESIAN_POINT('',(-0.000276502311229706,-0.206149936836329,0.0420530806175916));
#900=CARTESIAN_POINT('',(-0.000276502311229706,-0.208649936836329,0.0420530806175916));
#901=CARTESIAN_POINT('',(-0.000276502311229706,-0.206149936836329,0.0370530806175916));
#902=CARTESIAN_POINT('',(0.00222349768877029,-0.206149936836329,0.0370530806175916));
#903=CARTESIAN_POINT('',(-0.000276502311229706,-0.206149936836329,0.0420530806175916));
#904=CARTESIAN_POINT('',(-0.000276502311229706,-0.206149936836329,0.0420530806175916));
#905=CARTESIAN_POINT('',(-0.000276502311229706,-0.211149936836329,0.0420530806175916));
#906=CARTESIAN_POINT('',(0.00172349768877029,-0.20259685575962,0.0420530806175916));
#907=CARTESIAN_POINT('',(-0.00427650231122971,-0.20509685575962,0.0290530806175916));
#908=CARTESIAN_POINT('',(0.000723497688770287,-0.206149936836329,0.0290530806175916));
#909=CARTESIAN_POINT('',(0.000223497688770293,-0.204735723273956,0.0290530806175916));
#910=CARTESIAN_POINT('',(0.000223497688770292,-0.207564150398702,0.0290530806175916));
#911=CARTESIAN_POINT('',(-0.000276502311229706,-0.206149936836329,0.0290530806175916));
#912=CARTESIAN_POINT('',(-0.000276502311229706,-0.206149936836329,0.0370530806175916));
#913=CARTESIAN_POINT('',(0.00022349768877029,-0.207564150398702,0.0395530806175916));
#914=CARTESIAN_POINT('',(0.000223497688770293,-0.207564150398702,0.0370530806175916));
#915=CARTESIAN_POINT('',(0.00022349768877029,-0.204735723273956,0.0395530806175916));
#916=CARTESIAN_POINT('',(0.000223497688770293,-0.204735723273956,0.0370530806175916));
#917=CARTESIAN_POINT('',(-0.000276502311229706,-0.206149936836329,0.0370530806175916));
#918=CARTESIAN_POINT('',(0.00172349768877029,-0.20259685575962,0.0370530806175916));
#919=CARTESIAN_POINT('',(0.000723497688770287,-0.206149936836329,0.0370530806175916));
#920=CARTESIAN_POINT('',(0.000723497688770287,-0.206149936836329,0.0370530806175916));
#921=CARTESIAN_POINT('',(0.0215513151480755,-0.204149936836329,0.0500530806175916));
#922=CARTESIAN_POINT('',(0.0153791326073807,-0.204149936836329,0.0500530806175916));
#923=CARTESIAN_POINT('',(0.0153791326073807,-0.204149936836329,0.0500530806175916));
#924=CARTESIAN_POINT('',(0.0215513151480755,-0.204149936836329,0.0500530806175916));
#925=CARTESIAN_POINT('',(0.0153791326073806,-0.206805571754939,0.0500530806175916));
#926=CARTESIAN_POINT('',(0.0127234976887703,-0.206805571754939,0.0500530806175916));
#927=CARTESIAN_POINT('',(0.0127234976887703,-0.206805571754939,0.0500530806175916));
#928=CARTESIAN_POINT('',(0.0153791326073806,-0.206805571754939,0.0500530806175916));
#929=CARTESIAN_POINT('',(0.0127234976887703,-0.210477754295634,0.0500530806175916));
#930=CARTESIAN_POINT('',(0.0127234976887703,-0.210477754295634,0.0500530806175916));
#931=CARTESIAN_POINT('',(0.0153791326073806,-0.196388139764302,0.0500530806175916));
#932=CARTESIAN_POINT('',(0.0153791326073807,-0.199043774682913,0.0500530806175916));
#933=CARTESIAN_POINT('',(0.0153791326073807,-0.199043774682913,0.0500530806175916));
#934=CARTESIAN_POINT('',(0.0153791326073806,-0.196388139764302,0.0500530806175916));
#935=CARTESIAN_POINT('',(0.0127234976887703,-0.196388139764302,0.0500530806175916));
#936=CARTESIAN_POINT('',(0.0127234976887703,-0.196388139764302,0.0500530806175916));
#937=CARTESIAN_POINT('',(0.0215513151480755,-0.199043774682913,0.0500530806175916));
#938=CARTESIAN_POINT('',(0.0215513151480755,-0.199043774682913,0.0500530806175916));
#939=CARTESIAN_POINT('',(0.0127234976887703,-0.193715957223607,0.0500530806175916));
#940=CARTESIAN_POINT('',(0.0127234976887703,-0.193715957223607,0.0500530806175916));
#941=CARTESIAN_POINT('',(0.00172353581339121,-0.202596820792242,0.0500530806175916));
#942=CARTESIAN_POINT('',(-0.0162764260619879,-0.199043704748153,0.0500530806175916));
#943=CARTESIAN_POINT('',(-0.0162764260619879,-0.204043704748154,0.0500530806175916));
#944=CARTESIAN_POINT('',(0.000723497688770287,-0.206149936836329,0.0500530806175916));
#945=CARTESIAN_POINT('',(0.000723497688770287,-0.207649936836329,0.0500530806175916));
#946=CARTESIAN_POINT('',(-0.0242764260619879,-0.202596820792242,0.0500530806175916));
#947=CARTESIAN_POINT('',(-0.0242764260619879,-0.191043704748154,0.0500530806175916));
#948=CARTESIAN_POINT('',(0.00172353581339121,-0.191043704748154,0.0500530806175916));
#949=CARTESIAN_POINT('',(0.00172353581339121,-0.191043704748154,0.0520530806175916));
#950=CARTESIAN_POINT('',(-0.0242764260619879,-0.191043704748154,0.0520530806175916));
#951=CARTESIAN_POINT('',(-0.0242764260619879,-0.191043704748154,0.0520530806175916));
#952=CARTESIAN_POINT('',(0.00172353581339121,-0.191043704748154,0.0520530806175916));
#953=CARTESIAN_POINT('',(-0.0242764260619879,-0.202596820792242,0.0520530806175916));
#954=CARTESIAN_POINT('',(-0.0242764260619879,-0.202596820792242,0.0520530806175916));
#955=CARTESIAN_POINT('',(0.00172353581339121,-0.202596820792242,0.0520530806175916));
#956=CARTESIAN_POINT('',(0.000723497688770287,-0.206149936836329,0.0520530806175916));
#957=CARTESIAN_POINT('',(0.000723497688770287,-0.207649936836329,0.0520530806175916));
#958=CARTESIAN_POINT('',(-0.0162764260619879,-0.199043704748153,0.0520530806175916));
#959=CARTESIAN_POINT('',(-0.0162764260619879,-0.200543704748154,0.0520530806175916));
#960=CARTESIAN_POINT('',(0.000723497688770287,-0.206149936836329,0.0270530806175916));
#961=CARTESIAN_POINT('',(-0.0162764260619879,-0.199043704748153,0.0270530806175916));
#962=CARTESIAN_POINT('',(-0.0162764260619879,-0.199043704748153,0.0420530806175916));
#963=CARTESIAN_POINT('',(-0.0162764260619879,-0.200543704748154,0.0420530806175916));
#964=CARTESIAN_POINT('',(0.000723497688770287,-0.206149936836329,0.0270530806175916));
#965=CARTESIAN_POINT('',(0.000723497688770287,-0.206149936836329,0.0270530806175916));
#966=CARTESIAN_POINT('',(0.000723497688770287,-0.207649936836329,0.0270530806175916));
#967=CARTESIAN_POINT('',(0.00172362323183948,-0.202596750857483,0.0270530806175916));
#968=CARTESIAN_POINT('',(-0.0162764260619879,-0.199043704748153,0.0270530806175916));
#969=CARTESIAN_POINT('',(-0.0162764260619879,-0.199043704748153,0.0270530806175916));
#970=CARTESIAN_POINT('',(-0.0162764260619879,-0.200543704748154,0.0270530806175916));
#971=CARTESIAN_POINT('',(0.00172362323183948,-0.202596750857483,0.0270530806175916));
#972=CARTESIAN_POINT('',(-0.0162764260619879,-0.199043704748153,0.0420530806175916));
#973=CARTESIAN_POINT('',(-0.0162764260619879,-0.199043704748153,0.0420530806175916));
#974=CARTESIAN_POINT('',(-0.0162764260619879,-0.204043704748154,0.0420530806175916));
#975=CARTESIAN_POINT('',(0.00172362323183948,-0.202596750857483,0.0420530806175916));
#976=MECHANICAL_DESIGN_GEOMETRIC_PRESENTATION_REPRESENTATION('',(#573),
#977);
#977=(
GEOMETRIC_REPRESENTATION_CONTEXT(3)
GLOBAL_UNCERTAINTY_ASSIGNED_CONTEXT((#978))
GLOBAL_UNIT_ASSIGNED_CONTEXT((#981,#980,#979))
REPRESENTATION_CONTEXT('Left XY','TOP_LEVEL_ASSEMBLY_PART')
);
#978=UNCERTAINTY_MEASURE_WITH_UNIT(LENGTH_MEASURE(2.1E-5),#981,
'DISTANCE_ACCURACY_VALUE','Maximum Tolerance applied to model');
#979=(
NAMED_UNIT(*)
SI_UNIT($,.STERADIAN.)
SOLID_ANGLE_UNIT()
);
#980=(
NAMED_UNIT(*)
PLANE_ANGLE_UNIT()
SI_UNIT($,.RADIAN.)
);
#981=(
LENGTH_UNIT()
NAMED_UNIT(*)
SI_UNIT($,.METRE.)
);
#982=PRODUCT_DEFINITION_SHAPE('','',#983);
#983=PRODUCT_DEFINITION('','',#985,#984);
#984=PRODUCT_DEFINITION_CONTEXT('',#991,'design');
#985=PRODUCT_DEFINITION_FORMATION_WITH_SPECIFIED_SOURCE('','',#987,
 .NOT_KNOWN.);
#986=PRODUCT_RELATED_PRODUCT_CATEGORY('','',(#987));
#987=PRODUCT('Left XY','Left XY','Left XY',(#989));
#988=PRODUCT_CATEGORY('','');
#989=PRODUCT_CONTEXT('',#991,'mechanical');
#990=APPLICATION_PROTOCOL_DEFINITION('international standard',
'ap242_managed_model_based_3d_engineering',2020,#991);
#991=APPLICATION_CONTEXT('managed model based 3d engineering');
ENDSEC;
END-ISO-10303-21;
