ISO-10303-21;
HEADER;
/* Generated by software containing ST-Developer
 * from STEP Tools, Inc. (www.steptools.com) 
 */
/* OPTION: using custom renumber hook */

FILE_DESCRIPTION(
/* description */ ('STEP AP242 Edition 2',
'CAx-IF Rec.Pracs.---Representation and Presentation of Product Manufa
cturing Information (PMI)---4.0---2014-10-13',
'CAx-IF Rec.Pracs.---3D Tessellated Geometry---0.4---2014-09-14','2;1',
'CAx-IF Rec.Pracs.---User Defined Attributes---1.5---2016-08-15'),
/* implementation_level */ '2;1');

FILE_NAME(
/* name */ 'Laser mount - Part 2',
/* time_stamp */ '2026-07-04T18:59:36Z',
/* author */ (''),
/* organization */ (''),
/* preprocessor_version */ 'ST-DEVELOPER v20',
/* originating_system */ 'ONSHAPE BY PTC INC, 1.217',
/* authorisation */ '  ');

FILE_SCHEMA (('AP242_MANAGED_MODEL_BASED_3D_ENGINEERING_MIM_LF { 1 0 10303 442 3 1 4 }'));
ENDSEC;

DATA;
#10=SHAPE_REPRESENTATION_RELATIONSHIP('','',#155,#11);
#11=ADVANCED_BREP_SHAPE_REPRESENTATION('',(#153),#245);
#12=CIRCLE('',#160,0.007246);
#13=CIRCLE('',#161,0.007246);
#14=CIRCLE('',#164,0.00724600000000019);
#15=CIRCLE('',#166,0.00724600000000019);
#16=CYLINDRICAL_SURFACE('',#159,0.007246);
#17=CYLINDRICAL_SURFACE('',#167,0.00724600000000019);
#18=ORIENTED_EDGE('',*,*,#50,.F.);
#19=ORIENTED_EDGE('',*,*,#51,.T.);
#20=ORIENTED_EDGE('',*,*,#52,.T.);
#21=ORIENTED_EDGE('',*,*,#53,.F.);
#22=ORIENTED_EDGE('',*,*,#54,.F.);
#23=ORIENTED_EDGE('',*,*,#52,.F.);
#24=ORIENTED_EDGE('',*,*,#55,.T.);
#25=ORIENTED_EDGE('',*,*,#56,.T.);
#26=ORIENTED_EDGE('',*,*,#57,.T.);
#27=ORIENTED_EDGE('',*,*,#58,.F.);
#28=ORIENTED_EDGE('',*,*,#59,.F.);
#29=ORIENTED_EDGE('',*,*,#60,.T.);
#30=ORIENTED_EDGE('',*,*,#61,.T.);
#31=ORIENTED_EDGE('',*,*,#56,.F.);
#32=ORIENTED_EDGE('',*,*,#62,.F.);
#33=ORIENTED_EDGE('',*,*,#57,.F.);
#34=ORIENTED_EDGE('',*,*,#51,.F.);
#35=ORIENTED_EDGE('',*,*,#63,.T.);
#36=ORIENTED_EDGE('',*,*,#59,.T.);
#37=ORIENTED_EDGE('',*,*,#55,.F.);
#38=ORIENTED_EDGE('',*,*,#64,.F.);
#39=ORIENTED_EDGE('',*,*,#53,.T.);
#40=ORIENTED_EDGE('',*,*,#54,.T.);
#41=ORIENTED_EDGE('',*,*,#61,.F.);
#42=ORIENTED_EDGE('',*,*,#65,.T.);
#43=ORIENTED_EDGE('',*,*,#58,.T.);
#44=ORIENTED_EDGE('',*,*,#65,.F.);
#45=ORIENTED_EDGE('',*,*,#62,.T.);
#46=ORIENTED_EDGE('',*,*,#64,.T.);
#47=ORIENTED_EDGE('',*,*,#60,.F.);
#48=ORIENTED_EDGE('',*,*,#63,.F.);
#49=ORIENTED_EDGE('',*,*,#50,.T.);
#50=EDGE_CURVE('',#66,#67,#78,.T.);
#51=EDGE_CURVE('',#66,#68,#79,.T.);
#52=EDGE_CURVE('',#68,#69,#80,.T.);
#53=EDGE_CURVE('',#67,#69,#81,.T.);
#54=EDGE_CURVE('',#69,#70,#82,.T.);
#55=EDGE_CURVE('',#68,#71,#83,.T.);
#56=EDGE_CURVE('',#71,#70,#84,.T.);
#57=EDGE_CURVE('',#72,#72,#12,.T.);
#58=EDGE_CURVE('',#73,#73,#13,.T.);
#59=EDGE_CURVE('',#74,#71,#85,.T.);
#60=EDGE_CURVE('',#74,#75,#86,.T.);
#61=EDGE_CURVE('',#75,#70,#87,.T.);
#62=EDGE_CURVE('',#76,#76,#14,.F.);
#63=EDGE_CURVE('',#66,#74,#88,.T.);
#64=EDGE_CURVE('',#67,#75,#89,.T.);
#65=EDGE_CURVE('',#77,#77,#15,.F.);
#66=VERTEX_POINT('',#210);
#67=VERTEX_POINT('',#211);
#68=VERTEX_POINT('',#213);
#69=VERTEX_POINT('',#215);
#70=VERTEX_POINT('',#219);
#71=VERTEX_POINT('',#221);
#72=VERTEX_POINT('',#225);
#73=VERTEX_POINT('',#227);
#74=VERTEX_POINT('',#230);
#75=VERTEX_POINT('',#232);
#76=VERTEX_POINT('',#236);
#77=VERTEX_POINT('',#241);
#78=LINE('',#209,#90);
#79=LINE('',#212,#91);
#80=LINE('',#214,#92);
#81=LINE('',#216,#93);
#82=LINE('',#218,#94);
#83=LINE('',#220,#95);
#84=LINE('',#222,#96);
#85=LINE('',#229,#97);
#86=LINE('',#231,#98);
#87=LINE('',#233,#99);
#88=LINE('',#237,#100);
#89=LINE('',#239,#101);
#90=VECTOR('',#173,1.);
#91=VECTOR('',#174,1.);
#92=VECTOR('',#175,1.);
#93=VECTOR('',#176,1.);
#94=VECTOR('',#179,1.);
#95=VECTOR('',#180,1.);
#96=VECTOR('',#181,1.);
#97=VECTOR('',#190,1.);
#98=VECTOR('',#191,1.);
#99=VECTOR('',#192,1.);
#100=VECTOR('',#197,1.);
#101=VECTOR('',#200,1.);
#102=EDGE_LOOP('',(#18,#19,#20,#21));
#103=EDGE_LOOP('',(#22,#23,#24,#25));
#104=EDGE_LOOP('',(#26));
#105=EDGE_LOOP('',(#27));
#106=EDGE_LOOP('',(#28,#29,#30,#31));
#107=EDGE_LOOP('',(#32));
#108=EDGE_LOOP('',(#33));
#109=EDGE_LOOP('',(#34,#35,#36,#37));
#110=EDGE_LOOP('',(#38,#39,#40,#41));
#111=EDGE_LOOP('',(#42));
#112=EDGE_LOOP('',(#43));
#113=EDGE_LOOP('',(#44));
#114=EDGE_LOOP('',(#45));
#115=EDGE_LOOP('',(#46,#47,#48,#49));
#116=FACE_BOUND('',#102,.T.);
#117=FACE_BOUND('',#103,.T.);
#118=FACE_BOUND('',#104,.T.);
#119=FACE_BOUND('',#105,.T.);
#120=FACE_BOUND('',#106,.T.);
#121=FACE_BOUND('',#107,.T.);
#122=FACE_BOUND('',#108,.T.);
#123=FACE_BOUND('',#109,.T.);
#124=FACE_BOUND('',#110,.T.);
#125=FACE_BOUND('',#111,.T.);
#126=FACE_BOUND('',#112,.T.);
#127=FACE_BOUND('',#113,.T.);
#128=FACE_BOUND('',#114,.T.);
#129=FACE_BOUND('',#115,.T.);
#130=PLANE('',#157);
#131=PLANE('',#158);
#132=PLANE('',#162);
#133=PLANE('',#163);
#134=PLANE('',#165);
#135=PLANE('',#168);
#136=ADVANCED_FACE('',(#116),#130,.T.);
#137=ADVANCED_FACE('',(#117),#131,.T.);
#138=ADVANCED_FACE('',(#118,#119),#16,.F.);
#139=ADVANCED_FACE('',(#120),#132,.F.);
#140=ADVANCED_FACE('',(#121,#122,#123),#133,.F.);
#141=ADVANCED_FACE('',(#124,#125,#126),#134,.T.);
#142=ADVANCED_FACE('',(#127,#128),#17,.F.);
#143=ADVANCED_FACE('',(#129),#135,.F.);
#144=CLOSED_SHELL('',(#136,#137,#138,#139,#140,#141,#142,#143));
#145=STYLED_ITEM('',(#146),#153);
#146=PRESENTATION_STYLE_ASSIGNMENT((#147));
#147=SURFACE_STYLE_USAGE(.BOTH.,#148);
#148=SURFACE_SIDE_STYLE('',(#149));
#149=SURFACE_STYLE_FILL_AREA(#150);
#150=FILL_AREA_STYLE('',(#151));
#151=FILL_AREA_STYLE_COLOUR('',#152);
#152=COLOUR_RGB('',0.541176470588235,0.682352941176471,0.83921568627451);
#153=MANIFOLD_SOLID_BREP('Part 2',#144);
#154=SHAPE_DEFINITION_REPRESENTATION(#250,#155);
#155=SHAPE_REPRESENTATION('Part 2',(#156),#245);
#156=AXIS2_PLACEMENT_3D('',#207,#169,#170);
#157=AXIS2_PLACEMENT_3D('',#208,#171,#172);
#158=AXIS2_PLACEMENT_3D('',#217,#177,#178);
#159=AXIS2_PLACEMENT_3D('',#223,#182,#183);
#160=AXIS2_PLACEMENT_3D('',#224,#184,#185);
#161=AXIS2_PLACEMENT_3D('',#226,#186,#187);
#162=AXIS2_PLACEMENT_3D('',#228,#188,#189);
#163=AXIS2_PLACEMENT_3D('',#234,#193,#194);
#164=AXIS2_PLACEMENT_3D('',#235,#195,#196);
#165=AXIS2_PLACEMENT_3D('',#238,#198,#199);
#166=AXIS2_PLACEMENT_3D('',#240,#201,#202);
#167=AXIS2_PLACEMENT_3D('',#242,#203,#204);
#168=AXIS2_PLACEMENT_3D('',#243,#205,#206);
#169=DIRECTION('',(0.,0.,1.));
#170=DIRECTION('',(1.,0.,0.));
#171=DIRECTION('',(-1.,5.29572548061491E-18,7.21625534644083E-16));
#172=DIRECTION('',(7.21625534644084E-16,0.,1.));
#173=DIRECTION('',(-7.21644966003869E-16,-0.00733840840037997,-0.999973073518557));
#174=DIRECTION('',(1.99670786983659E-31,0.999973073518557,-0.00733840840037997));
#175=DIRECTION('',(-7.21644966003869E-16,-0.00733840840037997,-0.999973073518557));
#176=DIRECTION('',(1.99670786983659E-31,0.999973073518557,-0.00733840840037997));
#177=DIRECTION('',(-6.78939164183708E-18,0.999973073518557,-0.00733840840037997));
#178=DIRECTION('',(0.,0.00733840840037997,0.999973073518557));
#179=DIRECTION('',(1.,1.49348334679432E-18,-7.21675357972741E-16));
#180=DIRECTION('',(1.,1.49348334679432E-18,-7.21675357972741E-16));
#181=DIRECTION('',(-7.21644966003869E-16,-0.00733840840037997,-0.999973073518557));
#182=DIRECTION('',(-7.21644966003869E-16,-0.00733840840037997,-0.999973073518557));
#183=DIRECTION('',(0.,0.999973073518557,-0.00733840840037997));
#184=DIRECTION('',(7.21644966003869E-16,0.00733840840037997,0.999973073518557));
#185=DIRECTION('',(0.984617271429096,0.174720304366058,-0.00128220347450385));
#186=DIRECTION('',(7.21644966003869E-16,0.00733840840037997,0.999973073518557));
#187=DIRECTION('',(0.984617271429096,0.174720304366058,-0.00128220347450385));
#188=DIRECTION('',(-1.,5.29572548061491E-18,7.21625534644083E-16));
#189=DIRECTION('',(7.21625534644083E-16,0.,1.));
#190=DIRECTION('',(2.00922641447507E-31,0.999973073518557,-0.00733840840037997));
#191=DIRECTION('',(-7.21644966003869E-16,-0.00733840840037997,-0.999973073518557));
#192=DIRECTION('',(2.00922641447507E-31,0.999973073518557,-0.00733840840037997));
#193=DIRECTION('',(-7.21644966003869E-16,-0.00733840840037997,-0.999973073518557));
#194=DIRECTION('',(1.,-5.29572548061471E-18,-7.21625534644084E-16));
#195=DIRECTION('',(-7.21644966003869E-16,-0.00733840840037997,-0.999973073518557));
#196=DIRECTION('',(0.,0.999973073518557,-0.00733840840037997));
#197=DIRECTION('',(1.,-5.29572548061471E-18,-7.21625534644084E-16));
#198=DIRECTION('',(-7.21644966003869E-16,-0.00733840840037997,-0.999973073518557));
#199=DIRECTION('',(1.,-5.29572548061471E-18,-7.21625534644084E-16));
#200=DIRECTION('',(1.,-5.29572548061471E-18,-7.21625534644084E-16));
#201=DIRECTION('',(-7.21644966003869E-16,-0.00733840840037997,-0.999973073518557));
#202=DIRECTION('',(0.,0.999973073518557,-0.00733840840037997));
#203=DIRECTION('',(0.,0.00733840840037902,0.999973073518557));
#204=DIRECTION('',(0.,-0.999973073518557,0.00733840840037902));
#205=DIRECTION('',(5.89907481128166E-34,0.999973073518557,-0.00733840840037997));
#206=DIRECTION('',(0.,0.00733840840037997,0.999973073518557));
#207=CARTESIAN_POINT('',(0.,0.,0.));
#208=CARTESIAN_POINT('',(-0.189638006687164,-0.00328691114838159,-0.111878857560839));
#209=CARTESIAN_POINT('',(-0.189638006687164,-0.0707850936108842,-0.111383514993814));
#210=CARTESIAN_POINT('',(-0.189638006687164,-0.0707850936108842,-0.111383514993814));
#211=CARTESIAN_POINT('',(-0.189638006687164,-0.0710845740577037,-0.152192416124106));
#212=CARTESIAN_POINT('',(-0.189638006687164,-0.00328691114838159,-0.111878857560839));
#213=CARTESIAN_POINT('',(-0.189638006687164,0.0342120791085643,-0.112154047875854));
#214=CARTESIAN_POINT('',(-0.189638006687164,0.0342120791085643,-0.112154047875854));
#215=CARTESIAN_POINT('',(-0.189638006687164,0.0339125986617448,-0.152962949006146));
#216=CARTESIAN_POINT('',(-0.189638006687164,-0.0035863915952011,-0.152687758691131));
#217=CARTESIAN_POINT('',(-0.174638006687165,0.0342120791085643,-0.112154047875854));
#218=CARTESIAN_POINT('',(-0.174638006687165,0.0339125986617448,-0.152962949006146));
#219=CARTESIAN_POINT('',(-0.159638006687164,0.0339125986617448,-0.152962949006146));
#220=CARTESIAN_POINT('',(-0.174638006687165,0.0342120791085643,-0.112154047875854));
#221=CARTESIAN_POINT('',(-0.159638006687164,0.0342120791085643,-0.112154047875854));
#222=CARTESIAN_POINT('',(-0.159638006687164,0.0342120791085643,-0.112154047875854));
#223=CARTESIAN_POINT('',(-0.175357683469619,0.00248305023368101,-0.111921201034076));
#224=CARTESIAN_POINT('',(-0.175357683469619,0.00248305023368101,-0.111921201034076));
#225=CARTESIAN_POINT('',(-0.168223146720844,0.00374907355911746,-0.111930491880452));
#226=CARTESIAN_POINT('',(-0.175357683469619,0.0021835697868615,-0.152730102164368));
#227=CARTESIAN_POINT('',(-0.168223146720844,0.00344959311229796,-0.152739393010745));
#228=CARTESIAN_POINT('',(-0.159638006687164,-0.0032869111483816,-0.111878857560839));
#229=CARTESIAN_POINT('',(-0.159638006687164,-0.0032869111483816,-0.111878857560839));
#230=CARTESIAN_POINT('',(-0.159638006687164,-0.0707850936108842,-0.111383514993814));
#231=CARTESIAN_POINT('',(-0.159638006687164,-0.0707850936108842,-0.111383514993814));
#232=CARTESIAN_POINT('',(-0.159638006687164,-0.0710845740577037,-0.152192416124106));
#233=CARTESIAN_POINT('',(-0.159638006687164,-0.00358639159520111,-0.152687758691131));
#234=CARTESIAN_POINT('',(-0.174638006687165,-0.00328691114838159,-0.111878857560839));
#235=CARTESIAN_POINT('',(-0.175357683469619,0.0194825924834966,-0.112045953976883));
#236=CARTESIAN_POINT('',(-0.175357683469619,0.0267283973742122,-0.112099128084152));
#237=CARTESIAN_POINT('',(-0.174638006687165,-0.0707850936108842,-0.111383514993814));
#238=CARTESIAN_POINT('',(-0.174638006687165,-0.0035863915952011,-0.152687758691131));
#239=CARTESIAN_POINT('',(-0.174638006687165,-0.0710845740577037,-0.152192416124106));
#240=CARTESIAN_POINT('',(-0.175357683469619,0.0191831120366771,-0.152854855107175));
#241=CARTESIAN_POINT('',(-0.175357683469619,0.0264289169273928,-0.152908029214444));
#242=CARTESIAN_POINT('',(-0.175357683469619,0.0190656975022711,-0.168854424283471));
#243=CARTESIAN_POINT('',(-0.174638006687165,-0.0707850936108842,-0.111383514993814));
#244=MECHANICAL_DESIGN_GEOMETRIC_PRESENTATION_REPRESENTATION('',(#145),
#245);
#245=(
GEOMETRIC_REPRESENTATION_CONTEXT(3)
GLOBAL_UNCERTAINTY_ASSIGNED_CONTEXT((#246))
GLOBAL_UNIT_ASSIGNED_CONTEXT((#249,#248,#247))
REPRESENTATION_CONTEXT('Part 2','TOP_LEVEL_ASSEMBLY_PART')
);
#246=UNCERTAINTY_MEASURE_WITH_UNIT(LENGTH_MEASURE(1.E-8),#249,
'DISTANCE_ACCURACY_VALUE','Maximum Tolerance applied to model');
#247=(
NAMED_UNIT(*)
SI_UNIT($,.STERADIAN.)
SOLID_ANGLE_UNIT()
);
#248=(
NAMED_UNIT(*)
PLANE_ANGLE_UNIT()
SI_UNIT($,.RADIAN.)
);
#249=(
LENGTH_UNIT()
NAMED_UNIT(*)
SI_UNIT($,.METRE.)
);
#250=PRODUCT_DEFINITION_SHAPE('','',#251);
#251=PRODUCT_DEFINITION('','',#253,#252);
#252=PRODUCT_DEFINITION_CONTEXT('',#259,'design');
#253=PRODUCT_DEFINITION_FORMATION_WITH_SPECIFIED_SOURCE('','',#255,
 .NOT_KNOWN.);
#254=PRODUCT_RELATED_PRODUCT_CATEGORY('','',(#255));
#255=PRODUCT('Part 2','Part 2','Part 2',(#257));
#256=PRODUCT_CATEGORY('','');
#257=PRODUCT_CONTEXT('',#259,'mechanical');
#258=APPLICATION_PROTOCOL_DEFINITION('international standard',
'ap242_managed_model_based_3d_engineering',2020,#259);
#259=APPLICATION_CONTEXT('managed model based 3d engineering');
ENDSEC;
END-ISO-10303-21;
