ISO-10303-21;
HEADER;
/* Generated by software containing ST-Developer
 * from STEP Tools, Inc. (www.steptools.com) 
 */
/* OPTION: using custom renumber hook */

FILE_DESCRIPTION(
/* description */ ('STEP AP242 Edition 2',
'CAx-IF Rec.Pracs.---Representation and Presentation of Product Manufa
cturing Information (PMI)---4.0---2014-10-13',
'CAx-IF Rec.Pracs.---3D Tessellated Geometry---0.4---2014-09-14','2;1',
'CAx-IF Rec.Pracs.---User Defined Attributes---1.5---2016-08-15'),
/* implementation_level */ '2;1');

FILE_NAME(
/* name */ 'Motor mount - Part 1',
/* time_stamp */ '2026-07-04T19:00:02Z',
/* author */ (''),
/* organization */ (''),
/* preprocessor_version */ 'ST-DEVELOPER v20',
/* originating_system */ 'ONSHAPE BY PTC INC, 1.217',
/* authorisation */ '  ');

FILE_SCHEMA (('AP242_MANAGED_MODEL_BASED_3D_ENGINEERING_MIM_LF { 1 0 10303 442 3 1 4 }'));
ENDSEC;

DATA;
#10=SHAPE_REPRESENTATION_RELATIONSHIP('','',#540,#11);
#11=ADVANCED_BREP_SHAPE_REPRESENTATION('',(#538),#865);
#12=CIRCLE('',#547,0.0155);
#13=CIRCLE('',#548,0.0155);
#14=CIRCLE('',#550,0.0015);
#15=CIRCLE('',#551,0.0015);
#16=CIRCLE('',#553,0.0015);
#17=CIRCLE('',#554,0.0015);
#18=CIRCLE('',#556,0.0015);
#19=CIRCLE('',#557,0.0015);
#20=CIRCLE('',#559,0.0015);
#21=CIRCLE('',#560,0.0015);
#22=CIRCLE('',#563,0.002);
#23=CIRCLE('',#564,0.002);
#24=CIRCLE('',#566,0.002);
#25=CIRCLE('',#567,0.002);
#26=CYLINDRICAL_SURFACE('',#546,0.0155);
#27=CYLINDRICAL_SURFACE('',#549,0.0015);
#28=CYLINDRICAL_SURFACE('',#552,0.0015);
#29=CYLINDRICAL_SURFACE('',#555,0.0015);
#30=CYLINDRICAL_SURFACE('',#558,0.0015);
#31=CYLINDRICAL_SURFACE('',#582,0.002);
#32=CYLINDRICAL_SURFACE('',#583,0.002);
#33=ORIENTED_EDGE('',*,*,#165,.F.);
#34=ORIENTED_EDGE('',*,*,#166,.F.);
#35=ORIENTED_EDGE('',*,*,#167,.T.);
#36=ORIENTED_EDGE('',*,*,#168,.T.);
#37=ORIENTED_EDGE('',*,*,#169,.T.);
#38=ORIENTED_EDGE('',*,*,#170,.T.);
#39=ORIENTED_EDGE('',*,*,#171,.T.);
#40=ORIENTED_EDGE('',*,*,#172,.T.);
#41=ORIENTED_EDGE('',*,*,#173,.F.);
#42=ORIENTED_EDGE('',*,*,#174,.F.);
#43=ORIENTED_EDGE('',*,*,#175,.T.);
#44=ORIENTED_EDGE('',*,*,#176,.T.);
#45=ORIENTED_EDGE('',*,*,#177,.F.);
#46=ORIENTED_EDGE('',*,*,#178,.F.);
#47=ORIENTED_EDGE('',*,*,#173,.T.);
#48=ORIENTED_EDGE('',*,*,#179,.T.);
#49=ORIENTED_EDGE('',*,*,#180,.F.);
#50=ORIENTED_EDGE('',*,*,#181,.T.);
#51=ORIENTED_EDGE('',*,*,#182,.F.);
#52=ORIENTED_EDGE('',*,*,#183,.T.);
#53=ORIENTED_EDGE('',*,*,#184,.F.);
#54=ORIENTED_EDGE('',*,*,#185,.T.);
#55=ORIENTED_EDGE('',*,*,#186,.F.);
#56=ORIENTED_EDGE('',*,*,#187,.T.);
#57=ORIENTED_EDGE('',*,*,#188,.F.);
#58=ORIENTED_EDGE('',*,*,#189,.T.);
#59=ORIENTED_EDGE('',*,*,#167,.F.);
#60=ORIENTED_EDGE('',*,*,#190,.F.);
#61=ORIENTED_EDGE('',*,*,#177,.T.);
#62=ORIENTED_EDGE('',*,*,#191,.F.);
#63=ORIENTED_EDGE('',*,*,#192,.F.);
#64=ORIENTED_EDGE('',*,*,#193,.T.);
#65=ORIENTED_EDGE('',*,*,#194,.F.);
#66=ORIENTED_EDGE('',*,*,#195,.F.);
#67=ORIENTED_EDGE('',*,*,#174,.T.);
#68=ORIENTED_EDGE('',*,*,#178,.T.);
#69=ORIENTED_EDGE('',*,*,#190,.T.);
#70=ORIENTED_EDGE('',*,*,#166,.T.);
#71=ORIENTED_EDGE('',*,*,#196,.T.);
#72=ORIENTED_EDGE('',*,*,#197,.F.);
#73=ORIENTED_EDGE('',*,*,#198,.F.);
#74=ORIENTED_EDGE('',*,*,#199,.F.);
#75=ORIENTED_EDGE('',*,*,#200,.T.);
#76=ORIENTED_EDGE('',*,*,#201,.F.);
#77=ORIENTED_EDGE('',*,*,#202,.T.);
#78=ORIENTED_EDGE('',*,*,#203,.T.);
#79=ORIENTED_EDGE('',*,*,#179,.F.);
#80=ORIENTED_EDGE('',*,*,#181,.F.);
#81=ORIENTED_EDGE('',*,*,#183,.F.);
#82=ORIENTED_EDGE('',*,*,#185,.F.);
#83=ORIENTED_EDGE('',*,*,#187,.F.);
#84=ORIENTED_EDGE('',*,*,#204,.F.);
#85=ORIENTED_EDGE('',*,*,#205,.F.);
#86=ORIENTED_EDGE('',*,*,#188,.T.);
#87=ORIENTED_EDGE('',*,*,#186,.T.);
#88=ORIENTED_EDGE('',*,*,#184,.T.);
#89=ORIENTED_EDGE('',*,*,#182,.T.);
#90=ORIENTED_EDGE('',*,*,#180,.T.);
#91=ORIENTED_EDGE('',*,*,#168,.F.);
#92=ORIENTED_EDGE('',*,*,#189,.F.);
#93=ORIENTED_EDGE('',*,*,#176,.F.);
#94=ORIENTED_EDGE('',*,*,#172,.F.);
#95=ORIENTED_EDGE('',*,*,#170,.F.);
#96=ORIENTED_EDGE('',*,*,#206,.F.);
#97=ORIENTED_EDGE('',*,*,#207,.F.);
#98=ORIENTED_EDGE('',*,*,#208,.F.);
#99=ORIENTED_EDGE('',*,*,#209,.T.);
#100=ORIENTED_EDGE('',*,*,#210,.F.);
#101=ORIENTED_EDGE('',*,*,#211,.T.);
#102=ORIENTED_EDGE('',*,*,#212,.F.);
#103=ORIENTED_EDGE('',*,*,#213,.F.);
#104=ORIENTED_EDGE('',*,*,#203,.F.);
#105=ORIENTED_EDGE('',*,*,#214,.T.);
#106=ORIENTED_EDGE('',*,*,#207,.T.);
#107=ORIENTED_EDGE('',*,*,#215,.T.);
#108=ORIENTED_EDGE('',*,*,#209,.F.);
#109=ORIENTED_EDGE('',*,*,#216,.F.);
#110=ORIENTED_EDGE('',*,*,#201,.T.);
#111=ORIENTED_EDGE('',*,*,#208,.T.);
#112=ORIENTED_EDGE('',*,*,#214,.F.);
#113=ORIENTED_EDGE('',*,*,#202,.F.);
#114=ORIENTED_EDGE('',*,*,#216,.T.);
#115=ORIENTED_EDGE('',*,*,#171,.F.);
#116=ORIENTED_EDGE('',*,*,#217,.F.);
#117=ORIENTED_EDGE('',*,*,#218,.T.);
#118=ORIENTED_EDGE('',*,*,#219,.T.);
#119=ORIENTED_EDGE('',*,*,#193,.F.);
#120=ORIENTED_EDGE('',*,*,#213,.T.);
#121=ORIENTED_EDGE('',*,*,#206,.T.);
#122=ORIENTED_EDGE('',*,*,#169,.F.);
#123=ORIENTED_EDGE('',*,*,#219,.F.);
#124=ORIENTED_EDGE('',*,*,#220,.T.);
#125=ORIENTED_EDGE('',*,*,#218,.F.);
#126=ORIENTED_EDGE('',*,*,#221,.F.);
#127=ORIENTED_EDGE('',*,*,#194,.T.);
#128=ORIENTED_EDGE('',*,*,#220,.F.);
#129=ORIENTED_EDGE('',*,*,#175,.F.);
#130=ORIENTED_EDGE('',*,*,#195,.T.);
#131=ORIENTED_EDGE('',*,*,#221,.T.);
#132=ORIENTED_EDGE('',*,*,#217,.T.);
#133=ORIENTED_EDGE('',*,*,#222,.F.);
#134=ORIENTED_EDGE('',*,*,#212,.T.);
#135=ORIENTED_EDGE('',*,*,#223,.F.);
#136=ORIENTED_EDGE('',*,*,#222,.T.);
#137=ORIENTED_EDGE('',*,*,#224,.F.);
#138=ORIENTED_EDGE('',*,*,#225,.F.);
#139=ORIENTED_EDGE('',*,*,#226,.T.);
#140=ORIENTED_EDGE('',*,*,#223,.T.);
#141=ORIENTED_EDGE('',*,*,#227,.F.);
#142=ORIENTED_EDGE('',*,*,#198,.T.);
#143=ORIENTED_EDGE('',*,*,#228,.F.);
#144=ORIENTED_EDGE('',*,*,#224,.T.);
#145=ORIENTED_EDGE('',*,*,#228,.T.);
#146=ORIENTED_EDGE('',*,*,#197,.T.);
#147=ORIENTED_EDGE('',*,*,#229,.T.);
#148=ORIENTED_EDGE('',*,*,#225,.T.);
#149=ORIENTED_EDGE('',*,*,#196,.F.);
#150=ORIENTED_EDGE('',*,*,#165,.T.);
#151=ORIENTED_EDGE('',*,*,#226,.F.);
#152=ORIENTED_EDGE('',*,*,#229,.F.);
#153=ORIENTED_EDGE('',*,*,#230,.F.);
#154=ORIENTED_EDGE('',*,*,#199,.T.);
#155=ORIENTED_EDGE('',*,*,#227,.T.);
#156=ORIENTED_EDGE('',*,*,#211,.F.);
#157=ORIENTED_EDGE('',*,*,#230,.T.);
#158=ORIENTED_EDGE('',*,*,#210,.T.);
#159=ORIENTED_EDGE('',*,*,#215,.F.);
#160=ORIENTED_EDGE('',*,*,#200,.F.);
#161=ORIENTED_EDGE('',*,*,#205,.T.);
#162=ORIENTED_EDGE('',*,*,#192,.T.);
#163=ORIENTED_EDGE('',*,*,#204,.T.);
#164=ORIENTED_EDGE('',*,*,#191,.T.);
#165=EDGE_CURVE('',#231,#232,#278,.T.);
#166=EDGE_CURVE('',#233,#231,#279,.T.);
#167=EDGE_CURVE('',#233,#234,#280,.T.);
#168=EDGE_CURVE('',#234,#232,#281,.T.);
#169=EDGE_CURVE('',#235,#236,#282,.T.);
#170=EDGE_CURVE('',#236,#237,#283,.T.);
#171=EDGE_CURVE('',#237,#235,#284,.T.);
#172=EDGE_CURVE('',#237,#238,#285,.T.);
#173=EDGE_CURVE('',#239,#238,#286,.T.);
#174=EDGE_CURVE('',#240,#239,#287,.T.);
#175=EDGE_CURVE('',#240,#237,#288,.T.);
#176=EDGE_CURVE('',#238,#241,#289,.T.);
#177=EDGE_CURVE('',#242,#241,#290,.T.);
#178=EDGE_CURVE('',#239,#242,#291,.T.);
#179=EDGE_CURVE('',#243,#243,#12,.T.);
#180=EDGE_CURVE('',#244,#244,#13,.T.);
#181=EDGE_CURVE('',#245,#245,#14,.T.);
#182=EDGE_CURVE('',#246,#246,#15,.T.);
#183=EDGE_CURVE('',#247,#247,#16,.T.);
#184=EDGE_CURVE('',#248,#248,#17,.T.);
#185=EDGE_CURVE('',#249,#249,#18,.T.);
#186=EDGE_CURVE('',#250,#250,#19,.T.);
#187=EDGE_CURVE('',#251,#251,#20,.T.);
#188=EDGE_CURVE('',#252,#252,#21,.T.);
#189=EDGE_CURVE('',#241,#234,#292,.T.);
#190=EDGE_CURVE('',#242,#233,#293,.T.);
#191=EDGE_CURVE('',#253,#253,#22,.T.);
#192=EDGE_CURVE('',#254,#254,#23,.T.);
#193=EDGE_CURVE('',#255,#256,#294,.T.);
#194=EDGE_CURVE('',#257,#256,#295,.T.);
#195=EDGE_CURVE('',#240,#257,#296,.T.);
#196=EDGE_CURVE('',#231,#258,#297,.T.);
#197=EDGE_CURVE('',#259,#258,#298,.T.);
#198=EDGE_CURVE('',#260,#259,#299,.T.);
#199=EDGE_CURVE('',#261,#260,#300,.T.);
#200=EDGE_CURVE('',#261,#262,#301,.T.);
#201=EDGE_CURVE('',#263,#262,#302,.T.);
#202=EDGE_CURVE('',#263,#264,#303,.T.);
#203=EDGE_CURVE('',#264,#255,#304,.T.);
#204=EDGE_CURVE('',#265,#265,#24,.T.);
#205=EDGE_CURVE('',#266,#266,#25,.T.);
#206=EDGE_CURVE('',#267,#236,#305,.T.);
#207=EDGE_CURVE('',#268,#267,#306,.T.);
#208=EDGE_CURVE('',#269,#268,#307,.T.);
#209=EDGE_CURVE('',#269,#270,#308,.T.);
#210=EDGE_CURVE('',#271,#270,#309,.T.);
#211=EDGE_CURVE('',#271,#272,#310,.T.);
#212=EDGE_CURVE('',#232,#272,#311,.T.);
#213=EDGE_CURVE('',#255,#267,#312,.T.);
#214=EDGE_CURVE('',#264,#268,#313,.T.);
#215=EDGE_CURVE('',#262,#270,#314,.T.);
#216=EDGE_CURVE('',#263,#269,#315,.T.);
#217=EDGE_CURVE('',#273,#237,#316,.T.);
#218=EDGE_CURVE('',#273,#274,#317,.T.);
#219=EDGE_CURVE('',#274,#235,#318,.T.);
#220=EDGE_CURVE('',#274,#256,#319,.T.);
#221=EDGE_CURVE('',#257,#273,#320,.T.);
#222=EDGE_CURVE('',#232,#275,#321,.T.);
#223=EDGE_CURVE('',#275,#272,#322,.T.);
#224=EDGE_CURVE('',#276,#275,#323,.T.);
#225=EDGE_CURVE('',#277,#276,#324,.T.);
#226=EDGE_CURVE('',#277,#232,#325,.T.);
#227=EDGE_CURVE('',#260,#272,#326,.T.);
#228=EDGE_CURVE('',#276,#259,#327,.T.);
#229=EDGE_CURVE('',#258,#277,#328,.T.);
#230=EDGE_CURVE('',#261,#271,#329,.T.);
#231=VERTEX_POINT('',#725);
#232=VERTEX_POINT('',#726);
#233=VERTEX_POINT('',#728);
#234=VERTEX_POINT('',#730);
#235=VERTEX_POINT('',#734);
#236=VERTEX_POINT('',#735);
#237=VERTEX_POINT('',#737);
#238=VERTEX_POINT('',#741);
#239=VERTEX_POINT('',#743);
#240=VERTEX_POINT('',#745);
#241=VERTEX_POINT('',#749);
#242=VERTEX_POINT('',#751);
#243=VERTEX_POINT('',#755);
#244=VERTEX_POINT('',#757);
#245=VERTEX_POINT('',#760);
#246=VERTEX_POINT('',#762);
#247=VERTEX_POINT('',#765);
#248=VERTEX_POINT('',#767);
#249=VERTEX_POINT('',#770);
#250=VERTEX_POINT('',#772);
#251=VERTEX_POINT('',#775);
#252=VERTEX_POINT('',#777);
#253=VERTEX_POINT('',#783);
#254=VERTEX_POINT('',#785);
#255=VERTEX_POINT('',#787);
#256=VERTEX_POINT('',#788);
#257=VERTEX_POINT('',#790);
#258=VERTEX_POINT('',#793);
#259=VERTEX_POINT('',#795);
#260=VERTEX_POINT('',#797);
#261=VERTEX_POINT('',#799);
#262=VERTEX_POINT('',#801);
#263=VERTEX_POINT('',#803);
#264=VERTEX_POINT('',#805);
#265=VERTEX_POINT('',#809);
#266=VERTEX_POINT('',#811);
#267=VERTEX_POINT('',#813);
#268=VERTEX_POINT('',#815);
#269=VERTEX_POINT('',#817);
#270=VERTEX_POINT('',#819);
#271=VERTEX_POINT('',#821);
#272=VERTEX_POINT('',#823);
#273=VERTEX_POINT('',#834);
#274=VERTEX_POINT('',#836);
#275=VERTEX_POINT('',#845);
#276=VERTEX_POINT('',#849);
#277=VERTEX_POINT('',#851);
#278=LINE('',#724,#330);
#279=LINE('',#727,#331);
#280=LINE('',#729,#332);
#281=LINE('',#731,#333);
#282=LINE('',#733,#334);
#283=LINE('',#736,#335);
#284=LINE('',#738,#336);
#285=LINE('',#740,#337);
#286=LINE('',#742,#338);
#287=LINE('',#744,#339);
#288=LINE('',#746,#340);
#289=LINE('',#748,#341);
#290=LINE('',#750,#342);
#291=LINE('',#752,#343);
#292=LINE('',#779,#344);
#293=LINE('',#780,#345);
#294=LINE('',#786,#346);
#295=LINE('',#789,#347);
#296=LINE('',#791,#348);
#297=LINE('',#792,#349);
#298=LINE('',#794,#350);
#299=LINE('',#796,#351);
#300=LINE('',#798,#352);
#301=LINE('',#800,#353);
#302=LINE('',#802,#354);
#303=LINE('',#804,#355);
#304=LINE('',#806,#356);
#305=LINE('',#812,#357);
#306=LINE('',#814,#358);
#307=LINE('',#816,#359);
#308=LINE('',#818,#360);
#309=LINE('',#820,#361);
#310=LINE('',#822,#362);
#311=LINE('',#824,#363);
#312=LINE('',#826,#364);
#313=LINE('',#827,#365);
#314=LINE('',#829,#366);
#315=LINE('',#830,#367);
#316=LINE('',#833,#368);
#317=LINE('',#835,#369);
#318=LINE('',#837,#370);
#319=LINE('',#839,#371);
#320=LINE('',#841,#372);
#321=LINE('',#844,#373);
#322=LINE('',#846,#374);
#323=LINE('',#848,#375);
#324=LINE('',#850,#376);
#325=LINE('',#852,#377);
#326=LINE('',#854,#378);
#327=LINE('',#855,#379);
#328=LINE('',#857,#380);
#329=LINE('',#860,#381);
#330=VECTOR('',#588,1.);
#331=VECTOR('',#589,1.);
#332=VECTOR('',#590,1.);
#333=VECTOR('',#591,1.);
#334=VECTOR('',#594,1.);
#335=VECTOR('',#595,1.);
#336=VECTOR('',#596,1.);
#337=VECTOR('',#599,1.);
#338=VECTOR('',#600,1.);
#339=VECTOR('',#601,1.);
#340=VECTOR('',#602,1.);
#341=VECTOR('',#605,1.);
#342=VECTOR('',#606,1.);
#343=VECTOR('',#607,1.);
#344=VECTOR('',#640,1.);
#345=VECTOR('',#641,1.);
#346=VECTOR('',#648,1.);
#347=VECTOR('',#649,1.);
#348=VECTOR('',#650,1.);
#349=VECTOR('',#651,1.);
#350=VECTOR('',#652,1.);
#351=VECTOR('',#653,1.);
#352=VECTOR('',#654,1.);
#353=VECTOR('',#655,1.);
#354=VECTOR('',#656,1.);
#355=VECTOR('',#657,1.);
#356=VECTOR('',#658,1.);
#357=VECTOR('',#665,1.);
#358=VECTOR('',#666,1.);
#359=VECTOR('',#667,1.);
#360=VECTOR('',#668,1.);
#361=VECTOR('',#669,1.);
#362=VECTOR('',#670,1.);
#363=VECTOR('',#671,1.);
#364=VECTOR('',#674,1.);
#365=VECTOR('',#675,1.);
#366=VECTOR('',#678,1.);
#367=VECTOR('',#679,1.);
#368=VECTOR('',#684,1.);
#369=VECTOR('',#685,1.);
#370=VECTOR('',#686,1.);
#371=VECTOR('',#689,1.);
#372=VECTOR('',#692,1.);
#373=VECTOR('',#697,1.);
#374=VECTOR('',#698,1.);
#375=VECTOR('',#701,1.);
#376=VECTOR('',#702,1.);
#377=VECTOR('',#703,1.);
#378=VECTOR('',#706,1.);
#379=VECTOR('',#707,1.);
#380=VECTOR('',#710,1.);
#381=VECTOR('',#715,1.);
#382=EDGE_LOOP('',(#33,#34,#35,#36));
#383=EDGE_LOOP('',(#37,#38,#39));
#384=EDGE_LOOP('',(#40,#41,#42,#43));
#385=EDGE_LOOP('',(#44,#45,#46,#47));
#386=EDGE_LOOP('',(#48));
#387=EDGE_LOOP('',(#49));
#388=EDGE_LOOP('',(#50));
#389=EDGE_LOOP('',(#51));
#390=EDGE_LOOP('',(#52));
#391=EDGE_LOOP('',(#53));
#392=EDGE_LOOP('',(#54));
#393=EDGE_LOOP('',(#55));
#394=EDGE_LOOP('',(#56));
#395=EDGE_LOOP('',(#57));
#396=EDGE_LOOP('',(#58,#59,#60,#61));
#397=EDGE_LOOP('',(#62));
#398=EDGE_LOOP('',(#63));
#399=EDGE_LOOP('',(#64,#65,#66,#67,#68,#69,#70,#71,#72,#73,#74,#75,#76,
#77,#78));
#400=EDGE_LOOP('',(#79));
#401=EDGE_LOOP('',(#80));
#402=EDGE_LOOP('',(#81));
#403=EDGE_LOOP('',(#82));
#404=EDGE_LOOP('',(#83));
#405=EDGE_LOOP('',(#84));
#406=EDGE_LOOP('',(#85));
#407=EDGE_LOOP('',(#86));
#408=EDGE_LOOP('',(#87));
#409=EDGE_LOOP('',(#88));
#410=EDGE_LOOP('',(#89));
#411=EDGE_LOOP('',(#90));
#412=EDGE_LOOP('',(#91,#92,#93,#94,#95,#96,#97,#98,#99,#100,#101,#102));
#413=EDGE_LOOP('',(#103,#104,#105,#106));
#414=EDGE_LOOP('',(#107,#108,#109,#110));
#415=EDGE_LOOP('',(#111,#112,#113,#114));
#416=EDGE_LOOP('',(#115,#116,#117,#118));
#417=EDGE_LOOP('',(#119,#120,#121,#122,#123,#124));
#418=EDGE_LOOP('',(#125,#126,#127,#128));
#419=EDGE_LOOP('',(#129,#130,#131,#132));
#420=EDGE_LOOP('',(#133,#134,#135));
#421=EDGE_LOOP('',(#136,#137,#138,#139));
#422=EDGE_LOOP('',(#140,#141,#142,#143,#144));
#423=EDGE_LOOP('',(#145,#146,#147,#148));
#424=EDGE_LOOP('',(#149,#150,#151,#152));
#425=EDGE_LOOP('',(#153,#154,#155,#156));
#426=EDGE_LOOP('',(#157,#158,#159,#160));
#427=EDGE_LOOP('',(#161));
#428=EDGE_LOOP('',(#162));
#429=EDGE_LOOP('',(#163));
#430=EDGE_LOOP('',(#164));
#431=FACE_BOUND('',#382,.T.);
#432=FACE_BOUND('',#383,.T.);
#433=FACE_BOUND('',#384,.T.);
#434=FACE_BOUND('',#385,.T.);
#435=FACE_BOUND('',#386,.T.);
#436=FACE_BOUND('',#387,.T.);
#437=FACE_BOUND('',#388,.T.);
#438=FACE_BOUND('',#389,.T.);
#439=FACE_BOUND('',#390,.T.);
#440=FACE_BOUND('',#391,.T.);
#441=FACE_BOUND('',#392,.T.);
#442=FACE_BOUND('',#393,.T.);
#443=FACE_BOUND('',#394,.T.);
#444=FACE_BOUND('',#395,.T.);
#445=FACE_BOUND('',#396,.T.);
#446=FACE_BOUND('',#397,.T.);
#447=FACE_BOUND('',#398,.T.);
#448=FACE_BOUND('',#399,.T.);
#449=FACE_BOUND('',#400,.T.);
#450=FACE_BOUND('',#401,.T.);
#451=FACE_BOUND('',#402,.T.);
#452=FACE_BOUND('',#403,.T.);
#453=FACE_BOUND('',#404,.T.);
#454=FACE_BOUND('',#405,.T.);
#455=FACE_BOUND('',#406,.T.);
#456=FACE_BOUND('',#407,.T.);
#457=FACE_BOUND('',#408,.T.);
#458=FACE_BOUND('',#409,.T.);
#459=FACE_BOUND('',#410,.T.);
#460=FACE_BOUND('',#411,.T.);
#461=FACE_BOUND('',#412,.T.);
#462=FACE_BOUND('',#413,.T.);
#463=FACE_BOUND('',#414,.T.);
#464=FACE_BOUND('',#415,.T.);
#465=FACE_BOUND('',#416,.T.);
#466=FACE_BOUND('',#417,.T.);
#467=FACE_BOUND('',#418,.T.);
#468=FACE_BOUND('',#419,.T.);
#469=FACE_BOUND('',#420,.T.);
#470=FACE_BOUND('',#421,.T.);
#471=FACE_BOUND('',#422,.T.);
#472=FACE_BOUND('',#423,.T.);
#473=FACE_BOUND('',#424,.T.);
#474=FACE_BOUND('',#425,.T.);
#475=FACE_BOUND('',#426,.T.);
#476=FACE_BOUND('',#427,.T.);
#477=FACE_BOUND('',#428,.T.);
#478=FACE_BOUND('',#429,.T.);
#479=FACE_BOUND('',#430,.T.);
#480=PLANE('',#542);
#481=PLANE('',#543);
#482=PLANE('',#544);
#483=PLANE('',#545);
#484=PLANE('',#561);
#485=PLANE('',#562);
#486=PLANE('',#565);
#487=PLANE('',#568);
#488=PLANE('',#569);
#489=PLANE('',#570);
#490=PLANE('',#571);
#491=PLANE('',#572);
#492=PLANE('',#573);
#493=PLANE('',#574);
#494=PLANE('',#575);
#495=PLANE('',#576);
#496=PLANE('',#577);
#497=PLANE('',#578);
#498=PLANE('',#579);
#499=PLANE('',#580);
#500=PLANE('',#581);
#501=ADVANCED_FACE('',(#431),#480,.F.);
#502=ADVANCED_FACE('',(#432),#481,.F.);
#503=ADVANCED_FACE('',(#433),#482,.F.);
#504=ADVANCED_FACE('',(#434),#483,.F.);
#505=ADVANCED_FACE('',(#435,#436),#26,.F.);
#506=ADVANCED_FACE('',(#437,#438),#27,.F.);
#507=ADVANCED_FACE('',(#439,#440),#28,.F.);
#508=ADVANCED_FACE('',(#441,#442),#29,.F.);
#509=ADVANCED_FACE('',(#443,#444),#30,.F.);
#510=ADVANCED_FACE('',(#445),#484,.F.);
#511=ADVANCED_FACE('',(#446,#447,#448,#449,#450,#451,#452,#453),#485,.F.);
#512=ADVANCED_FACE('',(#454,#455,#456,#457,#458,#459,#460,#461),#486,.T.);
#513=ADVANCED_FACE('',(#462),#487,.T.);
#514=ADVANCED_FACE('',(#463),#488,.F.);
#515=ADVANCED_FACE('',(#464),#489,.F.);
#516=ADVANCED_FACE('',(#465),#490,.T.);
#517=ADVANCED_FACE('',(#466),#491,.T.);
#518=ADVANCED_FACE('',(#467),#492,.T.);
#519=ADVANCED_FACE('',(#468),#493,.F.);
#520=ADVANCED_FACE('',(#469),#494,.F.);
#521=ADVANCED_FACE('',(#470),#495,.F.);
#522=ADVANCED_FACE('',(#471),#496,.F.);
#523=ADVANCED_FACE('',(#472),#497,.T.);
#524=ADVANCED_FACE('',(#473),#498,.T.);
#525=ADVANCED_FACE('',(#474),#499,.F.);
#526=ADVANCED_FACE('',(#475),#500,.T.);
#527=ADVANCED_FACE('',(#476,#477),#31,.F.);
#528=ADVANCED_FACE('',(#478,#479),#32,.F.);
#529=CLOSED_SHELL('',(#501,#502,#503,#504,#505,#506,#507,#508,#509,#510,
#511,#512,#513,#514,#515,#516,#517,#518,#519,#520,#521,#522,#523,#524,#525,
#526,#527,#528));
#530=STYLED_ITEM('',(#531),#538);
#531=PRESENTATION_STYLE_ASSIGNMENT((#532));
#532=SURFACE_STYLE_USAGE(.BOTH.,#533);
#533=SURFACE_SIDE_STYLE('',(#534));
#534=SURFACE_STYLE_FILL_AREA(#535);
#535=FILL_AREA_STYLE('',(#536));
#536=FILL_AREA_STYLE_COLOUR('',#537);
#537=COLOUR_RGB('',0.615686274509804,0.811764705882353,0.929411764705882);
#538=MANIFOLD_SOLID_BREP('Part 1',#529);
#539=SHAPE_DEFINITION_REPRESENTATION(#870,#540);
#540=SHAPE_REPRESENTATION('Part 1',(#541),#865);
#541=AXIS2_PLACEMENT_3D('',#722,#584,#585);
#542=AXIS2_PLACEMENT_3D('',#723,#586,#587);
#543=AXIS2_PLACEMENT_3D('',#732,#592,#593);
#544=AXIS2_PLACEMENT_3D('',#739,#597,#598);
#545=AXIS2_PLACEMENT_3D('',#747,#603,#604);
#546=AXIS2_PLACEMENT_3D('',#753,#608,#609);
#547=AXIS2_PLACEMENT_3D('',#754,#610,#611);
#548=AXIS2_PLACEMENT_3D('',#756,#612,#613);
#549=AXIS2_PLACEMENT_3D('',#758,#614,#615);
#550=AXIS2_PLACEMENT_3D('',#759,#616,#617);
#551=AXIS2_PLACEMENT_3D('',#761,#618,#619);
#552=AXIS2_PLACEMENT_3D('',#763,#620,#621);
#553=AXIS2_PLACEMENT_3D('',#764,#622,#623);
#554=AXIS2_PLACEMENT_3D('',#766,#624,#625);
#555=AXIS2_PLACEMENT_3D('',#768,#626,#627);
#556=AXIS2_PLACEMENT_3D('',#769,#628,#629);
#557=AXIS2_PLACEMENT_3D('',#771,#630,#631);
#558=AXIS2_PLACEMENT_3D('',#773,#632,#633);
#559=AXIS2_PLACEMENT_3D('',#774,#634,#635);
#560=AXIS2_PLACEMENT_3D('',#776,#636,#637);
#561=AXIS2_PLACEMENT_3D('',#778,#638,#639);
#562=AXIS2_PLACEMENT_3D('',#781,#642,#643);
#563=AXIS2_PLACEMENT_3D('',#782,#644,#645);
#564=AXIS2_PLACEMENT_3D('',#784,#646,#647);
#565=AXIS2_PLACEMENT_3D('',#807,#659,#660);
#566=AXIS2_PLACEMENT_3D('',#808,#661,#662);
#567=AXIS2_PLACEMENT_3D('',#810,#663,#664);
#568=AXIS2_PLACEMENT_3D('',#825,#672,#673);
#569=AXIS2_PLACEMENT_3D('',#828,#676,#677);
#570=AXIS2_PLACEMENT_3D('',#831,#680,#681);
#571=AXIS2_PLACEMENT_3D('',#832,#682,#683);
#572=AXIS2_PLACEMENT_3D('',#838,#687,#688);
#573=AXIS2_PLACEMENT_3D('',#840,#690,#691);
#574=AXIS2_PLACEMENT_3D('',#842,#693,#694);
#575=AXIS2_PLACEMENT_3D('',#843,#695,#696);
#576=AXIS2_PLACEMENT_3D('',#847,#699,#700);
#577=AXIS2_PLACEMENT_3D('',#853,#704,#705);
#578=AXIS2_PLACEMENT_3D('',#856,#708,#709);
#579=AXIS2_PLACEMENT_3D('',#858,#711,#712);
#580=AXIS2_PLACEMENT_3D('',#859,#713,#714);
#581=AXIS2_PLACEMENT_3D('',#861,#716,#717);
#582=AXIS2_PLACEMENT_3D('',#862,#718,#719);
#583=AXIS2_PLACEMENT_3D('',#863,#720,#721);
#584=DIRECTION('',(0.,0.,1.));
#585=DIRECTION('',(1.,0.,0.));
#586=DIRECTION('',(3.62106587740365E-17,6.40780987493001E-17,-1.));
#587=DIRECTION('',(0.,1.,6.40780987493001E-17));
#588=DIRECTION('',(5.44139915365881E-15,1.,-6.40780987493001E-17));
#589=DIRECTION('',(-1.,5.44139915365881E-15,-3.62106587740361E-17));
#590=DIRECTION('',(-5.44139915365881E-15,1.,6.40780987492999E-17));
#591=DIRECTION('',(-1.,5.44139915365881E-15,-3.62106587740361E-17));
#592=DIRECTION('',(3.62106587740365E-17,6.40780987493001E-17,-1.));
#593=DIRECTION('',(1.,-2.32031016869992E-33,3.62106587740365E-17));
#594=DIRECTION('',(-8.67045540726579E-17,-1.,-6.40780987493001E-17));
#595=DIRECTION('',(1.,-5.44139915365881E-15,3.62106587740361E-17));
#596=DIRECTION('',(-0.683808394769789,0.729661619685704,2.19941768699643E-17));
#597=DIRECTION('',(-0.707106781186548,-3.89296029884606E-15,0.707106781186547));
#598=DIRECTION('',(0.707106781186547,0.,0.707106781186548));
#599=DIRECTION('',(0.707106781186547,-3.80234018254371E-15,0.707106781186548));
#600=DIRECTION('',(-5.44139915365881E-15,1.,6.40780987492999E-17));
#601=DIRECTION('',(0.707106781186547,-3.80234018254371E-15,0.707106781186548));
#602=DIRECTION('',(-5.44139915365881E-15,1.,6.40780987492999E-17));
#603=DIRECTION('',(-1.,-5.44139915365881E-15,3.62106587740365E-17));
#604=DIRECTION('',(5.44139915365881E-15,-1.,0.));
#605=DIRECTION('',(3.62106587740361E-17,6.40780987492999E-17,1.));
#606=DIRECTION('',(-5.44139915365881E-15,1.,6.40780987492999E-17));
#607=DIRECTION('',(3.62106587740361E-17,6.40780987492999E-17,1.));
#608=DIRECTION('',(-5.44139915365881E-15,1.,6.40780987492999E-17));
#609=DIRECTION('',(-1.,-5.44139915365881E-15,0.));
#610=DIRECTION('',(5.44139915365881E-15,-1.,-6.40780987492999E-17));
#611=DIRECTION('',(-3.62106587740361E-17,-6.40780987492999E-17,-1.));
#612=DIRECTION('',(5.44139915365881E-15,-1.,-6.40780987492999E-17));
#613=DIRECTION('',(-3.62106587740361E-17,-6.40780987492999E-17,-1.));
#614=DIRECTION('',(-5.44139915365881E-15,1.,6.40780987492999E-17));
#615=DIRECTION('',(-1.,-5.44139915365881E-15,0.));
#616=DIRECTION('',(5.44139915365881E-15,-1.,-6.40780987492999E-17));
#617=DIRECTION('',(-3.62106587740361E-17,-6.40780987492999E-17,-1.));
#618=DIRECTION('',(5.44139915365881E-15,-1.,-6.40780987492999E-17));
#619=DIRECTION('',(-3.62106587740361E-17,-6.40780987492999E-17,-1.));
#620=DIRECTION('',(-5.44139915365881E-15,1.,6.40780987492999E-17));
#621=DIRECTION('',(-1.,-5.44139915365881E-15,0.));
#622=DIRECTION('',(5.44139915365881E-15,-1.,-6.40780987492999E-17));
#623=DIRECTION('',(-3.62106587740361E-17,-6.40780987492999E-17,-1.));
#624=DIRECTION('',(5.44139915365881E-15,-1.,-6.40780987492999E-17));
#625=DIRECTION('',(-3.62106587740361E-17,-6.40780987492999E-17,-1.));
#626=DIRECTION('',(-5.44139915365881E-15,1.,6.40780987492999E-17));
#627=DIRECTION('',(-1.,-5.44139915365881E-15,0.));
#628=DIRECTION('',(5.44139915365881E-15,-1.,-6.40780987492999E-17));
#629=DIRECTION('',(-3.62106587740361E-17,-6.40780987492999E-17,-1.));
#630=DIRECTION('',(5.44139915365881E-15,-1.,-6.40780987492999E-17));
#631=DIRECTION('',(-3.62106587740361E-17,-6.40780987492999E-17,-1.));
#632=DIRECTION('',(-5.44139915365881E-15,1.,6.40780987492999E-17));
#633=DIRECTION('',(-1.,-5.44139915365881E-15,0.));
#634=DIRECTION('',(5.44139915365881E-15,-1.,-6.40780987492999E-17));
#635=DIRECTION('',(-3.62106587740361E-17,-6.40780987492999E-17,-1.));
#636=DIRECTION('',(5.44139915365881E-15,-1.,-6.40780987492999E-17));
#637=DIRECTION('',(-3.62106587740361E-17,-6.40780987492999E-17,-1.));
#638=DIRECTION('',(-0.707106781186548,-3.80234018254372E-15,-0.707106781186547));
#639=DIRECTION('',(-0.707106781186547,0.,0.707106781186548));
#640=DIRECTION('',(-0.707106781186547,3.89296029884606E-15,0.707106781186548));
#641=DIRECTION('',(-0.707106781186547,3.89296029884606E-15,0.707106781186548));
#642=DIRECTION('',(-5.44139915365881E-15,1.,6.40780987492999E-17));
#643=DIRECTION('',(-1.,5.44139915365881E-15,-3.62106587740361E-17));
#644=DIRECTION('',(5.44139915365881E-15,-1.,-6.40780987492999E-17));
#645=DIRECTION('',(1.,5.44139915365881E-15,0.));
#646=DIRECTION('',(5.44139915365881E-15,-1.,-6.40780987492999E-17));
#647=DIRECTION('',(1.,5.44139915365881E-15,0.));
#648=DIRECTION('',(3.62106587740365E-17,6.40780987493001E-17,-1.));
#649=DIRECTION('',(-1.,-5.44139915365881E-15,-3.62106587740368E-17));
#650=DIRECTION('',(3.62106587740365E-17,6.40780987493001E-17,-1.));
#651=DIRECTION('',(3.62106587740355E-17,-6.40780987492997E-17,1.));
#652=DIRECTION('',(1.,5.44139915365881E-15,3.62106587740355E-17));
#653=DIRECTION('',(3.62106587740355E-17,-6.40780987492997E-17,1.));
#654=DIRECTION('',(0.707106781186548,3.89296029884606E-15,-0.707106781186547));
#655=DIRECTION('',(3.62106587740369E-17,5.44139915365881E-15,-1.));
#656=DIRECTION('',(1.,5.44139915365881E-15,-3.62106587740365E-17));
#657=DIRECTION('',(-3.62106587740361E-17,-6.40780987492999E-17,-1.));
#658=DIRECTION('',(1.,5.44139915365881E-15,-3.62106587740365E-17));
#659=DIRECTION('',(-5.44139915365881E-15,1.,6.40780987492999E-17));
#660=DIRECTION('',(-1.,5.44139915365881E-15,-3.62106587740361E-17));
#661=DIRECTION('',(-5.44139915365881E-15,1.,6.40780987492999E-17));
#662=DIRECTION('',(-1.,-5.44139915365881E-15,0.));
#663=DIRECTION('',(-5.44139915365881E-15,1.,6.40780987492999E-17));
#664=DIRECTION('',(-1.,-5.44139915365881E-15,0.));
#665=DIRECTION('',(3.6210658774036E-17,-5.44139915365881E-15,-1.));
#666=DIRECTION('',(1.,5.44139915365881E-15,-3.62106587740365E-17));
#667=DIRECTION('',(-3.62106587740361E-17,-6.40780987492999E-17,-1.));
#668=DIRECTION('',(1.,5.44139915365881E-15,-3.62106587740365E-17));
#669=DIRECTION('',(3.62106587740369E-17,5.44139915365881E-15,-1.));
#670=DIRECTION('',(0.707106781186548,3.89296029884606E-15,-0.707106781186547));
#671=DIRECTION('',(-1.,5.44139915365881E-15,-3.62106587740361E-17));
#672=DIRECTION('',(-3.62106587740368E-17,6.40780987492997E-17,-1.));
#673=DIRECTION('',(0.,1.,6.40780987492997E-17));
#674=DIRECTION('',(-5.44139915365881E-15,1.,6.40780987492999E-17));
#675=DIRECTION('',(-5.44139915365881E-15,1.,6.40780987492999E-17));
#676=DIRECTION('',(-3.62106587740368E-17,6.40780987492997E-17,-1.));
#677=DIRECTION('',(0.,1.,6.40780987492997E-17));
#678=DIRECTION('',(-5.44139915365881E-15,1.,6.40780987492999E-17));
#679=DIRECTION('',(-5.44139915365881E-15,1.,6.40780987492999E-17));
#680=DIRECTION('',(1.,5.44139915365881E-15,-3.62106587740365E-17));
#681=DIRECTION('',(-5.44139915365881E-15,1.,0.));
#682=DIRECTION('',(0.729661619685704,0.683808394769789,7.02386697766087E-17));
#683=DIRECTION('',(-0.683808394769789,0.729661619685704,0.));
#684=DIRECTION('',(-3.62106587740365E-17,-6.40780987493001E-17,1.));
#685=DIRECTION('',(-0.683808394769789,0.729661619685704,2.19941768699643E-17));
#686=DIRECTION('',(-3.62106587740365E-17,-6.40780987493001E-17,1.));
#687=DIRECTION('',(-1.,8.67045540726579E-17,-3.62106587740365E-17));
#688=DIRECTION('',(-8.67045540726579E-17,-1.,0.));
#689=DIRECTION('',(-8.67045540726579E-17,-1.,-6.40780987493001E-17));
#690=DIRECTION('',(3.62106587740365E-17,6.40780987493001E-17,-1.));
#691=DIRECTION('',(1.,-2.32031016869992E-33,3.62106587740365E-17));
#692=DIRECTION('',(5.44139915365881E-15,1.,6.40780987493003E-17));
#693=DIRECTION('',(-1.,5.44139915365881E-15,-3.62106587740361E-17));
#694=DIRECTION('',(-5.44139915365881E-15,-1.,0.));
#695=DIRECTION('',(3.62106587740361E-17,6.40780987492999E-17,1.));
#696=DIRECTION('',(1.,-2.32031016869989E-33,-3.62106587740361E-17));
#697=DIRECTION('',(-0.639258229196965,0.768992143265431,-2.61275928876521E-17));
#698=DIRECTION('',(5.56501213673579E-15,-1.,6.40780987492997E-17));
#699=DIRECTION('',(-0.768992143265431,-0.639258229196965,6.88081640364849E-17));
#700=DIRECTION('',(0.639258229196965,-0.768992143265431,0.));
#701=DIRECTION('',(-3.62106587740361E-17,-6.40780987492999E-17,-1.));
#702=DIRECTION('',(-0.639258229196965,0.768992143265431,-2.61275928876521E-17));
#703=DIRECTION('',(-3.62106587740361E-17,-6.40780987492999E-17,-1.));
#704=DIRECTION('',(1.,5.56501213673579E-15,-3.62106587740365E-17));
#705=DIRECTION('',(-5.56501213673579E-15,1.,0.));
#706=DIRECTION('',(-5.44139915365881E-15,1.,6.40780987492999E-17));
#707=DIRECTION('',(5.56501213673579E-15,-1.,6.40780987492997E-17));
#708=DIRECTION('',(3.62106587740361E-17,6.40780987492999E-17,1.));
#709=DIRECTION('',(1.,-2.32031016869989E-33,-3.62106587740361E-17));
#710=DIRECTION('',(5.44139915365881E-15,1.,-6.40780987493001E-17));
#711=DIRECTION('',(1.,-5.44139915365881E-15,-3.62106587740358E-17));
#712=DIRECTION('',(5.44139915365881E-15,1.,0.));
#713=DIRECTION('',(-0.707106781186547,-3.80234018254372E-15,-0.707106781186548));
#714=DIRECTION('',(-0.707106781186548,0.,0.707106781186547));
#715=DIRECTION('',(8.67045540726581E-17,1.,-5.46402560898216E-15));
#716=DIRECTION('',(-1.,8.67045540726579E-17,-3.62106587740365E-17));
#717=DIRECTION('',(-8.67045540726579E-17,-1.,0.));
#718=DIRECTION('',(5.44139915365881E-15,-1.,-6.40780987492999E-17));
#719=DIRECTION('',(1.,5.44139915365881E-15,0.));
#720=DIRECTION('',(5.44139915365881E-15,-1.,-6.40780987492999E-17));
#721=DIRECTION('',(1.,5.44139915365881E-15,0.));
#722=CARTESIAN_POINT('',(0.,0.,0.));
#723=CARTESIAN_POINT('',(0.00350000000000035,-0.00100000000000011,0.0205));
#724=CARTESIAN_POINT('',(0.0366687064233424,-0.00100200000000029,0.0205));
#725=CARTESIAN_POINT('',(0.0366687064233424,-0.00100000000000029,0.0205));
#726=CARTESIAN_POINT('',(0.0366687064233424,-2.89735285267299E-16,0.0205));
#727=CARTESIAN_POINT('',(0.00350000000000035,-0.00100000000000011,0.0205));
#728=CARTESIAN_POINT('',(0.0375,-0.00100000000000029,0.0205));
#729=CARTESIAN_POINT('',(0.0375,-0.00100000000000029,0.0205));
#730=CARTESIAN_POINT('',(0.0375,-2.91433543964103E-16,0.0205));
#731=CARTESIAN_POINT('',(0.00350000000000035,-1.11022302462516E-16,0.0205));
#732=CARTESIAN_POINT('',(0.01875,0.0195072936713694,-0.0205));
#733=CARTESIAN_POINT('',(2.47704198084455E-18,0.0200072936713695,-0.0205));
#734=CARTESIAN_POINT('',(4.21176545682136E-18,0.0400145873427391,-0.0205));
#735=CARTESIAN_POINT('',(4.33629659389448E-19,-1.092505177886E-16,-0.0205));
#736=CARTESIAN_POINT('',(0.00350000000000035,-1.11022302462516E-16,-0.0205));
#737=CARTESIAN_POINT('',(0.0375,-2.98372437868011E-16,-0.0205));
#738=CARTESIAN_POINT('',(0.01875,0.0200072936713694,-0.0205));
#739=CARTESIAN_POINT('',(0.041,-0.00100000000000032,-0.017));
#740=CARTESIAN_POINT('',(0.041,-3.19189119579733E-16,-0.017));
#741=CARTESIAN_POINT('',(0.041,-3.19189119579733E-16,-0.017));
#742=CARTESIAN_POINT('',(0.041,-0.00100000000000032,-0.017));
#743=CARTESIAN_POINT('',(0.041,-0.00100000000000032,-0.017));
#744=CARTESIAN_POINT('',(0.041,-0.00100000000000032,-0.017));
#745=CARTESIAN_POINT('',(0.0375,-0.0010000000000003,-0.0205));
#746=CARTESIAN_POINT('',(0.0375,-0.0010000000000003,-0.0205));
#747=CARTESIAN_POINT('',(0.041,-0.00100000000000031,0.017));
#748=CARTESIAN_POINT('',(0.041,-3.12250225675826E-16,0.017));
#749=CARTESIAN_POINT('',(0.041,-3.12250225675826E-16,0.017));
#750=CARTESIAN_POINT('',(0.041,-0.00100000000000031,0.017));
#751=CARTESIAN_POINT('',(0.041,-0.00100000000000031,0.017));
#752=CARTESIAN_POINT('',(0.041,-0.00100000000000031,0.017));
#753=CARTESIAN_POINT('',(0.0205000000000004,-0.0010000000000002,-1.04724189546101E-17));
#754=CARTESIAN_POINT('',(0.0205000000000004,-0.0010000000000002,-1.04724189546101E-17));
#755=CARTESIAN_POINT('',(0.0205000000000004,-0.0010000000000002,-0.0155));
#756=CARTESIAN_POINT('',(0.0205000000000004,-2.01227923213309E-16,-1.04083408558608E-17));
#757=CARTESIAN_POINT('',(0.0205000000000004,-2.02221133743924E-16,-0.0155));
#758=CARTESIAN_POINT('',(0.036,-0.00100000000000029,-0.0155));
#759=CARTESIAN_POINT('',(0.036,-0.00100000000000029,-0.0155));
#760=CARTESIAN_POINT('',(0.036,-0.00100000000000029,-0.017));
#761=CARTESIAN_POINT('',(0.036,-2.91433543964103E-16,-0.0155));
#762=CARTESIAN_POINT('',(0.036,-2.91529661112227E-16,-0.017));
#763=CARTESIAN_POINT('',(0.00500000000000034,-0.00100000000000012,0.0155));
#764=CARTESIAN_POINT('',(0.00500000000000034,-0.00100000000000012,0.0155));
#765=CARTESIAN_POINT('',(0.00500000000000034,-0.00100000000000012,0.014));
#766=CARTESIAN_POINT('',(0.00500000000000034,-1.17961196366423E-16,0.0155));
#767=CARTESIAN_POINT('',(0.00500000000000034,-1.18057313514547E-16,0.014));
#768=CARTESIAN_POINT('',(0.00500000000000034,-0.00100000000000012,-0.0155));
#769=CARTESIAN_POINT('',(0.00500000000000034,-0.00100000000000012,-0.0155));
#770=CARTESIAN_POINT('',(0.00500000000000034,-0.00100000000000012,-0.017));
#771=CARTESIAN_POINT('',(0.00500000000000034,-1.17961196366423E-16,-0.0155));
#772=CARTESIAN_POINT('',(0.00500000000000034,-1.18057313514547E-16,-0.017));
#773=CARTESIAN_POINT('',(0.036,-0.00100000000000028,0.0155));
#774=CARTESIAN_POINT('',(0.036,-0.00100000000000028,0.0155));
#775=CARTESIAN_POINT('',(0.036,-0.00100000000000028,0.014));
#776=CARTESIAN_POINT('',(0.036,-2.84494650060197E-16,0.0155));
#777=CARTESIAN_POINT('',(0.036,-2.8459076720832E-16,0.014));
#778=CARTESIAN_POINT('',(0.041,-0.00100000000000031,0.017));
#779=CARTESIAN_POINT('',(0.041,-3.12250225675826E-16,0.017));
#780=CARTESIAN_POINT('',(0.041,-0.00100000000000031,0.017));
#781=CARTESIAN_POINT('',(3.45447200445113E-16,-0.00100000000000009,-1.22071424305869E-17));
#782=CARTESIAN_POINT('',(-0.00902325639297815,-0.00100000000000026,0.00869221353530902));
#783=CARTESIAN_POINT('',(-0.00702325639297815,-0.00100000000000025,0.00869221353530902));
#784=CARTESIAN_POINT('',(-0.00902325639297815,-0.00100000000000026,-0.0105793884426369));
#785=CARTESIAN_POINT('',(-0.00702325639297815,-0.00100000000000025,-0.0105793884426369));
#786=CARTESIAN_POINT('',(-5.22413520101508E-18,-0.00100000000000009,-0.0265));
#787=CARTESIAN_POINT('',(3.45447200445113E-16,-0.00100000000000009,-0.017));
#788=CARTESIAN_POINT('',(-5.22413520101453E-18,-0.000999999999999987,-0.0265));
#789=CARTESIAN_POINT('',(0.00350000000000034,-0.00100000000000007,-0.0265));
#790=CARTESIAN_POINT('',(0.0375,-0.000999999999999885,-0.0265));
#791=CARTESIAN_POINT('',(0.0375,-0.000999999999999884,-0.0265));
#792=CARTESIAN_POINT('',(0.0366687064233424,-0.000999999999999892,0.0225));
#793=CARTESIAN_POINT('',(0.0366687064233424,-0.000999999999999982,0.0225));
#794=CARTESIAN_POINT('',(0.00350000000000034,-0.00100000000000007,0.0225));
#795=CARTESIAN_POINT('',(0.00350000000000034,-0.00100000000000007,0.0225));
#796=CARTESIAN_POINT('',(0.00350000000000034,-0.00100000000000007,0.0225));
#797=CARTESIAN_POINT('',(0.00350000000000035,-0.00100000000000011,0.0205));
#798=CARTESIAN_POINT('',(-1.41421356237344E-6,-0.00100000000000013,0.0240014142135628));
#799=CARTESIAN_POINT('',(-2.18110983917983E-20,-0.00100000000000013,0.0240000000000004));
#800=CARTESIAN_POINT('',(-8.67361737988404E-19,-0.00100000000000011,0.0205014142135627));
#801=CARTESIAN_POINT('',(3.45447200445113E-16,-0.00100000000000009,0.017));
#802=CARTESIAN_POINT('',(-0.0179999999999997,-0.00100000000000019,0.017));
#803=CARTESIAN_POINT('',(-0.0179999999999997,-0.00100000000000019,0.017));
#804=CARTESIAN_POINT('',(-0.0179999999999997,-0.00100000000000019,0.017));
#805=CARTESIAN_POINT('',(-0.0179999999999997,-0.00100000000000019,-0.017));
#806=CARTESIAN_POINT('',(-0.0179999999999997,-0.00100000000000019,-0.017));
#807=CARTESIAN_POINT('',(3.40005801291454E-16,-9.0205620750794E-17,-1.21430643318376E-17));
#808=CARTESIAN_POINT('',(-0.00902325639297815,-1.38777878078145E-16,0.00869221353530902));
#809=CARTESIAN_POINT('',(-0.0110232563929782,-1.49660676385462E-16,0.00869221353530902));
#810=CARTESIAN_POINT('',(-0.00902325639297815,-1.38777878078145E-16,-0.0105793884426369));
#811=CARTESIAN_POINT('',(-0.0110232563929782,-1.49660676385462E-16,-0.0105793884426369));
#812=CARTESIAN_POINT('',(4.33680868994202E-19,-1.09258213089083E-16,-0.0205014142135627));
#813=CARTESIAN_POINT('',(3.40005801291454E-16,-9.0205620750794E-17,-0.017));
#814=CARTESIAN_POINT('',(-0.0179999999999997,-1.88150805516652E-16,-0.017));
#815=CARTESIAN_POINT('',(-0.0179999999999997,-1.88150805516652E-16,-0.017));
#816=CARTESIAN_POINT('',(-0.0179999999999997,-1.88150805516652E-16,0.017));
#817=CARTESIAN_POINT('',(-0.0179999999999997,-1.88150805516652E-16,0.017));
#818=CARTESIAN_POINT('',(-0.0179999999999997,-1.88150805516652E-16,0.017));
#819=CARTESIAN_POINT('',(3.40005801291454E-16,-9.0205620750794E-17,0.017));
#820=CARTESIAN_POINT('',(-8.67361737988404E-19,-1.09258213089083E-16,0.0205014142135627));
#821=CARTESIAN_POINT('',(-2.84073674685411E-18,-1.30291472845946E-16,0.0240000000000004));
#822=CARTESIAN_POINT('',(-1.41421356237908E-6,-1.30299258766544E-16,0.0240014142135628));
#823=CARTESIAN_POINT('',(0.00350000000000035,-1.11022302462516E-16,0.0205));
#824=CARTESIAN_POINT('',(0.00350000000000035,-1.11022302462516E-16,0.0205));
#825=CARTESIAN_POINT('',(-0.0179999999999997,-0.00100000000000019,-0.017));
#826=CARTESIAN_POINT('',(3.45447200445113E-16,-0.00100000000000009,-0.017));
#827=CARTESIAN_POINT('',(-0.0179999999999997,-0.00100000000000019,-0.017));
#828=CARTESIAN_POINT('',(-0.0179999999999997,-0.00100000000000019,0.017));
#829=CARTESIAN_POINT('',(3.45447200445113E-16,-0.00100000000000009,0.017));
#830=CARTESIAN_POINT('',(-0.0179999999999997,-0.00100000000000019,0.017));
#831=CARTESIAN_POINT('',(-0.0179999999999997,-0.00100000000000019,0.017));
#832=CARTESIAN_POINT('',(0.01875,0.0200072936713694,-0.0265));
#833=CARTESIAN_POINT('',(0.0375,-2.97987969275515E-16,-0.0265));
#834=CARTESIAN_POINT('',(0.0375,-2.97987969275515E-16,-0.0265));
#835=CARTESIAN_POINT('',(0.01875,0.0200072936713694,-0.0265));
#836=CARTESIAN_POINT('',(4.42902940946558E-18,0.0400145873427391,-0.0265));
#837=CARTESIAN_POINT('',(4.42902940946558E-18,0.0400145873427391,-0.0265));
#838=CARTESIAN_POINT('',(2.69430593348877E-18,0.0200072936713695,-0.0265));
#839=CARTESIAN_POINT('',(2.69430593348877E-18,0.0200072936713695,-0.0265));
#840=CARTESIAN_POINT('',(0.01875,0.0195072936713694,-0.0265));
#841=CARTESIAN_POINT('',(0.0375,-0.00100200000000029,-0.0265));
#842=CARTESIAN_POINT('',(0.0375,-0.00100200000000029,-0.0265));
#843=CARTESIAN_POINT('',(0.0205000000000003,0.0194500557653116,0.0205));
#844=CARTESIAN_POINT('',(0.0205000000000003,0.0194500557653115,0.0205));
#845=CARTESIAN_POINT('',(0.00350000000000012,0.0399001115306234,0.0205));
#846=CARTESIAN_POINT('',(0.00350000000000024,0.0199500557653117,0.0205));
#847=CARTESIAN_POINT('',(0.0205000000000003,0.0194500557653115,0.0225));
#848=CARTESIAN_POINT('',(0.00350000000000012,0.0399001115306234,0.0225));
#849=CARTESIAN_POINT('',(0.00350000000000012,0.0399001115306234,0.0225));
#850=CARTESIAN_POINT('',(0.0205000000000003,0.0194500557653115,0.0225));
#851=CARTESIAN_POINT('',(0.0366687064233424,-2.896071290698E-16,0.0225));
#852=CARTESIAN_POINT('',(0.0366687064233424,-2.896071290698E-16,0.0225));
#853=CARTESIAN_POINT('',(0.00350000000000024,0.0199500557653117,0.0225));
#854=CARTESIAN_POINT('',(0.00350000000000035,-0.00100000000000011,0.0205));
#855=CARTESIAN_POINT('',(0.00350000000000024,0.0199500557653117,0.0225));
#856=CARTESIAN_POINT('',(0.0205000000000003,0.0194500557653116,0.0225));
#857=CARTESIAN_POINT('',(0.0366687064233424,-0.00100200000000029,0.0225));
#858=CARTESIAN_POINT('',(0.0366687064233424,-0.00100200000000029,0.0225));
#859=CARTESIAN_POINT('',(-1.41421356237344E-6,-0.00100000000000013,0.0240014142135628));
#860=CARTESIAN_POINT('',(-9.55876680976478E-19,-0.00100000000000013,0.0240000000000004));
#861=CARTESIAN_POINT('',(2.69430593348877E-18,0.0200072936713695,-0.0265));
#862=CARTESIAN_POINT('',(-0.00902325639297828,0.0239999999999998,-0.0105793884426369));
#863=CARTESIAN_POINT('',(-0.00902325639297828,0.0239999999999998,0.00869221353530902));
#864=MECHANICAL_DESIGN_GEOMETRIC_PRESENTATION_REPRESENTATION('',(#530),
#865);
#865=(
GEOMETRIC_REPRESENTATION_CONTEXT(3)
GLOBAL_UNCERTAINTY_ASSIGNED_CONTEXT((#866))
GLOBAL_UNIT_ASSIGNED_CONTEXT((#869,#868,#867))
REPRESENTATION_CONTEXT('Part 1','TOP_LEVEL_ASSEMBLY_PART')
);
#866=UNCERTAINTY_MEASURE_WITH_UNIT(LENGTH_MEASURE(1.E-8),#869,
'DISTANCE_ACCURACY_VALUE','Maximum Tolerance applied to model');
#867=(
NAMED_UNIT(*)
SI_UNIT($,.STERADIAN.)
SOLID_ANGLE_UNIT()
);
#868=(
NAMED_UNIT(*)
PLANE_ANGLE_UNIT()
SI_UNIT($,.RADIAN.)
);
#869=(
LENGTH_UNIT()
NAMED_UNIT(*)
SI_UNIT($,.METRE.)
);
#870=PRODUCT_DEFINITION_SHAPE('','',#871);
#871=PRODUCT_DEFINITION('','',#873,#872);
#872=PRODUCT_DEFINITION_CONTEXT('',#879,'design');
#873=PRODUCT_DEFINITION_FORMATION_WITH_SPECIFIED_SOURCE('','',#875,
 .NOT_KNOWN.);
#874=PRODUCT_RELATED_PRODUCT_CATEGORY('','',(#875));
#875=PRODUCT('Part 1','Part 1','Part 1',(#877));
#876=PRODUCT_CATEGORY('','');
#877=PRODUCT_CONTEXT('',#879,'mechanical');
#878=APPLICATION_PROTOCOL_DEFINITION('international standard',
'ap242_managed_model_based_3d_engineering',2020,#879);
#879=APPLICATION_CONTEXT('managed model based 3d engineering');
ENDSEC;
END-ISO-10303-21;
